<?xml version="1.0" encoding="utf-8"?>
<!-- Generator: Adobe Illustrator 24.3.0, SVG Export Plug-In . SVG Version: 6.00 Build 0)  -->
<svg version="1.1" id="Layer_1" xmlns="http://www.w3.org/2000/svg" xmlns:xlink="http://www.w3.org/1999/xlink" x="0px" y="0px"
	 viewBox="0 0 256 256" style="enable-background:new 0 0 256 256;" xml:space="preserve">
<style type="text/css">
	.st0{fill:#1F9DA9;}
	.st1{fill:#FFFFFF;}
</style>
<g>
	<path class="st1" d="M34.6,18c51.9,0,103.5,0,155.4,0c0,36.2,0,72.3,0,108.8c-4.6,0-9.4,0-14.7,0c0-30.8,0-61.7,0-93
		c-42.1,0-83.6,0-125.5,0c0,55.4,0,110.8,0,166.6c12.2,0,24.2,0,36.6,0c0,5.2,0,10.1,0,15.3c-17.3,0-34.4,0-51.9,0
		C34.6,150,34.6,84.3,34.6,18z"/>
	<path class="st1" d="M130.3,157.6c-17.2-0.2-29,12.1-28.8,30c0.1,17.9,11.5,29.7,28.6,29.7c17.1,0,28.3-11.7,28.4-29.8
		C158.5,169.5,147.5,157.8,130.3,157.6z M130,206.6c-11,0-18.3-7.6-18.4-19.1c-0.1-11.5,7.5-19.4,18.5-19.3
		c11.1,0.1,18.1,7.6,18.1,19.2C148.2,199.1,141,206.7,130,206.6z"/>
	<path class="st1" d="M221.4,210.4c-0.5-15.1-0.1-30.3-0.1-45.4c0-1.8,0-3.5,0-5.2c-4.5,0-8.2,0-12,0c-0.2,2.2-0.3,4.1-0.4,5.1
		c-3.9-2.2-7.5-5.1-11.5-6.2c-11.7-3.2-23.2,2.8-28.1,14.1c-3,6.7-3.5,13.7-2.2,21c1.7,9.7,6,17.5,15.7,20.6
		c9.8,3.2,18.8,1.6,25.4-7.4c0.4,0.2,0.8,0.3,1.2,0.5c-0.4,4.2-0.4,8.5-1.2,12.7c-1.2,5.8-5.6,8.4-11.3,8.8
		c-5.6,0.4-11.5,0.9-14.6-4.9c-1.7-3.2-3.7-3.7-6.6-3.5c-2.3,0.1-4.6,0-8.7,0c2.8,4.5,4.2,9.2,7.4,11.3c4.6,3.1,10.4,5.5,15.9,6
		C208.1,239.3,222.1,232.7,221.4,210.4z M191,205.6c-9.3,0-15.4-7.5-15.5-18.9c-0.1-11.4,6.3-19.2,15.6-19.1
		c9.3,0.1,15.3,7.5,15.3,19.1C206.3,198.2,200.3,205.7,191,205.6z"/>
	<path class="st1" d="M159.1,112.2c0,5.1,0,9.9,0,15c-31.2,0-62.2,0-93.5,0c0-5,0-9.8,0-15C96.6,112.2,127.6,112.2,159.1,112.2z"/>
	<path class="st1" d="M65.6,95.6c0-4.9,0-9.7,0-14.8c31,0,62.1,0,93.4,0c0,4.9,0,9.7,0,14.8C128,95.6,96.9,95.6,65.6,95.6z"/>
	<path class="st1" d="M158.9,64.4c-31.2,0-62.1,0-93.3,0c0-4.9,0-9.6,0-14.7c30.9,0,61.9,0,93.3,0C158.9,54.4,158.9,59.1,158.9,64.4
		z"/>
</g>
</svg>
