<?xml version="1.0" encoding="utf-8"?>
<!-- Generator: Adobe Illustrator 24.3.0, SVG Export Plug-In . SVG Version: 6.00 Build 0)  -->
<svg version="1.1" id="code_stroke_1_" xmlns="http://www.w3.org/2000/svg" xmlns:xlink="http://www.w3.org/1999/xlink" x="0px"
	 y="0px" viewBox="0 0 256 256" style="enable-background:new 0 0 256 256;" xml:space="preserve">
<style type="text/css">
	.st0{fill:#FFFFFF;}
</style>
<g>
	<path class="st0" d="M13.8,119.7c0-9.1-0.1-18.2,0-27.3c0.1-12.5,8.6-21,21-21.1c8.9-0.1,17.8,0.1,26.8-0.1
		c3.7-0.1,5.3,1.3,5.3,5.1C66.7,90.6,68,88.6,55.1,88.7c-6.2,0-12.4,0.2-18.5,0c-4-0.1-5.4,1.4-5.4,5.4c0.1,18-0.1,36,0.1,54
		c0,4.4-1.1,6.5-6.1,6.4c-10.3-0.3-11.9,2.6-11.3-10.6c0.4-8,0.1-16.1,0.1-24.2C13.9,119.7,13.8,119.7,13.8,119.7z"/>
	<path class="st0" d="M245.6,120.2c0,9.6-0.1,19.2,0.1,28.8c0.1,4.2-1.6,5.7-5.8,5.6c-13.5-0.3-11.7,1.5-11.7-11.8
		c-0.1-16.3-0.1-32.5,0.1-48.8c0-4.1-1.5-5.4-5.4-5.3c-8.2,0.2-16.5-0.1-24.7,0.1c-4,0.1-5.5-1.3-5.4-5.4c0.3-13.9-1.7-12,11.9-12.1
		c6.7-0.1,13.4-0.1,20.1,0c12.2,0.2,20.7,8.4,20.9,20.6C245.8,101.3,245.6,110.8,245.6,120.2z"/>
	<path class="st0" d="M89,63.8c0.1-23.1,17.2-40.2,39.6-40.2c21.3,0,38.3,17.7,38.4,39.9c0,2.3,1.3,5.9-0.9,6.6
		c-3.3,1-7.2,0.7-10.7,0.1c-2-0.3-1.1-3-1-4.5c0.3-9.4-2.3-17.7-9.9-23.7c-8.5-6.6-17.9-7.8-27.5-3.2c-9.4,4.5-15.3,11.9-15.2,23
		c0,0.2,0,0.3,0,0.5c-0.4,2.6,1.4,6.6-0.9,7.6c-2.8,1.3-6.8,1.2-10,0.4C86.9,69.5,90,65.7,89,63.8z"/>
	<path class="st0" d="M249.3,176.8c-2.5-5.5-6.8-7.4-12.8-7.3c-72.4,0.1-144.7,0.1-217.1,0c-6,0-10.3,1.8-12.8,7.3
		c0,14.5,0.1,29,0,43.5c-0.1,6.1,2.2,10.2,8.1,12.1c30.2,0,60.4,0,90.6-0.1c5.1,0,10.3,0,15.4,0c13.7-0.1,27.4-0.2,41-0.2
		c26.5,0,53,0.1,79.5,0.2c6.1-2,8.2-6.3,8.1-12.6C249.1,205.5,249.3,191.2,249.3,176.8z M55.3,212.9c-3.8,5.5-8.1,0.1-12.7-2.1
		c0,2.4,0,4.4,0,6.3c0,3.5-1.8,5.7-5.2,5.7c-3.5,0-5.1-2.4-5.1-5.8c0-2.2,0-4.4,0-7c-2.8,0.2-4.8,1.9-7.1,2.9
		c-2.9,1.2-5.6,0.8-7.1-2.1c-1.6-3.1-0.6-5.7,2.6-7.3c1.8-0.9,3.6-1.8,5.6-2.8c-2.9-3.8-11.5-4.9-6.7-11.6c4-5.5,8.1,0.3,12.6,2.2
		c0-2.7-0.2-5,0-7.3c0.3-2.9,2.2-4.8,5.2-4.7c2.9,0.1,4.8,1.8,5,4.8c0.2,2.6,0,5.1,0,8c5.2-0.4,10.3-7.6,14.1-0.7
		c3.8,6.9-4.5,7.1-7.9,10.3C51.6,205.1,59.9,206.2,55.3,212.9z M114.1,205.4c2.8,1.8,3.6,4.3,2.1,7c-1.7,3.1-4.6,3.2-7.6,1.7
		c-1.6-0.9-3.2-1.9-5.6-3.4c0,2.6,0.1,4.5,0,6.4c-0.2,3.4-1.9,5.7-5.4,5.5c-3.2-0.1-4.9-2.2-5-5.4c0-2.4,0-4.7,0-7.9
		c-2.9,1.4-5,2.6-7.2,3.5c-2.9,1.2-5.5,0.8-7-2.2c-1.6-3-0.3-5.3,2.3-7c0.7-0.5,1.5-1,2.3-1.2c4.4-1.1,2.2-2.8,0.4-4.4
		c-1-0.9-2.3-1.5-3.2-2.5c-1.9-2-1.9-4.3-0.3-6.6c1.5-2.1,3.7-2.6,5.9-1.7c2.2,0.9,4.1,2.4,6.9,4.1c0-2.6-0.1-4.7,0-6.8
		c0.2-3.2,1.9-5.3,5.1-5.3c3.3-0.1,5,2.1,5.2,5.2c0.2,2.4,0,4.8,0,7.5c2.8,0,4.5-1.8,6.6-2.6c3-1.2,6-1.2,7.6,2
		c1.7,3.4,0.3,5.9-3.1,7.5c-1.7,0.8-3.3,1.7-5.6,2.8C110.6,203.1,112.4,204.3,114.1,205.4z M176.2,212.6c-3.8,6.1-8.2,0.1-12.4-1.5
		c-1.5,4.4,1.8,12-6,11.4c-7.8-0.6-3.6-8.2-5.3-12.5c-4.7,0.3-10,7.8-13.7,0.3c-3.2-6.5,4.6-6.9,8.1-9.9c-3.2-3.5-10.8-4.6-6.9-10.9
		c3.9-6.3,8.2-0.1,12.4,1.4c1-1.7,0.4-3.6,0.5-5.4c0.2-3.5,1.5-6.2,5.4-6.1c3.6,0.1,5,2.5,5,5.9c0,2.2,0,4.4,0,7.4
		c2.6-1.3,4.7-2.3,6.8-3.3c3-1.4,5.8-1.2,7.5,2.1c1.7,3.3,0.2,5.6-2.8,7.2c-1.8,1-3.6,1.9-5.5,2.9
		C172.2,205.2,180.4,206,176.2,212.6z M236.6,212.6c-3.8,6.1-8.3,0.2-12.9-1.7c0,2.6,0.1,4.7,0,6.9c-0.3,2.9-1.9,5-4.9,5
		c-3.1,0-5.2-1.7-5.3-5.1c-0.1-2.5,0-5.1,0-7.8c-5.3,0.6-10.4,7.7-14.1,0.6c-3.6-6.8,4.7-7,7.9-10.1c-2.8-3.5-10.9-4.5-6.8-10.9
		c3.9-6.1,8.3,0,12.9,1.8c0-2.3,0-4.3,0-6.2c0-3.5,1.8-5.7,5.2-5.7c3.4,0,5.1,2.4,5.1,5.8c0,2.2,0,4.4,0,6.9
		c2.9-0.1,4.8-1.9,7.1-2.8c2.9-1.1,5.6-0.8,7,2.2c1.6,3.1,0.4,5.6-2.7,7.2c-1.8,0.9-3.6,1.8-5.6,2.9
		C232.6,205.2,240.7,206.1,236.6,212.6z"/>
	<path class="st0" d="M178.2,89.8c0-6.7-3-9.6-9.8-9.7c-13.4,0-26.7,0-40.1,0c-13.7,0-27.4,0-41.1,0c-5.9,0-9.2,3-9.3,8.6
		c-0.1,15.8-0.2,31.5,0,47.3c0.2,10.9,8.2,18.4,19.2,18.5c20.6,0.1,41.1,0.1,61.7,0c11.5-0.1,19.3-7.9,19.4-19.4
		C178.2,119.9,178.2,104.9,178.2,89.8z M137.2,112.3c-3.7,4-3.2,8.3-3.3,12.8c0,1.5,0.1,3.1-0.1,4.6c-0.5,3.6-2.8,5.8-6.2,5.7
		c-3.3-0.1-5.1-2.6-5.4-5.8c-0.2-2,0-4.1,0-6.2c0.1-3.9-0.1-7.4-3.2-10.8c-3.6-4-2.3-10.1,1.8-13.8c4-3.5,10-3.6,14.1-0.2
		C139.2,102.2,140.9,108.3,137.2,112.3z"/>
</g>
</svg>
