<?xml version="1.0" encoding="utf-8"?>
<!-- Generator: Adobe Illustrator 24.3.0, SVG Export Plug-In . SVG Version: 6.00 Build 0)  -->
<svg version="1.1" id="code_stroke_1_" xmlns="http://www.w3.org/2000/svg" xmlns:xlink="http://www.w3.org/1999/xlink" x="0px"
	 y="0px" viewBox="0 0 256 256" style="enable-background:new 0 0 256 256;" xml:space="preserve">
<style type="text/css">
	.st0{fill:#FFFFFF;}
</style>
<g>
	<path class="st0" d="M16.6,141c0-9.9,0-19.8,0-29.7c0.9-2.1,2.6-2.9,4.8-2.9c3,0,6.1-0.1,9.1,0c1.4,0,2-0.4,2.4-1.7
		c1.2-4.1,2.8-8,4.9-11.8c0.8-1.5,0.5-2.7-0.8-3.9c-2.1-2-4.2-4.1-6.2-6.2c-2.1-2.1-2.1-4.4,0-6.5c6.2-6.2,12.3-12.5,18.6-18.6
		c2.1-2,4.4-2,6.5,0.1c2.1,2.1,4.2,4.1,6.2,6.2c1.2,1.3,2.3,1.5,3.8,0.6c3.7-2.1,7.7-3.7,11.8-4.9c1.5-0.4,1.7-1.1,1.6-2.4
		c0-2.9,0-5.8,0-8.8c-0.1-2.2,0.6-4,2.7-4.9c10.2,0,20.3,0,30.5,0.1c2,1,2.4,2.7,2.4,4.7c0,3.4-0.8,7.2,0.5,10
		c1.3,2.7,5.6,2.5,8.5,3.8c6.7,3.2,6.7,3.1,12.1-2c0.9-0.9,1.6-1.9,2.6-2.6c2.1-1.7,4.2-2,6.3,0.1c6.2,6.2,12.4,12.4,18.6,18.6
		c2.3,2.3,2.1,4.5-0.2,6.7c-1.7,1.6-3.2,3.5-5,5c-2.4,1.9-2.8,3.8-1,6.2c0.4,0.6,0.6,1.4,1,2.1c-0.9,0.8-2,0.5-2.9,0.5
		c-8.3,0-16.6,0-25,0.1c-2,0-3.3-0.6-4.7-1.9C113.4,85.2,94,82,79.4,89.4c-16.3,8.3-25.1,24.6-22.6,42.5c1.2,8.4,4.4,16,10.5,21.9
		c9,8.6,19.5,13.8,32.3,12.7c12.7-1,22.9-6.7,30.3-17.1c1.1-1.5,3.3-2.3,3-4.8c0-0.1,0.8-0.3,1.2-0.3c9.2,0,18.4,0,27.7,0
		c-1,4.8-2.9,9-5.2,13c-0.9,1.7-0.8,2.8,0.7,4c2.2,1.9,4.2,4.1,6.2,6.2c2,2,2.2,4.1,0.1,6.2c-6.3,6.4-12.7,12.7-19.1,19.1
		c-2.1,2.1-4.3,1.5-6.2-0.4c-2.1-2-4.2-4-6.2-6.2c-1.1-1.2-2-1.5-3.5-0.7c-3.7,2.1-7.6,3.8-11.8,4.9c-1.7,0.4-2.1,1.4-2,2.9
		c0,2.9,0,5.8,0,8.8c0,1.9-0.6,3.5-2.4,4.4c-8.8,0-17.7,0-26.5,0c-1.8,0-3.5-0.1-5.2-0.7c-2.5-2.6-1.3-5.8-1.4-8.7
		c-0.2-5.8-0.1-5.8-5.3-7.9c-2.5-1-5-1.9-7.3-3.3c-2.3-1.4-3.8-0.9-5.5,1c-1.7,2-3.6,3.7-5.4,5.5c-2.2,2.1-4.5,2.1-6.5,0
		c-6.2-6.1-12.4-12.4-18.6-18.6c-2.1-2.1-2-4.4,0.1-6.5c1.9-2,3.9-4,5.9-5.9c1.5-1.3,1.8-2.6,0.8-4.4c-1.9-3.5-3.5-7.3-4.6-11.2
		c-0.4-1.6-1.2-2.1-2.8-2c-2.9,0.1-5.8,0-8.8,0C19.2,144,17.5,143.2,16.6,141z"/>
	<path class="st0" d="M239.4,107.4c0-10.4-7.9-18.3-18.3-18.3c-2.8,0-5.6,0-8.4,0c-3.1,0-6.4-0.7-9.4,0c-6.3,1.6-14.1,5.9-14.6,15.9
		c-0.1,2.8-1.2,3.5-3.9,3.4c-14.8-0.1-29.7-0.1-44.5-0.1c0,0,0-0.1,0-0.1c-15,0-29.9,0-44.9,0c-4.3,0-4.5,0.3-4.5,4.7
		c0,3.4,0.2,6.8,0,10.1c-0.2,3.2,0.9,4.8,4.2,4.4c1.9-0.2,2.2,0.7,2.2,2.3c-0.1,3.5,0,7-0.2,10.4c-0.1,2.6,0.9,3.4,3.3,3.3
		c4-0.1,8.1-0.1,12.1,0c2.8,0.1,3.8-1.2,3.7-3.9c-0.1-2.8,0.2-5.6-0.1-8.4c-0.3-3,0.6-4,3.8-3.9c2.8,0.1,3.5,1,3.2,3.5
		c-0.1,0.9,0,1.8,0,2.7c-0.1,2.6,1,3.7,3.6,3.6c2.9-0.1,5.8,0,8.7,0c6.9,0,6.8,1.1,6.6-6.7c-0.1-2.4,0.5-3,2.9-3
		c11.2,0.1,22.5,0,33.7,0.1c2.9,0,6.8-1,8.5,0.5c2,1.7,0.8,5.7,0.9,8.7c0.5,8.7,8.6,16.5,17.3,16.6c5.6,0,11.2,0,16.9,0
		c8.8,0,17-8.3,17.1-17.1C239.4,126.5,239.4,116.9,239.4,107.4z M223.5,131.2c-0.3,3.7-3.3,6.5-7,6.2c-3.7-0.3-6.3-3.4-6.1-7.1
		c0.2-3.5,3.3-6.2,6.8-6C221,124.5,223.8,127.5,223.5,131.2z"/>
</g>
</svg>
