<?xml version="1.0" encoding="utf-8"?>
<!-- Generator: Adobe Illustrator 24.3.0, SVG Export Plug-In . SVG Version: 6.00 Build 0)  -->
<svg version="1.1" id="code_stroke_1_" xmlns="http://www.w3.org/2000/svg" xmlns:xlink="http://www.w3.org/1999/xlink" x="0px"
	 y="0px" viewBox="0 0 256 256" style="enable-background:new 0 0 256 256;" xml:space="preserve">
<style type="text/css">
	.st0{fill:#FFFFFF;}
</style>
<g>
	<path class="st0" d="M88.6,186.3c1.7-9.4,3.4-18.4,5-27.5c0.9-4.9,1.8-9.7,2.7-14.6c0.2-0.9,0-1.2-0.9-1.1c-1.3,0.1-2.6,0.1-3.9,0
		c-2-0.1-3.5-1.4-3.5-3.4c-0.1-3.4-0.1-6.7,0-10.1c0.1-1.9,1.5-3.3,3.4-3.3c6.6,0,13.1,0,19.7,0c2,0,3.5,1.5,3.6,3.5
		c0.1,3.2,0.1,6.4,0,9.6c0,2.1-1.5,3.5-3.7,3.6c-1.3,0.1-2.6,0.1-3.9,0c-1-0.1-1.1,0.3-0.9,1.1c2.4,12.7,4.7,25.5,7.1,38.2
		c0.2,1.2,0.5,2.4,0.7,4c1.8-3.1,3.3-5.9,4.9-8.7c9.3-16.6,18.7-33.1,28-49.8c0.7-1.3,1.5-1.7,2.9-1.6c4.3,0.1,8.7,0,13,0
		c16.5,0.1,30.9,13.1,32.8,29.5c0.2,1.8,0.3,3.5,0.3,5.3c0,29,0,58.1,0,87.1c0,1.3-0.3,1.6-1.6,1.6c-62,0-124,0-185.9,0
		c-1.3,0-1.8-0.3-1.8-1.7c0-29.1,0-58.2,0-87.2c0-16.9,11.2-30.8,27.3-34c3.3-0.7,6.6-0.5,9.9-0.5c3,0,6.1,0.1,9.1,0
		c1.2,0,1.8,0.4,2.4,1.4C66.2,146.9,77,166,87.8,185.1C88,185.4,88.2,185.7,88.6,186.3z"/>
	<path class="st0" d="M156.6,62.1c-0.1,31.2-24.8,56-55.9,55.9c-30.5-0.1-55-25.4-54.9-56.6C46,30.9,71.1,6.1,101.5,6.2
		C132,6.4,156.7,31.4,156.6,62.1z"/>
	<path class="st0" d="M158.1,78.6c4.1-9.1,5.6-18.5,5-28.2c-0.3-4.8-1.1-9.4-2.6-14c-0.3-1-0.1-1.2,0.9-1.2c6.3,0,12.5,0,18.8,0
		c4,0,6.6,2.7,6.7,6.7c0,2.6,0,5.3,0,7.9c0,0.9,0.3,1.2,1.1,1.5c3.9,1.2,7.7,2.7,11.3,4.7c0.7,0.4,1.1,0.4,1.7-0.2
		c1.8-1.9,3.7-3.8,5.5-5.6c2.9-2.8,6.7-2.8,9.5,0c6.2,6.3,12.4,12.5,18.6,18.8c2.8,2.8,2.8,6.7,0,9.5c-1.8,1.9-3.6,3.7-5.5,5.5
		c-0.6,0.6-0.8,1.1-0.3,1.9c2,3.6,3.6,7.4,4.7,11.4c0.2,0.8,0.6,1.1,1.5,1.1c2.6-0.1,5.2,0,7.7,0c4,0,6.6,2.6,6.6,6.6
		c0,8.9,0,17.9,0,26.8c0,4.1-2.6,6.7-6.7,6.7c-2.5,0-5.1,0.1-7.6,0c-1,0-1.3,0.3-1.6,1.2c-1.2,3.9-2.7,7.7-4.7,11.3
		c-0.4,0.8-0.5,1.3,0.3,2c1.9,1.7,3.6,3.5,5.4,5.3c2.9,2.9,2.9,6.7,0.1,9.7c-6.2,6.3-12.4,12.6-18.6,18.9c-2.9,2.9-6.6,2.7-9.6,0
		c-2.9-2.6-4.1-5.4-3.9-9.4c0.4-8.3,0.1-16.5,0.1-24.8c0-3.5-0.4-7-1.4-10.4c-0.3-0.9-0.1-1.6,0.4-2.4c11.5-18.9,6-43.4-12.5-55.6
		c-9.1-6-19.1-7.9-29.9-6C158.9,78.5,158.6,78.5,158.1,78.6z"/>
</g>
</svg>
