<?xml version="1.0" encoding="utf-8"?>
<!-- Generator: Adobe Illustrator 24.3.0, SVG Export Plug-In . SVG Version: 6.00 Build 0)  -->
<svg version="1.1" id="code_stroke_1_" xmlns="http://www.w3.org/2000/svg" xmlns:xlink="http://www.w3.org/1999/xlink" x="0px"
	 y="0px" viewBox="0 0 256 256" style="enable-background:new 0 0 256 256;" xml:space="preserve">
<style type="text/css">
	.st0{fill:#FFFFFF;}
</style>
<g>
	<path class="st0" d="M10.9,115.5c0-19.6-0.2-39.2,0.1-58.8c0.4-27.4,15.1-42.1,42.6-42.3c34-0.2,68.1-0.3,102.1,0
		c27.6,0.2,42.1,15,42.2,42.5c0.1,18.7,0.2,37.3,0,56c-0.3,25.6-14.6,40.6-40.7,41.5c-19.6,0.7-39.2,0.5-58.8,0
		c-8.4-0.2-15.2,2.1-21.8,7.2c-12.9,9.9-26.3,19.2-39.4,28.9c-5.6,4.2-11.5,6.6-18.1,3.1c-6.6-3.4-8.3-9.6-8.3-16.6
		C10.9,156.5,10.9,136,10.9,115.5z"/>
	<path class="st0" d="M209.5,62.1c21.4,2.1,34.7,15,35.1,36.6c0.8,42,0.6,84,0.1,125.9c-0.2,16.6-11.7,21.8-25.7,12.7
		c-1.2-0.8-2.4-1.5-3.4-2.5c-30.3-31.2-67.6-39.4-109.4-34.2c-12.7,1.6-25.1-0.1-35.5-9.2c-5.1-4.5-5.3-7,0.4-11.6
		c11.6-9.3,23.3-15.6,39.2-14.1c15.7,1.5,31.7,0.6,47.6,0.2c31.2-0.8,51.3-21.2,51.6-52.2C209.6,96.7,209.5,79.4,209.5,62.1z"/>
</g>
</svg>
