<?xml version="1.0" encoding="utf-8"?>
<!-- Generator: Adobe Illustrator 24.3.0, SVG Export Plug-In . SVG Version: 6.00 Build 0)  -->
<svg version="1.1" id="Layer_1" xmlns="http://www.w3.org/2000/svg" xmlns:xlink="http://www.w3.org/1999/xlink" x="0px" y="0px"
	 viewBox="0 0 256 256" style="enable-background:new 0 0 256 256;" xml:space="preserve">
<style type="text/css">
	.st0{fill:#0F9CA9;}
	.st1{fill:#F2F2F2;}
</style>
<g>
	<path class="st1" d="M55.1,222c0.8-2.9,1.8-5.5,2.4-8.2c1.1-4.7,2.4-9.5,2.7-14.3c0.2-3.5-0.8-7.2-1.6-10.7
		c-0.5-2.4-1.9-3.1-4.2-2.2c-7.4,2.9-11.2,0.4-15.3-5.6c-11-15.8-18.7-33-21.6-52.1c-2.3-15-1.3-29.7,4.9-43.8
		c3-6.8,7.1-12.7,13.9-16c2.3-1.2,3.4-2.3,3.5-5.1c0.3-6.2,3.7-11,8.2-15c8-7,17.7-10.8,27.9-13c13.2-2.9,26.5-2.3,39.8-0.3
		c13,2,25.5,6,38,9.7c2.3,0.6,4.5,1.2,6.8,1.7c4,0.9,8,1.6,12.1-0.2c1.5,4,1.5,8,0.1,11.7c-1.2,3.1-2.9,6-4.7,8.8
		c-1.1,1.7-1.5,3.3-0.5,5c4.1,7.1,4.7,15.1,5.6,23c0.3,2.3,0,4.8-0.5,7.2c-1.6,7.2-0.6,14,2.5,20.6c1.8,3.8,4,7.4,5.9,11.1
		c1.1,2.1,2.1,4.2,2.9,6.4c1,2.8,0.1,4.8-2.4,6.3c-1.6,0.9-3.2,1.6-4.8,2.4c-3.6,1.8-5.1,4.8-2.8,8.6c2.4,3.9,0.7,6.8-3.8,7.5
		c-2.2,0.4-4.4,0.8-6.5,1.4c-0.6,0.1-1,0.8-1.5,1.2c0.4,0.5,0.8,1.2,1.4,1.6c1.5,0.9,3.1,1.6,4.5,2.5c1.9,1.2,3,2.9,2.5,5.3
		c-0.5,2.2-2.1,3-4.2,3.3c-2.3,0.4-3,1.6-2.4,3.9c0.2,0.6,0.4,1.2,0.7,1.7c2.8,5.8-0.6,11.9-7,12.3c-3,0.2-6-0.5-9-0.8
		c-2-0.2-3.9-0.8-5.9-0.9c-4.7-0.2-6.8,2.2-5.9,6.9c0.8,4.4,2,8.7,3.1,13c0.4,1.7,0.9,3.3,1.4,5.1C112.6,222,84.1,222,55.1,222z"/>
	<path class="st1" d="M181.6,168.4c3.4-0.3,6.9-0.7,10.3-1c13.8-1.3,27.7-2.6,41.5-3.9c1.4-0.1,2.8,0.2,4.1,0.6
		c1.4,0.4,2.1,1.7,2.1,3.2c0,0.7,0,1.4,0,2c0,4.1-1.8,5.7-5.9,5.3c-4.8-0.5-9.6-1-14.4-1.5c-11.5-1.2-23-2.4-34.5-3.6
		c-1.1-0.1-2.2-0.3-3.4-0.5C181.6,168.8,181.6,168.6,181.6,168.4z"/>
	<path class="st1" d="M181.4,172.7c1.6,0.5,3.1,1,4.7,1.5c14.8,5.1,29.7,10.1,44.5,15.2c1.1,0.4,2.2,0.9,3.1,1.6
		c1.7,1.3,1.9,2.7,1.1,4.7c-0.3,0.7-0.7,1.5-1,2.2c-1.2,2.7-3,3.5-5.8,2.4c-1.7-0.7-3.3-1.7-4.9-2.6c-13.3-7.7-26.6-15.5-39.9-23.2
		c-0.7-0.4-1.3-0.8-2-1.3C181.3,173.1,181.3,172.9,181.4,172.7z"/>
	<path class="st1" d="M182,163.6c0.7-0.4,1.4-0.9,2.1-1.3c14.3-7.8,28.5-15.5,42.8-23.3c0.8-0.4,1.5-0.8,2.3-1.1
		c3-1.1,4.8-0.3,6.1,2.6c0.1,0.2,0.2,0.5,0.3,0.7c1.8,4.2,0.9,6.3-3.5,7.6c-10,3.1-19.9,6.2-29.9,9.2c-6.3,1.9-12.5,3.8-18.8,5.7
		c-0.4,0.1-0.8,0.2-1.2,0.3C182.1,163.8,182,163.7,182,163.6z"/>
</g>
</svg>
