<?xml version="1.0" encoding="utf-8"?>
<!-- Generator: Adobe Illustrator 24.3.0, SVG Export Plug-In . SVG Version: 6.00 Build 0)  -->
<svg version="1.1" id="code_stroke_1_" xmlns="http://www.w3.org/2000/svg" xmlns:xlink="http://www.w3.org/1999/xlink" x="0px"
	 y="0px" viewBox="0 0 256 256" style="enable-background:new 0 0 256 256;" xml:space="preserve">
<style type="text/css">
	.st0{fill:#FFFFFF;}
</style>
<g>
	<path class="st0" d="M86.3,244.6c-20.7,0-41.4,0-62.1,0c-12.5,0-19.6-6.9-20.3-19.4c-0.2-4.5-0.1-9-0.1-13.5
		C3.8,195.5,8,189.1,23,183.4c10.1-3.8,20.5-7.2,30.6-11.2c7-2.7,11.8-0.2,15.7,5.3c4.5,6.3,9.2,12.4,13.3,18.9
		c3,4.8,5.1,5.7,8.4,0.3c3.7-6.1,8.2-11.7,12.2-17.6c4.6-6.9,11-9.1,18.7-6.4c11.2,3.9,22.5,8,33.4,12.7
		c9.9,4.3,15.2,11.9,14.5,23.2c-0.4,5.8,0.2,11.7-0.2,17.5c-0.7,11.7-7.7,18.4-19.5,18.5C128.8,244.7,107.5,244.6,86.3,244.6z"/>
	<path class="st0" d="M126.4,108.6c-1.3,14.5-5.5,31.2-19.3,43.9c-11.6,10.7-29,11-40.4,0.2c-16-15.2-21.2-34.7-19.1-55.9
		c1.7-17.4,15.5-27.5,36.3-29.1C109.7,65.8,127.1,81.1,126.4,108.6z"/>
	<path class="st0" d="M251.9,32.5c-0.2-11.8-8.6-20.8-19.8-20.9c-39.1-0.3-78.1-0.3-117.2,0c-11,0.1-19.3,8.8-20.1,19.9
		c-0.3,3.4-0.1,6.9-0.1,10.4c0,12,0,12,12.2,13.5c0.1-1.3,0.4-2.7,0.2-3.9c-1-6.4,1-8.5,8-8.4c39.3,0.4,78.6,0.3,118,0.1
		c5.1,0,6.8,1.2,6.7,6.5c-0.4,15.7-0.1,31.3-0.1,47c0,13.8-1.6,15.9-15.6,15.2c-9.6-0.5-16.6,2.3-22.9,9.5
		c-7.2,8.1-15.4,15.4-24.6,24.5c0-10.3,0-18.2,0-26.1c0-5.3-2.5-7.8-7.8-7.7c-8.2,0.1-16.5,0.6-24.7-0.2c-8.3-0.7-6.6,5.7-7.1,9.5
		c-0.8,6.1,4.5,2.6,6.8,2.9c4.4,0.7,9,0.5,13.5,0.1c5.4-0.5,7.6,1,7.2,6.9c-0.5,8.5-0.1,17-0.1,25.5c0,3.7-0.6,7.8,4,9.4
		c3.9,1.4,6.4-1.2,9-3.7c9.4-9.4,19.3-18.3,28.2-28.1c6.7-7.4,13.9-10.8,24.1-10.2c12.9,0.7,22.2-8.3,22.4-20.8
		C252.3,79.7,252.2,56.1,251.9,32.5z M114.6,34.4c-4.4-0.3-7.1-2.6-7.3-6.9c-0.2-4.4,2.8-7.1,6.9-7.3c4.1-0.1,7.1,2.6,7.3,6.9
		C121.7,31.6,118.7,33.7,114.6,34.4z M143.6,34.3c-4.4-0.4-6.5-3.3-6.1-7.6c0.4-4.3,3.1-6.4,7.2-6.9c4.3,0.8,7,3.3,6.7,7.5
		C151.1,31.7,148.4,34.7,143.6,34.3z M173.9,34.3c-4.5,0.1-7.1-2.7-7.2-6.9c-0.1-4.3,2.8-7.1,7-7.1c4.2-0.1,6.7,2.7,7.2,7.1
		C180.6,31.6,178.3,34.2,173.9,34.3z"/>
</g>
</svg>
