<?xml version="1.0" encoding="utf-8"?>
<!-- Generator: Adobe Illustrator 24.3.0, SVG Export Plug-In . SVG Version: 6.00 Build 0)  -->
<svg version="1.1" id="code_stroke_1_" xmlns="http://www.w3.org/2000/svg" xmlns:xlink="http://www.w3.org/1999/xlink" x="0px"
	 y="0px" viewBox="0 0 256 256" style="enable-background:new 0 0 256 256;" xml:space="preserve">
<style type="text/css">
	.st0{fill:#FFFFFF;}
</style>
<path class="st0" d="M128,239c-62.6,0.5-115.2-51.4-114.1-115.9c1-60.2,48.7-109.9,109.3-112.2c68.3-2.6,120.5,52.8,118.9,116.9
	C240.6,189.5,189.8,239.4,128,239z M159.1,147.9c0-5.7,0.1-11.3,0-17c-0.1-3.2-0.1-6.4-0.6-9.5c-2.5-15.9-18.4-27.5-34.4-25.2
	c-16,2.3-27.3,15.3-27.3,31.4c0,13.9,0,27.7,0,41.6c0,1-0.2,2-0.5,3c-1.5,4.7-1.9,9.5-1.4,14.4c2.1,16.8,16.2,29.2,33.1,29.2
	c22.5,0,38.6-22.2,31.5-43.6c-0.3-0.9-0.5-1.9-0.5-2.8C159.1,162.2,159.1,155,159.1,147.9z M96.4,110.4c-2.3-0.3-4.5-0.8-6.6-0.7
	c-11.8,0.3-21,9.7-21,21.5c0,12.2,0,24.5,0,36.7c0,1.4,0.4,1.8,1.8,1.8c6.6-0.1,13.3,0,19.9,0c2.1,0,2.1,0,2.1-2.1
	c0-13.6-0.1-27.2,0.1-40.8c0-3,0.6-6.1,1.3-9.1C94.3,115.4,95.4,113.2,96.4,110.4z M159.5,110.8c0.2,0.6,0.4,1,0.5,1.3
	c2.4,5.1,3.6,10.4,3.5,16.1c-0.1,13.2,0,26.4-0.1,39.6c0,1.6,0.5,1.9,2,1.9c6.6-0.1,13.2-0.1,19.9,0c1.5,0,2-0.5,2-2
	c-0.1-12.1,0-24.2-0.1-36.2c0-1.5-0.1-2.9-0.4-4.4c-1.9-9.7-9.7-16.6-19.6-17.4C164.6,109.5,162.1,109.8,159.5,110.8z M127.9,51.3
	c-9.8-0.1-19.8,7.6-19.8,19.9c-0.1,11.1,8.9,19.9,20,19.9c10.9,0,19.8-9,19.8-20C147.8,60.2,138.9,51.3,127.9,51.3z M188.1,118
	c0.2,0.4,0.3,0.8,0.4,1.1c2.2,4.2,3.2,8.7,3.1,13.4c-0.1,8.2,0,16.4,0,24.6c0,2.2,0,2.2,2.3,2.2c3.9,0,7.9,0,11.8,0
	c1.2,0,1.6-0.3,1.6-1.5c0-8.5,0-17.1,0-25.6c-0.1-6.6-4.1-12.1-10.2-14.1C194.1,117,191.1,116.8,188.1,118z M68,118
	c-0.7-0.2-1.3-0.4-1.9-0.5c-8.9-1.6-17.2,5.2-17.3,14.4c-0.1,8.6,0,17.3-0.1,26c0,1.2,0.4,1.5,1.6,1.5c4-0.1,8.1-0.1,12.1,0
	c1.6,0,1.9-0.5,1.9-2c-0.1-8.5,0-17.1-0.1-25.6c0-4.4,1-8.4,3-12.2C67.5,119,67.7,118.6,68,118z M90.4,78c-7.5,0-13.6,5.8-13.6,13.2
	c-0.1,7.7,5.8,13.8,13.3,13.8c7.6,0.1,13.7-5.9,13.7-13.4C103.8,84,97.9,78,90.4,78z M165.8,78c-7.6,0-13.6,5.8-13.6,13.3
	c0,7.5,5.9,13.6,13.3,13.7c7.5,0.1,13.6-5.9,13.7-13.3C179.2,84,173.4,78,165.8,78z M63.6,112.5c5.1,0,9.2-4,9.3-9
	c0-5.1-4-9.2-9.1-9.3c-5.1,0-9.2,4-9.2,9.1C54.5,108.5,58.4,112.5,63.6,112.5z M192.4,112.5c5,0,9.2-4.2,9.2-9.2
	c0-5-4.2-9.2-9.2-9.1c-5.1,0-9.1,4-9.1,9.2C183.2,108.6,187.2,112.5,192.4,112.5z"/>
<path class="st0" d="M127.9,206.7c-13.3,0-24.3-10.9-24.2-24.3c0-13.2,11.1-24.3,24.4-24.2c13.3,0,24.2,11,24.2,24.4
	C152.2,195.9,141.4,206.7,127.9,206.7z"/>
</svg>
