<?xml version="1.0" encoding="utf-8"?>
<!-- Generator: Adobe Illustrator 24.3.0, SVG Export Plug-In . SVG Version: 6.00 Build 0)  -->
<svg version="1.1" id="code_stroke_1_" xmlns="http://www.w3.org/2000/svg" xmlns:xlink="http://www.w3.org/1999/xlink" x="0px"
	 y="0px" viewBox="0 0 256 256" style="enable-background:new 0 0 256 256;" xml:space="preserve">
<style type="text/css">
	.st0{fill:#FFFFFF;}
</style>
<g>
	<path class="st0" d="M104.8,209.9c-0.5,0-1-0.1-1.5-0.1c-29.3,0-58.6,0-87.8,0c-1.4,0-2.9-0.1-4.3-0.3c-3.5-0.7-5.5-3-5.9-6.9
		c-0.1-1-0.1-2-0.1-3.1c0-47.9,0-95.7,0-143.6c0-0.3,0-0.6,0-0.9c0.1-5.9,2.9-8.8,8.8-8.8c19.5,0,39,0,58.5,0c34.8,0,69.6,0,104.4,0
		c21.3,0,42.6,0,63.9,0c3.7,0,7.1,0.9,9.1,4.4c0.5,0.8,0.8,1.8,0.8,2.7c0,30.6,0,61.1,0,91.7c0,18.9,0,37.9,0,56.8
		c0,4-2.4,7-6.4,7.8c-1.4,0.3-2.9,0.4-4.4,0.4c-28.8,0-57.5,0-86.3,0c-0.8,0-1.6,0-2.6,0L104.8,209.9z M16.9,191.8
		c0.9,0,1.6,0,2.3,0c72.5,0,145,0,217.5,0c2.7,0,2.4,0.3,2.4-2.4c0-41.4,0-82.7,0-124.1c0-2.6,0.3-2.3-2.3-2.3
		c-72.5,0-145,0-217.5,0c-2.6,0-2.4-0.4-2.4,2.3c0,41.5,0,83,0,124.6C16.9,190.4,16.9,191,16.9,191.8z"/>
	<path class="st0" d="M179.3,89.2c0,0.7,0,1.4,0,2c0,11.3,0,22.5,0,33.8c0,2.3,0.6,4.3,1.9,6.2c6.2,9.5,12.3,19.1,18.5,28.6
		c0.2,0.4,0.5,0.8,0.7,1.2c-6.6,7.1-26.7,7-38.6-0.2c-15.5-9.2-22.6-28.2-17-45.3C150.9,97.3,167.9,88.7,179.3,89.2z"/>
	<path class="st0" d="M206.7,161.3c-6.8-10.5-13.5-20.8-20.2-31.3c10.4-7.8,20.8-15.6,31.3-23.4c5.4,8.5,7,17.7,5.5,27.4
		C221.6,145.3,216.2,154.4,206.7,161.3z"/>
	<path class="st0" d="M112.1,94.8c-0.4,0.5-0.7,1.1-1.1,1.6c-6.7,7.6-13.5,15.3-20.2,22.9c-0.3,0.3-0.6,0.7-0.9,1
		c-2.3,2.6-3.2,2.7-5.9,0.5c-6.4-5.1-12.7-10.2-19.1-15.2c-0.4-0.3-0.8-0.6-1.4-1c-2.2,2-4.4,4-6.5,6.1
		c-6.5,6.1-12.9,12.1-19.3,18.2c-0.2,0.2-0.4,0.4-0.6,0.5c-1.6,1.4-3,1.5-3.9,0.4c-0.9-1.1-0.6-3.6,0.5-4.7
		c8.9-8.3,17.8-16.7,26.7-25c0.2-0.2,0.4-0.4,0.7-0.6c1.9-1.6,2.6-1.7,4.6-0.2c3.8,3,7.5,6,11.3,9c2.8,2.2,5.5,4.4,8.3,6.6
		c0.4,0.3,0.9,0.7,1.5,1.1c7.5-8.5,14.9-16.9,22.6-25.7c-0.9-0.1-1.4-0.1-2-0.1c-2.5,0-4.9,0.1-7.4,0c-2,0-2.9-0.8-3.2-2.3
		c-0.2-1.4,0.3-2.3,1.6-2.7c0.8-0.2,1.7-0.3,2.6-0.3c4.4,0,8.7,0,13.1,0c3.4,0,4.1,0.7,4.1,4c0,4.6,0,9.2,0,13.8
		c0,0.4,0,0.8-0.1,1.2c-0.3,1.5-1.2,2.3-2.6,2.3c-1.5,0-2.5-0.8-2.6-2.4c-0.1-2.3-0.1-4.7-0.1-7.1c0-0.5,0-1.1,0-1.6
		C112.5,95,112.3,94.9,112.1,94.8z"/>
	<path class="st0" d="M101.9,142.1c0-6.7,0-13.3,0-20c0-3.5,0.7-4.2,4.1-4.2c2.7,0,5.4,0,8.1,0c3,0,3.8,0.8,3.8,3.9
		c0,7.4,0,14.8,0,22.3c0,6.1,0,12.2,0,18.3c0,3.1-0.8,3.9-3.9,3.9c-2.7,0-5.3,0-8,0c-3.5,0-4.2-0.7-4.2-4.1
		C101.9,155.5,101.9,148.8,101.9,142.1z"/>
	<path class="st0" d="M215,102.2c-10.1,7.5-20,15-30.2,22.6c0-0.8-0.1-1.3-0.1-1.8c0-11.7,0-23.4,0-35.2c0-1.9,0-2,2-1.9
		c6,0.3,11.4,2.7,16.5,5.6c3.6,2.1,7,4.7,9.7,7.9C213.7,100.3,214.3,101.2,215,102.2z"/>
	<path class="st0" d="M71.4,146.3c0,5.4,0,10.7,0,16.1c0,3.2-0.7,3.9-3.8,3.9c-3,0-5.9,0-8.9,0c-2.5,0-3.3-0.9-3.3-3.4
		c0-11.1,0-22.2,0-33.3c0-2.7,0.8-3.5,3.5-3.5c3.1-0.1,6.1-0.1,9.2,0c2.5,0,3.3,0.9,3.3,3.3C71.4,135,71.4,140.7,71.4,146.3
		C71.4,146.3,71.4,146.3,71.4,146.3z"/>
	<path class="st0" d="M94.8,150.1c0,4.2,0,8.4,0,12.6c0,2.7-0.9,3.6-3.6,3.6c-3,0-6,0-9.1,0c-2.6,0-3.4-0.9-3.4-3.4
		c0-8.4,0-16.9,0-25.3c0-2.5,0.7-3.2,3.2-3.3c3.3-0.1,6.7-0.1,10,0c2.1,0.1,2.9,0.9,2.9,3C94.8,141.5,94.7,145.8,94.8,150.1
		C94.8,150.1,94.8,150.1,94.8,150.1z"/>
	<path class="st0" d="M32.1,154.1c0-2.8,0-5.5,0-8.3c0-2.7,0.9-3.6,3.6-3.6c3.1,0,6.1,0,9.2,0c2.3,0,3.3,0.9,3.4,3.2
		c0.1,5.9,0.1,11.9,0,17.8c0,2.2-1,3-3.2,3.1c-3.2,0-6.3,0-9.5,0c-2.5,0-3.4-0.9-3.4-3.3C32.1,160,32.1,157.1,32.1,154.1
		C32.1,154.1,32.1,154.1,32.1,154.1z"/>
</g>
</svg>
