<?xml version="1.0" encoding="utf-8"?>
<!-- Generator: Adobe Illustrator 24.3.0, SVG Export Plug-In . SVG Version: 6.00 Build 0)  -->
<svg version="1.1" id="code_stroke_1_" xmlns="http://www.w3.org/2000/svg" xmlns:xlink="http://www.w3.org/1999/xlink" x="0px"
	 y="0px" viewBox="0 0 256 256" style="enable-background:new 0 0 256 256;" xml:space="preserve">
<style type="text/css">
	.st0{fill:#FFFFFF;}
</style>
<g>
	<path class="st0" d="M145.6,245.8c0-0.9,0-1.9,0-3c0-7.8,0.2-15.6-0.2-23.4c-0.4-8.4-7.5-15.3-15.6-15.9c-9-0.7-16.7,4.8-18.8,13.3
		c-0.4,1.6-0.4,3.3-0.4,5c-0.1,7.8-0.1,15.6-0.1,23.4c0,0.2-0.1,0.4-0.3,1.1c-1.8,0-3.7,0-5.6,0c-4.2,0-8.5,0.1-12.7,0
		c-4.6-0.1-7.9-3.5-8.2-8.1c-0.1-1,0-2,0-3c0-71.2,0-142.5,0-213.7c0-0.9,0-1.8,0-2.7c0.1-5.8,3.4-9.2,9.3-9.2
		c8.3-0.1,16.6,0,24.9,0c14.9,0,29.8,0,44.7,0c7,0,10.1,3.2,10.1,10.1c0,46.2-0.1,92.4-0.1,138.5c0,25.9,0,51.9,0.1,77.8
		c0,7-3.1,10.1-10.1,10.1c-5.3,0-10.7,0-16-0.1C146.3,246.2,146.1,246.1,145.6,245.8z M147,150.9C147,150.9,147,150.9,147,150.9
		c2.3,0.1,4.5,0.1,6.8,0c2.7-0.1,4.6-2,4.7-4.7c0-3.4,0-6.9-0.1-10.3c-0.1-3.3-1.6-4.9-4.9-5c-4.5-0.1-9.1-0.1-13.6,0
		c-3.6,0.1-5.1,1.7-5.2,5.4c-0.1,3.1-0.1,6.3,0,9.5c0.1,3.2,1.7,4.9,4.9,5.1C142.1,151,144.6,150.9,147,150.9z M109.5,85.2
		c2.4,0,4.7,0.1,7.1,0c3-0.1,4.7-1.9,4.9-4.9c0.1-3.3,0.1-6.7,0-10.1c-0.1-3-1.8-4.9-4.8-5c-4.7-0.1-9.5-0.1-14.2,0
		c-3.3,0.1-4.7,1.8-4.8,5.1c-0.1,3.3-0.1,6.5,0,9.8c0.1,3.2,1.7,4.8,5,5C105,85.2,107.2,85.2,109.5,85.2z M109.6,150.9
		c1.2,0,2.4,0,3.6,0c1.2,0,2.4,0.1,3.5,0c2.8-0.2,4.6-1.9,4.7-4.7c0.1-3.4,0.1-6.9,0-10.4c-0.1-2.9-1.7-4.7-4.6-4.8
		c-4.8-0.2-9.7-0.2-14.5,0c-3.1,0.1-4.6,1.9-4.7,5c-0.1,3.4-0.1,6.7,0,10.1c0.1,3,1.8,4.7,4.8,4.8
		C104.9,151,107.2,150.9,109.6,150.9z M146.6,85.2C146.6,85.2,146.6,85.2,146.6,85.2c2.3,0,4.5,0,6.8-0.1c3.3-0.1,4.9-1.7,5-5
		c0.1-3.3,0.1-6.7,0-10.1c-0.1-3-1.5-4.7-4.5-4.8c-4.8-0.2-9.7-0.2-14.5,0c-3.2,0.1-4.7,1.9-4.8,5.2c-0.1,3.2-0.1,6.3,0,9.5
		c0.1,3.4,1.8,5.1,5.2,5.2C142.1,85.3,144.4,85.2,146.6,85.2z M146.7,163.9c-2.4,0-4.7-0.1-7.1,0c-3,0.1-4.7,1.6-4.8,4.5
		c-0.2,3.6-0.2,7.3,0,10.9c0.2,2.7,1.9,4.3,4.7,4.4c4.8,0.1,9.7,0.1,14.5,0c2.8-0.1,4.4-1.8,4.5-4.5c0.1-3.4,0.2-6.9,0.1-10.3
		c-0.1-3.2-1.8-4.8-5.1-4.9C151.2,163.8,148.9,163.9,146.7,163.9z M109.5,163.9c-2.4,0-4.7-0.1-7.1,0c-3.1,0.1-4.7,1.7-4.8,4.8
		c-0.1,3.3-0.1,6.7,0,10c0.1,3.2,1.7,4.9,4.9,5c4.6,0.1,9.2,0.1,13.9,0c3.1-0.1,4.8-1.7,4.9-4.7c0.1-3.4,0.1-6.9,0-10.3
		c-0.1-3.1-2-4.7-5.2-4.8C114.1,163.8,111.8,163.8,109.5,163.9z M109.5,52.2c2.4,0,4.7,0.1,7.1,0c3-0.1,4.8-1.7,4.9-4.8
		c0.1-3.4,0.1-6.9,0-10.3c-0.1-2.9-1.9-4.6-4.7-4.6c-4.7-0.1-9.5-0.1-14.2,0c-3,0.1-4.8,1.8-4.8,4.8c-0.1,3.3-0.1,6.7,0,10.1
		c0.1,3.2,1.7,4.8,5,4.9C104.9,52.3,107.2,52.2,109.5,52.2z M146.4,52.2C146.4,52.2,146.4,52.2,146.4,52.2c2.5,0,4.9,0.1,7.4,0
		c3-0.1,4.6-1.7,4.6-4.6c0.1-3.4,0.1-6.9,0-10.3c-0.1-3.1-1.7-4.7-4.8-4.8c-4.6-0.1-9.3-0.1-13.9,0c-3.1,0-4.9,1.6-5,4.7
		c-0.2,3.5-0.2,7.1,0,10.6c0.1,2.9,1.9,4.4,4.8,4.5C141.8,52.3,144.1,52.2,146.4,52.2z M109.5,117.9c2.4,0,4.7,0.1,7.1,0
		c3-0.1,4.7-1.8,4.8-4.8c0.1-3.3,0.1-6.7,0-10.1c-0.1-3.1-1.8-4.8-4.8-4.9c-4.7-0.1-9.5-0.1-14.2,0c-3.1,0.1-4.7,1.7-4.8,4.8
		c-0.1,3.4-0.1,6.7,0,10.1c0.1,3.1,1.7,4.7,4.8,4.9C104.8,118,107.2,118,109.5,117.9z M146.3,118C146.3,118,146.3,118,146.3,118
		c1.2,0,2.4,0,3.5,0c1.2,0,2.4,0,3.5,0c3.3-0.1,5-1.7,5-4.9c0.1-3.2,0.1-6.5,0-9.8c-0.1-3.5-1.6-5.1-5.1-5.1
		c-4.5-0.1-9.1-0.1-13.6,0c-3.1,0-4.9,1.5-5,4.6c-0.2,3.5-0.2,7.1,0,10.6c0.1,2.8,2,4.5,4.8,4.6C141.8,118,144,118,146.3,118z"/>
	<path class="st0" d="M74,151c0,29.3,0,58.6,0,87.9c0,4.9-2.4,7.4-7.5,7.4c-15.1,0-30.2,0-45.3,0c-6.3,0-9.6-3.4-9.6-9.8
		c0-22.9,0-45.8,0-68.7c0-33.1,0-66.1,0-99.2c0-1.5,0-3,0.2-4.4c0.6-4.4,3.8-7.4,8.2-7.4c16.3-0.1,32.6-0.1,48.8,0
		c3.4,0,5,1.9,5,5.6c0,9.8,0,19.5,0,29.3C73.9,111.5,73.9,131.2,74,151C73.9,151,74,151,74,151z M42.7,177.6
		C42.7,177.6,42.7,177.6,42.7,177.6c2.1,0,4.1,0,6.2,0c0.2,0,0.4,0,0.6,0c3.3-0.2,5.2-1.9,5.2-5.2c0.1-3.3,0-6.5-0.1-9.8
		c-0.2-3.5-1.5-4.9-5-4.9c-4.7-0.1-9.5-0.1-14.2,0c-2.9,0.1-4.5,1.8-4.6,4.7c-0.1,3.4-0.1,6.7,0,10.1c0.1,3.2,1.9,4.9,5,5
		C38.2,177.7,40.5,177.6,42.7,177.6z M42.9,98.3c2.3,0,4.5,0.1,6.8,0c3.2-0.1,4.9-1.8,5-5c0.1-3.4,0.1-6.7,0-10.1
		c-0.1-3.1-1.7-4.7-4.8-4.8c-4.6-0.1-9.3-0.1-13.9,0c-3.2,0-4.9,1.7-5,4.9c-0.1,3.3-0.1,6.7,0,10.1c0.1,3,1.9,4.7,4.9,4.8
		C38.2,98.4,40.5,98.3,42.9,98.3z M42.9,118.2C42.9,118.2,42.9,118.2,42.9,118.2c-1.2,0-2.4,0-3.5,0c-1.2,0-2.4,0-3.5,0
		c-3.1,0.1-4.8,1.7-4.9,4.7c-0.1,3.4-0.1,6.9,0,10.3c0.1,2.9,1.8,4.6,4.7,4.7c4.8,0.1,9.7,0.1,14.5,0c2.8-0.1,4.5-1.8,4.6-4.4
		c0.1-3.6,0.1-7.3,0-10.9c-0.1-2.6-1.7-4.2-4.3-4.3C47.9,118.1,45.4,118.2,42.9,118.2z"/>
	<path class="st0" d="M182.1,150.7c0-29,0-58,0-87c0-5.5,1.3-6.8,6.8-6.8c15.2,0,30.4,0,45.6,0c6.7,0,9.9,3.3,9.9,10.1
		c0,56.4,0,112.9,0,169.3c0,6.9-3.2,10.1-10.2,10.1c-14.9,0-29.8,0-44.7,0c-5.1,0-7.5-2.5-7.5-7.4
		C182.1,209.5,182,180.1,182.1,150.7C182.1,150.7,182.1,150.7,182.1,150.7z M213.2,177.6c2.2,0,4.3,0,6.5,0c0.2,0,0.4,0,0.6,0
		c2.9-0.2,4.7-1.8,4.8-4.6c0.1-3.5,0.2-7.1,0-10.7c-0.1-2.7-1.7-4.5-4.5-4.6c-4.9-0.1-9.9-0.1-14.8,0c-2.9,0.1-4.5,1.9-4.5,4.8
		c-0.1,3.3,0,6.5,0.1,9.8c0.1,3.6,1.7,5.2,5.3,5.3C208.8,177.7,211,177.6,213.2,177.6z M213.4,78.5c-1.2,0-2.4,0-3.6,0
		c-1.3,0-2.6,0-3.8,0c-2.9,0.1-4.6,1.7-4.7,4.6c-0.1,3.5-0.1,6.9,0,10.4c0.1,3,1.8,4.8,4.8,4.8c4.7,0.1,9.5,0.1,14.2,0
		c2.9-0.1,4.6-1.8,4.7-4.7c0.1-3.4,0.1-6.9,0-10.4c-0.1-3.1-1.8-4.7-4.9-4.8C218,78.5,215.7,78.5,213.4,78.5z M213.3,118.2
		c-2.4,0-4.7-0.1-7.1,0c-3.1,0.1-4.7,1.7-4.8,4.8c-0.1,3.4-0.1,6.9,0,10.3c0.1,2.8,1.8,4.6,4.7,4.6c4.7,0.1,9.5,0.1,14.2,0
		c3-0.1,4.8-1.8,4.9-4.8c0.1-3.4,0.1-6.9,0-10.3c-0.1-2.8-1.9-4.5-4.7-4.6C218,118.1,215.6,118.2,213.3,118.2z"/>
</g>
</svg>
