<?xml version="1.0" encoding="utf-8"?>
<!-- Generator: Adobe Illustrator 24.3.0, SVG Export Plug-In . SVG Version: 6.00 Build 0)  -->
<svg version="1.1" id="code_stroke_1_" xmlns="http://www.w3.org/2000/svg" xmlns:xlink="http://www.w3.org/1999/xlink" x="0px"
	 y="0px" viewBox="0 0 256 256" style="enable-background:new 0 0 256 256;" xml:space="preserve">
<style type="text/css">
	.st0{fill:#FFFFFF;}
</style>
<g>
	<path class="st0" d="M211.5,128c7.5,4.4,14.4,8.4,21.4,12.4c7.9,4.6,9.6,10.6,5.2,18.4c-9.5,16.6-19.2,33-28.6,49.7
		c-3.6,6.5-10.8,8.2-17.4,4.6c-7.3-3.9-14.4-8.2-21.6-12.4c-1.4,0.8-0.7,2.1-0.7,3c-0.1,7.8,0.1,15.5-0.1,23.3
		c-0.1,6.7-4.8,11.6-11.6,11.6c-20,0.1-39.9,0.1-59.9,0c-7,0-11.7-4.9-11.8-11.8c-0.1-8.6,0-17.2,0-26.5
		c-7.1,4.1-13.8,7.9-20.4,11.8c-2.9,1.7-5.8,2.7-9.3,2.7c-4.4,0-7.3-1.8-9.2-5.1c-10.2-17.4-20.3-34.9-30.3-52.5
		c-3.4-6-1.3-12.3,4.9-16c7.3-4.3,14.6-8.5,21.9-12.7c-0.2-1.5-1.5-1.6-2.4-2.1c-6.6-3.9-13.2-7.6-19.7-11.5c-6.1-3.7-8-10-4.5-16.1
		c9.9-17.5,20.1-34.8,30-52.2c3.3-5.7,11-6.6,16-3.9c7.5,4.1,14.9,8.5,22.3,12.8c1.3-0.9,0.7-2.1,0.7-3.1c0.1-7.8-0.1-15.5,0.1-23.3
		c0.1-6.5,4.8-11.5,11.2-11.5c20.2-0.1,40.5-0.1,60.7,0c6.5,0,11.2,5,11.3,11.5c0.1,8.7,0,17.4,0,26.8c6.8-3.9,13.2-7.3,19.3-11.2
		c10.4-6.5,17.3-3.2,22.1,5.7c8.4,15.7,17.7,31,26.6,46.5c4.8,8.4,3.2,14.1-5.2,19C225.8,119.7,219,123.7,211.5,128z M58,128
		c-10.8,6.3-21.1,12.2-31.3,18.2c-5,2.9-5.4,4.6-2.5,9.7c8.6,15,17.3,30,26,45c5.4,9.4,5.5,9.4,14.8,4c9.2-5.3,18.4-10.6,28.2-16.2
		c0,12.5,0,24.4,0,36.3c0,5.6,1.5,7.1,7.1,7.1c17.3,0,34.7,0,52,0c10.8,0,10.8,0,10.8-10.9c0-10.6,0-21.2,0-32.4
		c10.9,6.3,21.2,12.2,31.5,18.1c5,2.9,6.7,2.4,9.6-2.7c8.5-14.6,16.9-29.3,25.4-43.9c5.6-9.6,7.2-10.1-4.4-16.5
		c-8.9-4.9-17.6-10.2-27-15.6c10.7-6.2,20.9-12.1,31-17.9c5.4-3.1,5.9-4.8,2.7-10.3C223.2,84.9,214.6,70,206,55.2
		c-5.4-9.4-5.5-9.4-14.8-4c-9.2,5.3-18.4,10.6-28.2,16.2c0-12.5,0-24.4,0-36.2c0-5.6-1.5-7.1-7.1-7.1c-17.3,0-34.7,0-52,0
		c-10.8,0-10.8,0-10.8,10.9c0,10.6,0,21.2,0,32.4c-10.9-6.3-21.2-12.2-31.5-18.1c-5.1-2.9-6.7-2.4-9.6,2.7
		c-8.5,14.7-17,29.5-25.5,44.3c-5.8,10.1-5.8,10.1,4.3,15.9C39.6,117.3,48.6,122.5,58,128z"/>
	<path class="st0" d="M96.7,182.2c-12.3,7.1-24.1,13.7-35.7,20.7c-3.3,2-4.7,1.6-6.6-1.8c-8.6-15.3-17.4-30.6-26.4-45.7
		c-2.2-3.7-1.6-5.2,2-7.1c10.6-5.8,20.9-11.9,31.3-18c1.2-0.7,2.3-1.4,4-2.4c-9.9-5.7-19.3-11.2-28.7-16.6c-2.9-1.7-5.7-3.4-8.7-5
		c-2-1-2-2.1-1-4C36.5,86.2,46,69.9,55.3,53.5c1.3-2.4,2.5-2.3,4.6-1.1c10.6,6.2,21.3,12.4,32,18.5c1.4,0.8,2.9,1.6,4.9,2.8
		c0-3.2,0-5.9,0-8.6c0-11.1,0.1-22.2-0.1-33.3c0-3,0.6-4.1,3.9-4.1c18.3,0.2,36.6,0.1,54.9,0c3.1,0,4,0.9,4,4
		c-0.2,13.7-0.1,27.4-0.1,41.2c1.6,0.7,2.4-0.6,3.4-1.1c11.1-6.3,22.1-12.6,33.1-19.1c2.7-1.6,3.9-1.2,5.4,1.4
		c9,15.9,18.2,31.7,27.4,47.5c1.6,2.7,1.1,3.9-1.6,5.4c-10.9,6.1-21.6,12.4-32.4,18.6c-1.2,0.7-2.3,1.4-3.9,2.4
		c9.9,5.7,19.3,11.2,28.7,16.6c2.9,1.7,5.7,3.4,8.6,5c2,1,2.1,2.1,1,3.9c-9.5,16.3-18.9,32.6-28.2,48.9c-1.6,2.8-2.9,2-4.9,0.8
		c-11.9-7-23.9-13.8-36.6-21.1c0,3.3,0,6,0,8.7c0,11.1-0.1,22.2,0.1,33.3c0,3-0.6,4.1-3.9,4.1c-18.3-0.2-36.6-0.1-54.9,0
		c-3.1,0-4-0.9-4-4C96.8,210.5,96.7,196.8,96.7,182.2z M121.3,106.1c-1.8-3.3,0.8-6.6-2.3-8.9c-5.5-4.2-6.7-8.6-4-14
		c3-6,8.6-8.2,14.9-7.3c5.9,0.8,11.5,2.8,17.4,3.2c3.7,0.3,4.5-0.9,3-4.4c-1.9-4.1-5-6.8-9.3-8.3c-11.5-4-26.2,1.7-33.3,12.7
		c-4.3,6.8-3.4,14.4,2.4,20.1C113.1,102.2,116.8,103.9,121.3,106.1z M122.4,128.9c0.6,0.2,1.2,0.4,1.7,0.7c2.1-2.5,7-1.9,7.1-6.3
		c0.5-14.4,0.7-28.8,0.9-43.1c0-0.8,0.2-1.7-0.8-2.1c-3-1.2-6-0.8-8.9,0.4c-2.7,1.2-0.1,3-0.2,4.5c-0.1,1,0,1.9,0,2.9
		C122.4,100.2,122.4,114.6,122.4,128.9z M133.5,105.7c-0.4,3.8-0.9,7.2,3,9.8c2.9,2,2.6,5,0.2,7.5c-1.5,1.6-3.3,3-5.1,4.2
		c-4.5,2.9-9.4,5.4-13.8,8.5c-8,5.7-7.2,12.6,1.8,16.5c0.9,0.4,2.4,2,3.1,0.2c0.5-1.2,0.6-3.1-0.8-4.2c-0.8-0.7-1.9-1.1-2.8-1.7
		c-2.1-1.4-2.3-3.1-0.4-4.7c1.3-1.2,2.8-2.2,4.4-3.1c5-3,10.3-5.3,15-8.8c8.7-6.6,8.8-14.5,0.2-21.2
		C136.9,107.4,135.6,106.1,133.5,105.7z M123.7,170.1c0.5,0.1,0.9,0.2,1.4,0.3c1.7-1.8,5.2-1.8,5.3-5.1c0.3-8.8,0.4-17.7,0.5-26.5
		c0-0.8,0-2.2-0.9-1.8c-2.3,1.2-6.1,1.3-6.2,4.6C123.5,151.1,123.7,160.6,123.7,170.1z M122.9,192c0.1-3.1,0.1-3.1-0.8-4.3
		c-3.8-4.6-3.7-6,1.2-9.4c4.3-3,9-5.5,13.1-8.7c7-5.4,6.2-11.9-1.6-15.9c-0.8-0.4-2-1.8-2.8-0.4c-0.7,1.2-1.1,2.9,0.5,4.1
		c0.7,0.5,1.4,0.9,2.1,1.3c2.9,1.9,3,4.1,0.8,6.5c-2.5,2.7-5.6,4.5-8.6,6.5c-3.1,2.1-6.4,3.9-8.8,6.9c-2.8,3.3-2.7,6.4,0.1,9.7
		C119.4,189.7,120.9,191.1,122.9,192z M133,57.6c0-1.2,0-2.5,0-3.7c0-1.9-0.9-2.7-2.9-2.5c-5.5,0.4-10.2,7.7-8.1,12.7
		c0.1,0.4,0.5,0.9,0.7,0.9c3.1-0.6,6.4-0.8,9.3-2.1C133.9,62.1,132.4,59.4,133,57.6z M129.9,176.5c-2.3,1.3-5.2,1.6-5.3,4.4
		c-0.4,7.3,0.6,14.6,1.3,21.9c0.1,0.8,0.3,1.7,1.4,1.7c1.1,0,1.4-0.9,1.4-1.7C129.6,194.3,130.3,185.6,129.9,176.5z M139.5,197
		c-2.8-1.3-5.6-2.6-8.6-4C130.8,196.5,133.5,197.9,139.5,197z"/>
	<path class="st0" d="M143.4,73.3c-1.4-0.2-2.7-0.8-2.9-2.4c-0.1-1,0.7-1.3,1.6-1.3c1.3,0.1,2.3,0.7,2.6,2.1
		C144.9,72.8,144.3,73.2,143.4,73.3z"/>
</g>
</svg>
