<?xml version="1.0" encoding="utf-8"?>
<!-- Generator: Adobe Illustrator 24.3.0, SVG Export Plug-In . SVG Version: 6.00 Build 0)  -->
<svg version="1.1" id="code_stroke_1_" xmlns="http://www.w3.org/2000/svg" xmlns:xlink="http://www.w3.org/1999/xlink" x="0px"
	 y="0px" viewBox="0 0 256 256" style="enable-background:new 0 0 256 256;" xml:space="preserve">
<style type="text/css">
	.st0{fill:#FFFFFF;}
</style>
<g>
	<path class="st0" d="M37.5,142c-0.6,15.8,2.9,30.8,10.2,44.8c16.5,31.7,52.1,51.6,87.8,48c34.1-3.4,59.1-20.9,74.6-51.6
		c0.4-0.8,0.8-1.7,1.2-2.5c2-3.6,5.3-4.8,8.7-3.2c3.3,1.5,4.5,5,3,8.7c-4.5,10.6-10.9,19.9-18.6,28.4
		c-18.1,20.1-40.9,30.5-67.7,33.2c-49.6,4.9-98.6-29.1-110-80.9c-1.8-8.3-2-16.8-2.9-25.8c-2.9,2.8-5.4,5.4-8.1,8
		c-1.9,1.8-4.1,2.4-6.6,1.5c-2.5-0.9-3.8-2.8-4.3-5.3c-0.4-2.1,0.4-3.9,1.9-5.4c6.5-6.5,13-13,19.5-19.4c2.8-2.7,6.1-2.8,8.9-0.1
		c6.7,6.5,13.2,13,19.7,19.7c2.6,2.7,2.4,6.4-0.1,9c-2.4,2.5-6,2.8-8.7,0.3c-2.6-2.5-4.9-5.3-7.3-8C38.3,141.5,37.9,141.8,37.5,142z
		"/>
	<path class="st0" d="M124,93c0.8-4.1,1.5-7.7,2-11.2c0.4-2.4-0.4-4.5-1.8-6.4c-0.9-1.3-1.9-2.5-2.9-3.7c-1.3-1.6-0.9-2.8,1.2-2.9
		c3.6-0.1,7.3-0.1,10.9,0c1.8,0.1,2.4,1.1,1.2,2.7c-0.6,0.8-1.1,1.5-1.7,2.2c-2.8,3-3.7,6.4-2.7,10.4c0.7,2.7,1,5.5,1.5,8.3
		c1-0.1,1.1-0.9,1.4-1.5c3.3-5.7,7.2-11,11.4-16c0.8-1,1.6-1.9,2.3-3c2.8-4.3,2.8-4.4,7.8-2.8c10.3,3.2,14.8,8.9,15.1,19.6
		c0.2,6.9,0.4,13.8-1.1,20.5c-0.3,1.2-0.8,2.4-1.1,3.6c-1.2,4.4-4.2,6.6-8.7,7.2c-20.3,2.6-40.5,2.5-60.8,0.2
		c-6.5-0.7-9.4-4.3-10.6-9.9c-2-8.9-2.1-18-0.7-27c0.9-5.6,4.3-9.6,9.4-12.1c2-1,4.1-1.6,6.1-2.4c2.9-1.1,5.3-1.4,6.4,2.5
		c0.5,1.6,2,2.9,3.1,4.2C116.4,80.8,120.3,86.5,124,93z"/>
	<path class="st0" d="M99.7,36.1c0.1-15.9,12.6-28.4,28.4-28.3c15.7,0,28.2,12.7,28.1,28.7c-0.1,15.8-12.5,28.2-28.3,28.1
		C112.1,64.6,99.7,52,99.7,36.1z"/>
	<path class="st0" d="M218.2,139.8c1.1-6.9-0.1-13.6-1.5-20.3c-6.4-30.8-23.8-52.7-52.8-65.2c-2.1-0.9-2.2-1.7-1.4-3.6
		c1-2.2,2-4.5,2.1-6.8c0.3-3.7,1.8-3,4.1-2c21.4,9.4,38,24.2,49.6,44.6c8.1,14.2,12.3,29.5,12.9,45.9c0.1,2,0.3,4,0.5,5.9
		c0.1,0.7-0.3,1.6,0.6,1.9c0.9,0.3,1.2-0.6,1.7-1.1c1.9-2,3.6-4,5.6-5.9c3.1-2.9,6.9-3.1,9.5-0.6c2.9,2.8,2.8,6.5-0.4,9.7
		c-6.1,6.2-12.2,12.3-18.4,18.4c-3.6,3.5-6.8,3.6-10.3,0.1c-6.1-6-12.1-12.1-18.2-18.2c-3.4-3.4-3.6-7.1-0.7-9.9
		c2.7-2.7,6.4-2.5,9.7,0.6c2.3,2.1,4.5,4.3,6.8,6.5C217.8,139.9,217.9,139.9,218.2,139.8z"/>
	<path class="st0" d="M172,194.8c-5.3-0.2-10.5-0.3-15.7-0.9c-3-0.4-4.9-1.7-5.6-4.5c-1.4-5.2-1.5-10.6-0.4-15.8
		c1.3-6.2,8.9-9.2,14.5-6.2c4.7,2.4,9.6,2.6,14.4,0.1c6.2-3.2,14,0.3,15,7.2c0.7,4.6,0.6,9.3-0.5,14c-0.7,3.2-2.5,4.9-5.9,5.3
		C182.5,194.5,177.2,194.5,172,194.8z"/>
	<path class="st0" d="M84,194.9c-5.2,0-10.4-0.3-15.6-1c-4.7-0.7-6.5-2.7-6.8-7.6c-0.3-3.7-0.4-7.5-0.1-11.2
		c0.5-5.2,7-10.3,12.1-9.4c0.8,0.1,1.4,0.7,2.2,1.1c5.3,3,10.7,3,16,0c2.9-1.6,9.5-0.3,11.3,2.3c0.4,0.6,0.3,1.1,0.1,1.7
		c-2.1,6.8-1.8,13.5,0.2,20.2c0.8,2.7-1.3,2.5-2.6,2.7C95.3,194.6,89.7,194.9,84,194.9z"/>
	<path class="st0" d="M128,194.8c-5.3-0.4-10.6-0.2-15.9-1c-2.9-0.4-4.8-1.6-5.5-4.6c-1.3-5.2-1.6-10.5-0.4-15.8
		c1.4-5.9,9.1-9.1,14.4-6.3c5.2,2.8,10.4,2.6,15.5-0.3c2.7-1.6,9.4-0.3,11.1,2.1c0.5,0.7,0.2,1.3,0,2c-1.7,6.5-1.8,13,0.2,19.4
		c0.8,2.6-0.6,2.8-2.2,3.2C139.4,194.7,133.7,194.5,128,194.8z"/>
	<path class="st0" d="M40,104.9c-5.7,0-8.8-4-7.3-8.3c1.5-4.5,3.7-8.6,6.2-12.6C50.7,65,66.6,50.6,87.3,41.7c2.2-0.9,3.7-1.6,4,1.9
		c0.2,2.4,1.2,4.8,2.2,7.1c0.8,1.8,0.3,2.4-1.4,3.1c-21.3,9.4-36.9,24.6-46.7,45.7C44,102.4,42.4,104.8,40,104.9z"/>
	<path class="st0" d="M128,165.1c-8.7,0-15.1-6.5-15.1-15.2c0-8.4,6.7-15,15.1-15c8.7,0,15.1,6.6,15.1,15.3
		C143,158.7,136.6,165.1,128,165.1z"/>
	<path class="st0" d="M83.9,165.1c-8.4,0.1-15.1-6.6-15.2-15c-0.1-8.4,6.5-15.2,14.9-15.3c8.6-0.1,15.4,6.5,15.5,15
		C99.2,158.3,92.5,165.1,83.9,165.1z"/>
	<path class="st0" d="M171.8,165.1c-8.3-0.1-15-6.9-14.9-15.2c0.1-8.5,6.8-15.1,15.4-15c8.3,0.1,15.1,6.9,14.9,15.2
		C187.1,158.7,180.5,165.2,171.8,165.1z"/>
</g>
</svg>
