<?xml version="1.0" encoding="utf-8"?>
<!-- Generator: Adobe Illustrator 24.3.0, SVG Export Plug-In . SVG Version: 6.00 Build 0)  -->
<svg version="1.1" id="code_stroke_1_" xmlns="http://www.w3.org/2000/svg" xmlns:xlink="http://www.w3.org/1999/xlink" x="0px"
	 y="0px" viewBox="0 0 256 256" style="enable-background:new 0 0 256 256;" xml:space="preserve">
<style type="text/css">
	.st0{fill:#FFFFFF;}
</style>
<g>
	<path class="st0" d="M54.9,102.6c-0.6-0.6,0.1-0.4,0.3-0.5c0.9-0.5,1.9-0.3,2.9-0.5c0.3,0,0.5,0,0.8-0.1c2.2-0.2,4.3-0.5,6.5-0.7
		c0.6-0.1,1.3-0.1,1.5-0.9c1-2.1,1.9-4.3,2.9-6.4c0.4-1,0.9-2.1,1.4-3.1c0.1-0.3,0.2-0.6,0.6-0.6c0.3,0,0.4,0.3,0.5,0.6
		c0.5,1.1,1,2.1,1.4,3.2c1,2.1,1.9,4.2,2.9,6.4c0.2,0.5,0.5,0.7,1,0.8c1.7,0.2,3.4,0.4,5.2,0.5c1.8,0.2,3.7,0.3,5.5,0.6
		c0.3,0,0.8,0,0.5,0.6c-0.9,1-2,1.9-3,2.8c-0.2,0.2-0.5,0.4-0.7,0.7c-1.4,1.2-2.8,2.6-4.2,3.8c-0.6,0.5-0.9,1.1-0.5,1.9
		c0.7,3.3,1.4,6.5,2.1,9.8c0.1,0.3,0.2,0.6-0.1,0.9c-0.3,0.1-0.5-0.1-0.7-0.2c-0.8-0.4-1.6-0.9-2.4-1.3c-2.3-1.4-4.7-2.7-7-4
		c-0.5-0.3-0.8-0.2-1.2,0.1c-2.3,1.3-4.6,2.6-6.9,4c-0.8,0.4-1.5,0.9-2.3,1.3c-0.2,0.1-0.4,0.3-0.7,0.2c-0.3-0.3-0.1-0.6-0.1-0.9
		c0.7-3.3,1.4-6.5,2.1-9.8c0.3-0.8,0.1-1.4-0.6-1.9c-0.4-0.3-0.7-0.6-1.1-0.9c-0.1-0.1-0.2-0.2-0.4-0.4c-0.9-0.9-1.9-1.7-2.8-2.5
		c-0.8-0.8-1.7-1.6-2.5-2.3C55.5,103.3,55.1,103,54.9,102.6z"/>
	<path class="st0" d="M94.4,102.6c-0.6-0.6,0.1-0.4,0.3-0.5c0.9-0.5,1.9-0.3,2.9-0.5c0.3,0,0.5,0,0.8-0.1c2.2-0.2,4.3-0.5,6.5-0.7
		c0.6-0.1,1.3-0.1,1.5-0.9c1-2.1,1.9-4.3,2.9-6.4c0.4-1,0.9-2.1,1.4-3.1c0.1-0.3,0.2-0.6,0.6-0.6c0.3,0,0.4,0.3,0.5,0.6
		c0.5,1.1,1,2.1,1.4,3.2c1,2.1,1.9,4.2,2.9,6.4c0.2,0.5,0.5,0.7,1,0.8c1.7,0.2,3.4,0.4,5.2,0.5c1.8,0.2,3.7,0.3,5.5,0.6
		c0.3,0,0.8,0,0.5,0.6c-0.9,1-2,1.9-3,2.8c-0.2,0.2-0.5,0.4-0.7,0.7c-1.4,1.2-2.8,2.6-4.2,3.8c-0.6,0.5-0.9,1.1-0.5,1.9
		c0.7,3.3,1.4,6.5,2.1,9.8c0.1,0.3,0.2,0.6-0.1,0.9c-0.3,0.1-0.5-0.1-0.7-0.2c-0.8-0.4-1.6-0.9-2.4-1.3c-2.3-1.4-4.7-2.7-7-4
		c-0.5-0.3-0.8-0.2-1.2,0.1c-2.3,1.3-4.6,2.6-6.9,4c-0.8,0.4-1.5,0.9-2.3,1.3c-0.2,0.1-0.4,0.3-0.7,0.2c-0.3-0.3-0.1-0.6-0.1-0.9
		c0.7-3.3,1.4-6.5,2.1-9.8c0.3-0.8,0.1-1.4-0.6-1.9c-0.4-0.3-0.7-0.6-1.1-0.9c-0.1-0.1-0.2-0.2-0.4-0.4c-0.9-0.9-1.9-1.7-2.8-2.5
		c-0.8-0.8-1.7-1.6-2.5-2.3C95,103.3,94.6,103,94.4,102.6z"/>
	<path class="st0" d="M135.1,102.6c-0.6-0.6,0.1-0.4,0.3-0.5c0.9-0.5,1.9-0.3,2.9-0.5c0.3,0,0.5,0,0.8-0.1c2.2-0.2,4.3-0.5,6.5-0.7
		c0.6-0.1,1.3-0.1,1.5-0.9c1-2.1,1.9-4.3,2.9-6.4c0.4-1,0.9-2.1,1.4-3.1c0.1-0.3,0.2-0.6,0.6-0.6c0.3,0,0.4,0.3,0.5,0.6
		c0.5,1.1,1,2.1,1.4,3.2c1,2.1,1.9,4.2,2.9,6.4c0.2,0.5,0.5,0.7,1,0.8c1.7,0.2,3.4,0.4,5.2,0.5c1.8,0.2,3.7,0.3,5.5,0.6
		c0.3,0,0.8,0,0.5,0.6c-0.9,1-2,1.9-3,2.8c-0.2,0.2-0.5,0.4-0.7,0.7c-1.4,1.2-2.8,2.6-4.2,3.8c-0.6,0.5-0.9,1.1-0.5,1.9
		c0.7,3.3,1.4,6.5,2.1,9.8c0.1,0.3,0.2,0.6-0.1,0.9c-0.3,0.1-0.5-0.1-0.7-0.2c-0.8-0.4-1.6-0.9-2.4-1.3c-2.3-1.4-4.7-2.7-7-4
		c-0.5-0.3-0.8-0.2-1.2,0.1c-2.3,1.3-4.6,2.6-6.9,4c-0.8,0.4-1.5,0.9-2.3,1.3c-0.2,0.1-0.4,0.3-0.7,0.2c-0.3-0.3-0.1-0.6-0.1-0.9
		c0.7-3.3,1.4-6.5,2.1-9.8c0.3-0.8,0.1-1.4-0.6-1.9c-0.4-0.3-0.7-0.6-1.1-0.9c-0.1-0.1-0.2-0.2-0.4-0.4c-0.9-0.9-1.9-1.7-2.8-2.5
		c-0.8-0.8-1.7-1.6-2.5-2.3C135.7,103.3,135.3,103,135.1,102.6z"/>
	<path class="st0" d="M9.6,128.1c0-22.5,0-44.9,0-67.4C9.7,42,18.8,33,37.7,32.9c3.1,0,6.2,0,9.3,0c6.4,0,13.5,1.9,12.9-9.1
		c-0.3-4.3,4.2-7.1,9.1-6.8c5.2,0.3,8.9,3.2,8.6,8.4C77.3,32,80,33,85.9,32.9c21.6-0.3,43.2-0.2,64.9,0c5,0,8.4,0,8.2-6.8
		c-0.2-5.7,3.6-9.5,9.7-9.2c5.6,0.3,9,3.7,8.6,9.4c-0.5,6.3,2.7,6.8,7.6,6.6c5.9-0.2,11.8-0.3,17.7,0c15.4,0.8,24.7,10.6,24.9,26.1
		c0.1,9.3-0.3,45.5,0.1,54.8c0.2,5.3-1.6,6.7-6.7,6.5c-15-0.5-11.7,1.5-12.1-11.8c-0.2-7-0.2-41,0-48c0.2-6-2.3-8.9-8.4-8.7
		c-3.6,0.1-7.3,0.1-10.9,0c-6.8-0.3-13.5-1.6-12.6,9.5c0.4,4.4-4.4,6.9-9.2,6.6c-5.3-0.3-8.7-3.7-8.5-8.7c0.3-6.8-2.6-7.6-8.4-7.5
		c-21.6,0.3-43.2,0.3-64.9,0c-5.3-0.1-8.4,0.6-8,7.1c0.3,5.6-3.3,8.9-8.9,9c-5.7,0.1-9.6-3.3-9.3-8.7c0.4-7-2.9-7.5-8.5-7.4
		c-26.7,0.5-22.5-3.3-22.6,22.9c-0.2,39.6,0.1,79.2-0.2,118.8c-0.1,7.9,2.2,11.2,10.5,10.9c14.9-0.5,63.5,0.4,78.4-0.4
		c8.3-0.4,7.5,4.2,7.3,9.3c-0.2,4.7,1.9,10.1-6.8,9.7c-16.3-0.7-66.3-0.1-82.6-0.2c-15.3-0.1-25.1-10-25.2-25.4
		C9.5,174.2,9.6,151.1,9.6,128.1z"/>
	<path class="st0" d="M194.4,134.2c-29.2-0.1-52.6,23.1-52.7,52.3c-0.1,29.1,23.4,52.6,52.5,52.6c28.7,0,52.2-23.6,52.3-52.3
		C246.4,158,223.1,134.4,194.4,134.2z M194.2,227.8c-23,0-41.6-18.4-41.5-41.3c0.1-22.6,18.5-40.9,41.3-41
		c22.7-0.1,41.2,18.3,41.2,41C235.2,209.3,216.9,227.7,194.2,227.8z"/>
	<path class="st0" d="M178.9,185.3c0-4.9,0-9.9,0-14.8c0-3.8,1.8-6.3,5.6-6.2c3.8,0.1,5.5,2.5,5.5,6.3c-0.1,6.7,0.1,13.4-0.1,20.1
		c-0.1,3,0.8,4.1,3.9,4c4.2-0.2,8.5,0,12.7,0c3.6,0,5.9,1.7,6,5.3c0.1,3.9-2.2,5.7-6,5.7c-7.1,0-14.1,0-21.2,0
		c-4.5,0-6.4-2.3-6.4-6.6C178.9,194.5,178.9,189.9,178.9,185.3C178.9,185.3,178.9,185.3,178.9,185.3z"/>
</g>
</svg>
