<?xml version="1.0" encoding="utf-8"?>
<!-- Generator: Adobe Illustrator 24.3.0, SVG Export Plug-In . SVG Version: 6.00 Build 0)  -->
<svg version="1.1" id="Layer_1" xmlns="http://www.w3.org/2000/svg" xmlns:xlink="http://www.w3.org/1999/xlink" x="0px" y="0px"
	 viewBox="0 0 256 256" style="enable-background:new 0 0 256 256;" xml:space="preserve">
<style type="text/css">
	.st0{fill:#F2F2F2;}
	.st1{fill:#0F9CA9;}
	.st2{fill:#FFFFFF;}
</style>
<g>
	<path class="st0" d="M331.1,222c0.8-2.9,1.8-5.5,2.4-8.2c1.1-4.7,2.4-9.5,2.7-14.3c0.2-3.5-0.8-7.2-1.6-10.7
		c-0.5-2.4-1.9-3.1-4.2-2.2c-7.4,2.9-11.2,0.4-15.3-5.6c-11-15.8-18.7-33-21.6-52.1c-2.3-15-1.3-29.7,4.9-43.8
		c3-6.8,7.1-12.7,13.9-16c2.3-1.2,3.4-2.3,3.5-5.1c0.3-6.2,3.7-11,8.2-15c8-7,17.7-10.8,27.9-13c13.2-2.9,26.5-2.3,39.8-0.3
		c13,2,25.5,6,38,9.7c2.3,0.6,4.5,1.2,6.8,1.7c4,0.9,8,1.6,12.1-0.2c1.5,4,1.5,8,0.1,11.7c-1.2,3.1-2.9,6-4.7,8.8
		c-1.1,1.7-1.5,3.3-0.5,5c4.1,7.1,4.7,15.1,5.6,23c0.3,2.3,0,4.8-0.5,7.2c-1.6,7.2-0.6,14,2.5,20.6c1.8,3.8,4,7.4,5.9,11.1
		c1.1,2.1,2.1,4.2,2.9,6.4c1,2.8,0.1,4.8-2.4,6.3c-1.6,0.9-3.2,1.6-4.8,2.4c-3.6,1.8-5.1,4.8-2.8,8.6c2.4,3.9,0.7,6.8-3.8,7.5
		c-2.2,0.4-4.4,0.8-6.5,1.4c-0.6,0.1-1,0.8-1.5,1.2c0.4,0.5,0.8,1.2,1.4,1.6c1.5,0.9,3.1,1.6,4.5,2.5c1.9,1.2,3,2.9,2.5,5.3
		c-0.5,2.2-2.1,3-4.2,3.3c-2.3,0.4-3,1.6-2.4,3.9c0.2,0.6,0.4,1.2,0.7,1.7c2.8,5.8-0.6,11.9-7,12.3c-3,0.2-6-0.5-9-0.8
		c-2-0.2-3.9-0.8-5.9-0.9c-4.7-0.2-6.8,2.2-5.9,6.9c0.8,4.4,2,8.7,3.1,13c0.4,1.7,0.9,3.3,1.4,5.1C388.6,222,360.1,222,331.1,222z"
		/>
	<path class="st0" d="M457.6,168.4c3.4-0.3,6.9-0.7,10.3-1c13.8-1.3,27.7-2.6,41.5-3.9c1.4-0.1,2.8,0.2,4.1,0.6
		c1.4,0.4,2.1,1.7,2.1,3.2c0,0.7,0,1.4,0,2c0,4.1-1.8,5.7-5.9,5.3c-4.8-0.5-9.6-1-14.4-1.5c-11.5-1.2-23-2.4-34.5-3.6
		c-1.1-0.1-2.2-0.3-3.4-0.5C457.6,168.8,457.6,168.6,457.6,168.4z"/>
	<path class="st0" d="M457.4,172.7c1.6,0.5,3.1,1,4.7,1.5c14.8,5.1,29.7,10.1,44.5,15.2c1.1,0.4,2.2,0.9,3.1,1.6
		c1.7,1.3,1.9,2.7,1.1,4.7c-0.3,0.7-0.7,1.5-1,2.2c-1.2,2.7-3,3.5-5.8,2.4c-1.7-0.7-3.3-1.7-4.9-2.6c-13.3-7.7-26.6-15.5-39.9-23.2
		c-0.7-0.4-1.3-0.8-2-1.3C457.3,173.1,457.3,172.9,457.4,172.7z"/>
	<path class="st0" d="M458,163.6c0.7-0.4,1.4-0.9,2.1-1.3c14.3-7.8,28.5-15.5,42.8-23.3c0.8-0.4,1.5-0.8,2.3-1.1
		c3-1.1,4.8-0.3,6.1,2.6c0.1,0.2,0.2,0.5,0.3,0.7c1.8,4.2,0.9,6.3-3.5,7.6c-10,3.1-19.9,6.2-29.9,9.2c-6.3,1.9-12.5,3.8-18.8,5.7
		c-0.4,0.1-0.8,0.2-1.2,0.3C458.1,163.8,458,163.7,458,163.6z"/>
</g>
<path d="M-372,588c1.5,0,3,0,4.5,0c330.3,0,660.7,0,991,0c1.5,0,3,0,4.5,0c0,26.7,0,53.3,0,80c-333.3,0-666.7,0-1000,0
	C-372,641.3-372,614.7-372,588z M-229.5,621.7c-0.6-1.5-0.8-3.3-1.5-3.6c-2.7-1-5.7-2-8.5-1.9c-3.3,0.1-6,2-6.5,5.7
	c-0.5,3.8,1.7,5.9,4.9,7.1c2,0.8,4.2,1.1,6.1,2.1c1.3,0.7,3,2.4,2.9,3.4c-0.3,1.4-1.9,3.4-3.2,3.6c-2.5,0.5-5.2-0.1-7.8,0
	c-1.2,0-2.5,0.5-3.7,0.8c0.1,0.7,0.2,1.4,0.4,2.1c4.5,0,9.1,0.7,13.3-0.3c2.1-0.5,4.5-4.2,4.6-6.6c0.1-2-2.5-4.7-4.5-6.3
	c-1.7-1.4-4.4-1.4-6.4-2.4c-1.3-0.7-2.1-2.2-3.1-3.3c1.4-1,2.8-2.8,4.1-2.7C-235.8,619.4-233.4,620.6-229.5,621.7z M-177.8,616.4
	c0,8.4,0,16.9,0,25.7c6.4-0.6,1.1-7.2,4.7-8.8c4,2.1,3.9,9.3,11.1,8.6c-3-4.3-5.6-7.9-8.3-11.7c2.5-2.7,4.9-5.1,7.3-7.6
	c-0.4-0.5-0.7-0.9-1.1-1.4c-3.2,2.1-6.4,4.3-9.5,6.4C-176,616.5-176,616.5-177.8,616.4z M-215.5,631.6c-0.2,6.1,3.4,10.4,8.9,10.4
	c5.4,0.1,9-3.8,9.1-9.7c0.2-6.2-3.4-10.4-8.9-10.4C-211.7,621.9-215.3,625.7-215.5,631.6z M-181,640.5c-0.2-0.6-0.4-1.6-0.7-1.7
	c-0.8-0.3-1.8-0.1-2.7,0c-4.5,0.4-7.2-2.1-7.3-6.7c0-4.6,2.7-7,7.2-6.8c1.2,0.1,2.4-0.4,3.6-0.6c-5.1-3.6-9.3-3-12.2,0.6
	c-2.8,3.5-2.8,9.9,0,13.5C-190.3,642.4-186.1,643-181,640.5z M-331.3,639.8c-3.2-8.9-6-16.5-8.8-24.1c-0.6,0.2-1.2,0.5-1.8,0.7
	c2.9,8.2,5.8,16.3,8.9,24.4c0.1,0.3,3.3,0.2,3.5-0.3c3-8,5.8-16,8.6-24.1c-0.5-0.2-1.1-0.4-1.6-0.6
	C-325.4,623.4-328.1,631.1-331.3,639.8z M-305,633c-2.2-4.1-3.3-7.7-5.7-9.8c-1.3-1.2-5.2-0.9-7.2,0.1c-4.3,2.1-5.6,9.5-3,14.2
	c2.4,4.4,8.2,6,13,3.4c0.4-0.2,0.5-1,0.9-1.9c-8.8,2.3-11.8,0.8-12.7-6C-315.4,633-311.2,633-305,633z M-278,632.3
	c0.1,5.8,3.7,9.8,9,9.8c5.4,0,9.1-4.2,9-10.3c-0.1-5.8-3.8-9.8-9-9.8C-274.4,622-278.1,626.2-278,632.3z M-220.7,621.7
	c-1.2-2.5-2-4.1-2.8-5.7c-0.6,1.6-1.5,3.2-1.7,4.9c-0.3,2.3-0.1,4.7-0.1,7c0,3-0.5,6.2,0.4,8.9c0.6,2,3,3.5,4.9,4.9
	c0.4,0.3,2-1,3.8-1.9c-9.1-3.1-4.4-9.5-5.7-13.9c2-1,3.5-1.7,4.9-2.4c-0.1-0.4-0.3-0.7-0.4-1.1
	C-218.7,622.2-220.1,621.9-220.7,621.7z M577.2,631.6c0.5-0.3,0.9-0.6,1.4-1c-1.4-1.2-2.8-3.4-4.2-3.4s-3.2,2-4.2,3.5
	c-0.8,1.4-1,3.3-0.9,5c0.1,1.5,0.6,3.6,1.6,4.2c1.3,0.8,3.6,0.8,5,0.2c1.1-0.5,1.7-2.6,1.9-4C577.9,634.7,577.4,633.2,577.2,631.6z
	 M-289,624c-5.7-3-9.9-2.3-12.7,1.4c-3,4-2.7,10.8,0.8,14.3c3,3,7.9,3.2,11.4,0.5c-9.8-0.5-12.3-2.2-12.2-8.2
	C-301.7,625.9-298.8,623.9-289,624z M503.3,640.8c0.5,0,0.9,0,1.4,0c0-2.5,0.3-5-0.1-7.5c-0.1-0.9-1.8-2.2-2.8-2.2
	c-3.9-0.1-7.8,0.3-12,0.5c0.2,3.2,0.4,6.2,0.6,9.2c0.5,0,0.9,0,1.4-0.1c0.1-1.6-0.1-3.3,0.4-4.8c0.4-1.2,1.8-2,2.7-3
	c0.7,1.1,1.7,2,2.1,3.2c0.4,1.5,0.3,3.1,0.5,5.5c2.9-3-0.4-7.9,5.1-8.7C502.8,635.8,503,638.3,503.3,640.8z M553.8,627.4
	c-0.5-0.3-1.1-0.5-1.6-0.8c-2.2,3.4-4.3,6.8-6.3,9.8c2.8,1.4,5.1,2.6,7.9,4C553.8,636.4,553.8,631.9,553.8,627.4z M567,627.9
	c-5.4-1.4-8.9,1.2-9,6.6c-0.1,3.6,1.4,6.6,5.3,6.3c1.6-0.1,4.3-2.6,4.4-4.1c0.2-4-2.9-4.6-6.3-4.2c-0.1,0-0.2-0.2-1.1-1.2
	C562.5,630.2,564.6,629.1,567,627.9z M-279.8,641.7c-5.4-5.8-5.3-16-1.3-18.5c-1.3-2.4-2.6-4.7-3.7-6.9
	C-288.2,625.1-285.8,640-279.8,641.7z M524.6,640.8c0-0.4,0-0.7,0-1.1c-2.3-0.3-4.6-0.5-7.9-0.9c2.1-1.6,3.4-2.6,4.6-3.6
	c2.2-1.8,4.1-4.1,1.5-6.7c-2.5-2.5-5.3-2.1-7.3,0.7c2.1,0.4,4.1,0.8,6.1,1.1c-1.3,1.7-2.7,3.3-3.9,5.1c-1.1,1.5-2.1,3.2-3.5,5.4
	C518.6,640.8,521.6,640.8,524.6,640.8z M589,640.7c4.4,0,7.5,0,10.6,0c0-0.3,0.1-0.6,0.1-0.9c-2.3-0.3-4.7-0.7-7.9-1.1
	c2.2-1.7,3.7-2.7,5-3.9c2-1.8,3.4-4.1,0.9-6.4c-2.6-2.3-5.2-1.7-7.4,0.8c2.3,0.3,4.2,0.6,6.1,0.9c-1.2,1.7-2.3,3.4-3.5,5.1
	C591.8,636.8,590.6,638.4,589,640.7z M542.7,628.3c0-0.3,0-0.6-0.1-0.9c-2.2,0-4.4,0-6.6,0c-0.2,2.1-0.3,3.9-0.3,4.3
	c2.6,1.8,4.4,3,6.2,4.3c-1.8,1.3-3.7,2.6-5.9,4.1c1.2,0.2,3.3,1.1,4.8,0.5c1.4-0.5,3.3-3.1,3-4c-1.1-2.6-3.2-4.8-4.9-7.3
	C539.5,629.1,541.1,628.7,542.7,628.3z M375.7,635.8c0.2-0.4,0.5-0.8,0.7-1.3c-1.6-1.2-3.2-3.3-4.7-3.3c-1.6,0-4.1,2-4.4,3.5
	c-0.4,1.6,0.9,4.2,2.2,5.3c1.1,0.9,3.5,0.2,5.3,0.2c0-0.2-0.1-0.4-0.1-0.6c-1.9-0.7-3.8-1.4-5.7-2.1c0.2-0.4,0.3-0.8,0.5-1.3
	C371.6,636.1,373.7,636,375.7,635.8z M421.8,628.9c0-0.6,0-1.2,0-1.8c-2.2,0.4-5.6,0.1-6.5,1.4c-4.4,6.4,5.2,5,5.6,9.9
	c-2.3,0.1-4.4,0.3-7.7,0.5c3.4,2.3,6.5,3.4,8.5,0.7c4.6-6.4-4.8-5.3-5.7-9.8C418,629.5,419.9,629.2,421.8,628.9z M365.7,627.5
	c-0.5-0.2-1-0.4-1.5-0.6c-1.3,3.3-2.7,6.6-4.3,10.5c-1.7-4.1-2.9-7.3-4.2-10.5c-0.5,0.2-1,0.4-1.5,0.6c1.6,4.6,3.3,9.2,4.9,13.8
	c0.6,0,1.1,0,1.7-0.1C362.5,636.6,364.1,632.1,365.7,627.5z M-256.8,641.8c3.8-6-2.8-15.4,7.5-19.1c-2.5,0.1-5,0.3-7.5,0.4
	C-256.8,629-256.8,635.4-256.8,641.8z M453.3,640.7c0.4,0.1,0.7,0.1,1.1,0.2c0.4-1.5,0.7-3.1,1.2-4.9c1.7,2.1,3,3.7,4.2,5.1
	c-0.3-3.6-0.5-6.7-0.7-9.8c-0.8,0.6-2.1,1.6-3.7,3c-0.3-2.8-0.6-5-0.9-7.2c-0.4,0.1-0.8,0.1-1.2,0.2
	C453.3,631.8,453.3,636.2,453.3,640.7z M488.6,637.4c0-0.8,0.1-1.5,0.1-2.3c-1.9-1.4-3.8-3.8-5.7-3.8c-1.7,0-4.8,2.9-4.7,4.2
	c0.2,2,2.5,4.8,4.3,5.2C484.4,641,486.6,638.6,488.6,637.4z M405.7,637.2c0-0.8,0-1.5,0.1-2.3c-1.9-1.3-3.9-3.7-5.8-3.6
	c-1.7,0-4.7,2.9-4.6,4.3c0.2,1.9,2.6,4.8,4.4,5.1C401.5,641,403.7,638.5,405.7,637.2z M434.7,641.8c0.8,0,1.5,0,2.3,0.1
	c1.3-2,3.8-4.1,3.6-5.8c-0.2-1.8-2.9-4.3-4.9-4.6c-1.3-0.2-4.3,2.8-4.4,4.5S433.5,639.8,434.7,641.8z M527.1,640.8
	c1.9,0,3.7,0,4.7,0c-0.4-4.6-0.8-9.1-1.2-14.6c-1.9,1.7-3.1,2.7-4.5,4C529.7,631.8,530,636.4,527.1,640.8z M585.5,626.1
	c-1.9,1.8-3.1,2.9-4.4,4.1c3.6,1.5,3.9,6.1,1.1,10.6c1.9,0,3.6,0,4.6,0C586.4,636.3,586,631.9,585.5,626.1z M475.6,631.8
	c-1.6-1.8-4.4-1.4-6,0.8c-1.1,1.6-1.2,4.9-0.2,6.5c1.6,2.6,4.6,2.7,6.3,1.2c-1.9-1.5-3.8-2.9-5.6-4.3
	C471.9,634.6,473.6,633.3,475.6,631.8z M450.9,640.1c-2-1.3-3.9-2.5-5.8-3.7c1.8-1.6,3.6-3.1,5.4-4.7c-2.3-1.5-5.1-1.1-6.5,1.7
	c-0.8,1.6-0.4,4.7,0.7,6.1C446.4,641.7,449.2,641.8,450.9,640.1z M385.6,631.7c-2.4-1.6-5.2-1.2-6.6,1.7c-0.8,1.6-0.4,4.7,0.7,6.1
	c1.7,2.3,4.5,2.3,6,0.8c-1.9-1.5-3.8-2.9-5.7-4.3C381.8,634.6,383.6,633.3,385.6,631.7z M392.3,640.7c-0.4-2.2-1.9-4.9-1.1-6.3
	c1.6-2.8,0.3-3.6-1.5-4.9C387.5,634.4,388.8,639.4,392.3,640.7z M428.2,640.4c-0.4-3.5-0.9-7.1-1.3-10.7
	C423.3,634.5,424.8,639.8,428.2,640.4z M411.3,631.5c-1.2,0-2.7,0-4.5,0c0.2,3.3,0.4,6.4,0.5,9.4c0.2-0.1,0.4-0.1,0.7-0.2
	C409.1,637.6,410.2,634.6,411.3,631.5z M506.9,641.1c0.5,0.2,1,0.4,1.5,0.6c1.5-4.8,3.1-9.5,4.6-14.3c-0.5-0.2-1-0.3-1.5-0.5
	C509.9,631.7,508.4,636.4,506.9,641.1z"/>
<g>
	<path class="st1" d="M-57.7,129.1c2.3,0,4.5,0,6.6,0c8.5,0,14.5,5.9,14.5,14.4c0,7.1,0,14.2,0,21.3c0,1.1-0.1,2.2-0.2,3.4
		c3.4,1,4.4,3.4,4.2,6.7c-0.1,2.1,0,4.3,0,6.5c0,3.1-2.1,5.3-5.2,5.3c-13.5,0-26.9,0-40.4,0c-0.3,0-0.6,0-1-0.1
		c2.8-13.9-7.3-25.5-19.6-26.1s-24.6,10.7-21.6,26.1c-16.9,0-33.9,0-50.8,0c1.6-9.8-1.5-17.8-9.8-23c-7.2-4.6-15.1-4.4-22.2,0.3
		c-8.1,5.3-10.7,13.3-9.3,22.8c-1,0-2,0-3,0c-4.4,0-8.9,0-13.3,0c-3.6,0-5.6-2-5.6-5.7c0-2.4,0-4.7,0-7.1c0-3,1.2-4.7,4.1-5.6
		c0.2,0,0.3-0.1,0.5-0.2c0-0.5,0-1,0-1.5c0-26.7,0-53.4,0-80.1c0-5.1,2.8-7.9,7.9-7.9c35.8,0,71.6,0,107.4,0c4.7,0,7.8,2.1,9.8,6.3
		c2.9,6.2,7.9,9.5,14.7,9.6c4.6,0.1,9.2,0,13.8,0c10.4,0,18.4,8,18.4,18.4c0,4.8,0,9.7,0,14.5C-57.7,128-57.7,128.5-57.7,129.1z
		 M-87.4,103.8c-4.8,0-9.6,0-14.4,0c-3.8,0-6.2,2.4-6.2,6.2c0,6.8,0,13.5,0,20.3c0,3.7,2.4,6.1,6.1,6.1c9.7,0,19.5,0,29.2,0
		c3.6,0,6.1-2.3,6.1-5.9c0-6.9,0-13.8,0-20.6c0-3.6-2.4-6-6-6C-77.6,103.8-82.5,103.8-87.4,103.8z M-161.3,113.1c0-4.2,0-8.3,0-12.4
		c-4.7,0-9.3,0-14.1,0c0,4.1,0,8.2,0,12.4c-4.2,0-8.2,0-12.3,0c0,4.7,0,9.3,0,14.1c4.1,0,8.2,0,12.4,0c0,4.2,0,8.2,0,12.3
		c4.7,0,9.3,0,14.1,0c0-4.1,0-8.2,0-12.4c4.2,0,8.2,0,12.3,0c0-4.7,0-9.3,0-14.1C-153,113.1-157.1,113.1-161.3,113.1z"/>
	<path class="st1" d="M-80.7,181.8c0,10.5-8.5,19-19,19s-19.1-8.6-19-19.1c0-10.5,8.6-18.9,19-18.9
		C-89.2,162.8-80.7,171.3-80.7,181.8z M-89.4,181.8c0-5.7-4.6-10.3-10.3-10.3s-10.3,4.6-10.3,10.4c0,5.6,4.6,10.3,10.3,10.3
		C-94,192.1-89.4,187.5-89.4,181.8z"/>
	<path class="st1" d="M-210.7,181.7c0-10.5,8.6-18.9,19-18.9c10.5,0,19,8.6,19,19c0,10.5-8.6,19-19.1,19
		C-202.3,200.7-210.8,192.2-210.7,181.7z M-202.1,181.8c0,5.7,4.6,10.3,10.2,10.3c5.7,0,10.4-4.6,10.4-10.3s-4.6-10.4-10.3-10.4
		C-197.5,171.4-202.1,176.1-202.1,181.8z"/>
</g>
<path class="st2" d="M-229.5,621.7c-3.8-1.1-6.3-2.3-8.8-2.4c-1.3-0.1-2.8,1.8-4.1,2.7c1,1.1,1.8,2.7,3.1,3.3c2,1.1,4.7,1.1,6.4,2.4
	c2,1.6,4.6,4.2,4.5,6.3c-0.1,2.4-2.6,6.1-4.6,6.6c-4.2,1-8.9,0.3-13.3,0.3c-0.1-0.7-0.2-1.4-0.4-2.1c1.2-0.3,2.5-0.8,3.7-0.8
	c2.6-0.1,5.3,0.6,7.8,0c1.3-0.3,2.9-2.2,3.2-3.6c0.2-0.9-1.6-2.7-2.9-3.4c-1.9-1-4.1-1.4-6.1-2.1c-3.2-1.2-5.4-3.3-4.9-7.1
	c0.5-3.7,3.1-5.7,6.5-5.7c2.8,0,5.8,1,8.5,1.9C-230.3,618.4-230.1,620.2-229.5,621.7z"/>
<path class="st2" d="M-177.8,616.4c1.7,0.1,1.7,0.1,4.1,11.2c3.2-2.1,6.4-4.3,9.5-6.4c0.4,0.5,0.7,0.9,1.1,1.4
	c-2.4,2.5-4.7,4.9-7.3,7.6c2.7,3.8,5.2,7.4,8.3,11.7c-7.2,0.8-7.1-6.4-11.1-8.6c-3.5,1.6,1.8,8.2-4.7,8.8
	C-177.8,633.3-177.8,624.8-177.8,616.4z"/>
<path class="st2" d="M-215.5,631.6c0.2-5.9,3.8-9.8,9.1-9.7c5.5,0.1,9,4.3,8.9,10.4c-0.2,5.9-3.8,9.7-9.1,9.7
	C-212.1,642-215.7,637.8-215.5,631.6z M-201,632.2c-0.3-3.6-1.2-7-5.4-7c-4.3-0.1-5.4,3.2-5.4,6.8c0,3.4,1.1,6.5,5.1,6.7
	C-202.5,639-201.4,635.8-201,632.2z"/>
<path class="st2" d="M-181,640.5c-5.1,2.5-9.3,1.9-12.1-1.7c-2.8-3.6-2.8-10,0-13.5c2.9-3.6,7-4.2,12.2-0.6
	c-1.2,0.2-2.4,0.7-3.6,0.6c-4.6-0.3-7.2,2.2-7.2,6.8s2.8,7.1,7.3,6.7c0.9-0.1,1.9-0.2,2.7,0C-181.3,638.9-181.2,639.9-181,640.5z"/>
<path class="st2" d="M-331.3,639.8c3.2-8.7,5.9-16.3,8.7-23.9c0.5,0.2,1.1,0.4,1.6,0.6c-2.8,8-5.6,16.1-8.6,24.1
	c-0.2,0.5-3.4,0.7-3.5,0.3c-3.1-8.1-6-16.3-8.9-24.4c0.6-0.2,1.2-0.5,1.8-0.7C-337.3,623.3-334.5,630.9-331.3,639.8z"/>
<path class="st2" d="M-305,633c-6.2,0-10.4,0-14.7,0c0.9,6.8,3.9,8.3,12.7,6c-0.4,0.9-0.5,1.7-0.9,1.9c-4.8,2.5-10.6,1-13-3.4
	c-2.6-4.7-1.3-12.1,3-14.2c2-1,5.9-1.4,7.2-0.1C-308.3,625.3-307.3,628.9-305,633z M-309,630.9c0.1-3.9-1-6.8-5-6.9
	c-4.3-0.1-5.3,3-6,6.9C-316.3,630.9-312.9,630.9-309,630.9z"/>
<path class="st2" d="M-278,632.3c-0.1-6.1,3.6-10.3,9-10.3c5.2,0,8.9,4,9,9.8c0.1,6-3.6,10.3-9,10.3
	C-274.3,642-277.9,638.1-278,632.3z M-268.9,640.1c4.2-0.1,6.8-3.2,6.8-8.1c0-5-3-8.3-7.3-8.1c-4,0.2-6.6,3.5-6.5,8.4
	C-275.8,637.2-273.1,640.2-268.9,640.1z"/>
<path class="st2" d="M-220.7,621.7c0.6,0.1,2,0.4,3.4,0.7c0.1,0.4,0.3,0.7,0.4,1.1c-1.5,0.7-2.9,1.4-4.9,2.4
	c1.3,4.3-3.4,10.8,5.7,13.9c-1.8,1-3.4,2.2-3.8,1.9c-1.9-1.4-4.3-2.9-4.9-4.9c-0.9-2.7-0.4-5.9-0.4-8.9c0-2.3-0.2-4.7,0.1-7
	c0.2-1.7,1.1-3.3,1.7-4.9C-222.7,617.6-222,619.2-220.7,621.7z"/>
<path class="st2" d="M577.2,631.6c0.2,1.5,0.8,3.1,0.6,4.5c-0.2,1.5-0.8,3.5-1.9,4c-1.4,0.7-3.7,0.6-5-0.2c-1-0.6-1.5-2.7-1.6-4.2
	c-0.1-1.7,0.1-3.6,0.9-5c0.9-1.5,2.7-3.5,4.2-3.5c1.4,0,2.8,2.2,4.2,3.4C578.1,631,577.6,631.3,577.2,631.6z"/>
<path class="st2" d="M-289,624c-9.9-0.1-12.7,1.8-12.7,8c-0.1,6,2.4,7.6,12.2,8.2c-3.5,2.7-8.4,2.5-11.4-0.5
	c-3.4-3.4-3.8-10.3-0.8-14.3C-298.9,621.7-294.7,621-289,624z"/>
<path class="st2" d="M503.3,640.8c-0.2-2.5-0.5-5.1-0.8-7.9c-5.6,0.8-2.2,5.7-5.1,8.7c-0.2-2.4-0.1-4-0.5-5.5
	c-0.3-1.2-1.4-2.1-2.1-3.2c-0.9,1-2.2,1.8-2.7,3c-0.5,1.4-0.3,3.2-0.4,4.8c-0.5,0-0.9,0-1.4,0.1c-0.2-3-0.4-6-0.6-9.2
	c4.2-0.2,8.1-0.6,12-0.5c1,0,2.6,1.3,2.8,2.2c0.4,2.4,0.1,5,0.1,7.5C504.2,640.8,503.8,640.8,503.3,640.8z"/>
<path class="st2" d="M553.8,627.4c0,4.5,0,9,0,13c-2.8-1.4-5.1-2.6-7.9-4c2-3.1,4.1-6.5,6.3-9.8
	C552.8,626.9,553.3,627.1,553.8,627.4z"/>
<path class="st2" d="M567,627.9c-2.4,1.2-4.4,2.3-6.8,3.4c0.9,1,1.1,1.2,1.1,1.2c3.4-0.4,6.5,0.2,6.3,4.2c-0.1,1.5-2.8,4-4.4,4.1
	c-3.9,0.3-5.3-2.7-5.3-6.3C558.1,629.1,561.6,626.5,567,627.9z M567.1,637.3c-1.9-1.5-2.9-2.8-4-2.9c-0.9-0.1-2,1.1-3,1.7
	c0.9,1,1.6,2.4,2.7,2.9C563.6,639.2,565,638.1,567.1,637.3z"/>
<path class="st2" d="M-279.8,641.7c-6.1-1.7-8.5-16.6-5-25.3c1.2,2.2,2.4,4.4,3.7,6.9C-285,625.8-285.1,636-279.8,641.7z"/>
<path class="st2" d="M524.6,640.8c-3,0-6.1,0-10.4,0c1.4-2.2,2.4-3.8,3.5-5.4c1.2-1.7,2.6-3.4,3.9-5.1c-2-0.4-4-0.7-6.1-1.1
	c2-2.9,4.8-3.2,7.3-0.7c2.6,2.5,0.7,4.8-1.5,6.7c-1.2,1-2.5,2-4.6,3.6c3.3,0.4,5.6,0.7,7.9,0.9C524.6,640,524.6,640.4,524.6,640.8z"
	/>
<path class="st2" d="M589,640.7c1.6-2.3,2.8-3.9,3.9-5.5c1.2-1.7,2.4-3.4,3.5-5.1c-1.9-0.3-3.8-0.6-6.1-0.9c2.3-2.5,4.9-3.2,7.4-0.8
	c2.4,2.2,1.1,4.5-0.9,6.4c-1.3,1.2-2.8,2.2-5,3.9c3.2,0.5,5.6,0.8,7.9,1.1c0,0.3-0.1,0.6-0.1,0.9C596.5,640.7,593.4,640.7,589,640.7
	z"/>
<path class="st2" d="M542.7,628.3c-1.6,0.4-3.2,0.8-3.9,1c1.8,2.5,3.8,4.7,4.9,7.3c0.3,0.8-1.6,3.4-3,4c-1.5,0.6-3.6-0.3-4.8-0.5
	c2.2-1.5,4-2.8,5.9-4.1c-1.8-1.2-3.6-2.5-6.2-4.3c0-0.4,0.2-2.2,0.3-4.3c2.2,0,4.4,0,6.6,0C542.7,627.6,542.7,627.9,542.7,628.3z"/>
<path class="st2" d="M375.7,635.8c-2.1,0.2-4.2,0.3-6.3,0.5c-0.2,0.4-0.3,0.8-0.5,1.3c1.9,0.7,3.8,1.4,5.7,2.1
	c0,0.2,0.1,0.4,0.1,0.6c-1.8,0-4.2,0.7-5.3-0.2c-1.4-1.1-2.6-3.7-2.2-5.3c0.3-1.5,2.8-3.4,4.4-3.5c1.6,0,3.2,2.1,4.7,3.3
	C376.2,635,376,635.4,375.7,635.8z"/>
<path class="st2" d="M421.8,628.9c-1.9,0.3-3.8,0.6-5.8,0.9c0.9,4.5,10.3,3.4,5.7,9.8c-2,2.7-5.1,1.6-8.5-0.7
	c3.2-0.2,5.4-0.3,7.7-0.5c-0.4-4.9-10-3.5-5.6-9.9c0.9-1.3,4.3-1,6.5-1.4C421.7,627.7,421.7,628.3,421.8,628.9z"/>
<path class="st2" d="M365.7,627.5c-1.6,4.6-3.3,9.1-4.9,13.7c-0.6,0-1.1,0-1.7,0.1c-1.6-4.6-3.3-9.2-4.9-13.8c0.5-0.2,1-0.4,1.5-0.6
	c1.3,3.2,2.6,6.4,4.2,10.5c1.6-3.9,2.9-7.2,4.3-10.5C364.7,627.1,365.2,627.3,365.7,627.5z"/>
<path class="st2" d="M-256.8,641.8c0-6.4,0-12.8,0-18.7c2.5-0.1,5-0.3,7.5-0.4C-259.5,626.3-253,635.7-256.8,641.8z"/>
<path class="st2" d="M453.3,640.7c0-4.5,0-8.9,0-13.4c0.4-0.1,0.8-0.1,1.2-0.2c0.3,2.2,0.5,4.4,0.9,7.2c1.7-1.3,3-2.4,3.7-3
	c0.2,3,0.5,6.2,0.7,9.8c-1.2-1.5-2.5-3.1-4.2-5.1c-0.5,1.9-0.8,3.4-1.2,4.9C454,640.8,453.7,640.8,453.3,640.7z"/>
<path class="st2" d="M488.6,637.4c-2,1.2-4.2,3.6-5.9,3.3c-1.8-0.3-4.1-3.2-4.3-5.2c-0.1-1.3,3-4.2,4.7-4.2c1.9,0,3.8,2.4,5.7,3.8
	C488.7,635.8,488.7,636.6,488.6,637.4z M482.6,640.4c1.6-2,3.2-3.1,3.1-4c-0.2-1.3-1.7-2.3-2.6-3.5c-1,0.9-2.7,1.7-2.8,2.7
	C480.2,636.9,481.4,638.2,482.6,640.4z"/>
<path class="st2" d="M405.7,637.2c-2,1.3-4.2,3.7-5.9,3.4c-1.8-0.3-4.2-3.1-4.4-5.1c-0.2-1.3,2.9-4.2,4.6-4.3c1.9,0,3.8,2.3,5.8,3.6
	C405.7,635.7,405.7,636.5,405.7,637.2z M404.2,635.9c-2-1.4-3.2-2.8-4.4-2.8c-0.9,0-2.6,1.9-2.5,2.7c0.2,1.2,1.6,2.9,2.7,3.1
	C400.9,639,402.2,637.4,404.2,635.9z"/>
<path class="st2" d="M434.7,641.8c-1.2-2-3.5-4-3.4-5.9c0.1-1.7,3.1-4.7,4.4-4.5c1.9,0.3,4.6,2.8,4.9,4.6c0.2,1.7-2.3,3.9-3.6,5.8
	C436.2,641.8,435.5,641.8,434.7,641.8z M439.9,636c-1.6-1.3-2.9-3-3.7-2.8c-1.2,0.3-2.1,1.9-3.2,2.9c1.1,1,2,2.6,3.2,2.9
	C437,639.1,438.3,637.4,439.9,636z"/>
<path class="st2" d="M527.1,640.8c3-4.4,2.6-9-1.1-10.6c1.4-1.2,2.6-2.3,4.5-4c0.5,5.5,0.9,10,1.2,14.6
	C530.7,640.8,529,640.8,527.1,640.8z"/>
<path class="st2" d="M585.5,626.1c0.5,5.8,0.9,10.2,1.3,14.7c-1,0-2.7,0-4.6,0c2.8-4.5,2.5-9.1-1.1-10.6
	C582.4,629,583.6,627.9,585.5,626.1z"/>
<path class="st2" d="M475.6,631.8c-1.9,1.5-3.7,2.8-5.5,4.1c1.8,1.4,3.7,2.9,5.6,4.3c-1.8,1.5-4.7,1.5-6.3-1.2
	c-1-1.6-0.8-4.9,0.2-6.5C471.1,630.4,473.9,630,475.6,631.8z"/>
<path class="st2" d="M450.9,640.1c-1.7,1.7-4.5,1.6-6.2-0.6c-1.1-1.4-1.5-4.5-0.7-6.1c1.4-2.8,4.2-3.3,6.5-1.7
	c-1.9,1.6-3.7,3.2-5.4,4.7C447,637.6,448.9,638.9,450.9,640.1z"/>
<path class="st2" d="M385.6,631.7c-2,1.5-3.8,2.9-5.5,4.2c1.9,1.4,3.7,2.8,5.7,4.3c-1.5,1.5-4.3,1.5-6-0.8c-1.1-1.4-1.5-4.5-0.7-6.1
	C380.4,630.6,383.2,630.2,385.6,631.7z"/>
<path class="st2" d="M392.3,640.7c-3.5-1.3-4.8-6.3-2.6-11.2c1.8,1.3,3.2,2.1,1.5,4.9C390.4,635.8,391.8,638.4,392.3,640.7z"/>
<path class="st2" d="M428.2,640.4c-3.3-0.6-4.9-5.9-1.3-10.7C427.3,633.3,427.7,636.9,428.2,640.4z"/>
<path class="st2" d="M411.3,631.5c-1.1,3.1-2.2,6.2-3.3,9.2c-0.2,0.1-0.4,0.1-0.7,0.2c-0.2-3-0.3-6-0.5-9.4
	C408.6,631.5,410.1,631.5,411.3,631.5z"/>
<path class="st2" d="M506.9,641.1c1.5-4.7,3.1-9.4,4.6-14.1c0.5,0.2,1,0.3,1.5,0.5c-1.5,4.8-3.1,9.5-4.6,14.3
	C507.9,641.6,507.4,641.4,506.9,641.1z"/>
<path d="M-201,632.2c-0.4,3.5-1.5,6.8-5.8,6.5c-3.9-0.2-5.1-3.3-5.1-6.7c0-3.6,1.1-6.9,5.4-6.8C-202.2,625.3-201.3,628.6-201,632.2z
	"/>
<path d="M-309,630.9c-3.9,0-7.3,0-11,0c0.6-3.8,1.7-7,6-6.9C-309.9,624.1-308.9,626.9-309,630.9z"/>
<path d="M-268.9,640.1c-4.2,0.1-6.9-2.9-7.1-7.8c-0.1-4.9,2.5-8.2,6.5-8.4c4.4-0.2,7.3,3.1,7.3,8.1
	C-262.1,636.9-264.7,640-268.9,640.1z"/>
<path d="M567.1,637.3c-2.2,0.9-3.5,1.9-4.3,1.6c-1.1-0.5-1.8-1.9-2.7-2.9c1-0.6,2.1-1.8,3-1.7C564.3,634.5,565.2,635.8,567.1,637.3z
	"/>
<path d="M482.6,640.4c-1.2-2.3-2.5-3.6-2.4-4.8c0.1-1,1.8-1.8,2.8-2.7c0.9,1.2,2.4,2.2,2.6,3.5C485.8,637.3,484.2,638.5,482.6,640.4
	z"/>
<path d="M404.2,635.9c-2,1.5-3.2,3.1-4.2,3c-1.1-0.2-2.5-1.9-2.7-3.1c-0.1-0.8,1.6-2.7,2.5-2.7C400.9,633.1,402.1,634.5,404.2,635.9
	z"/>
<path d="M439.9,636c-1.6,1.4-2.8,3.1-3.6,2.9c-1.2-0.3-2.1-1.8-3.2-2.9c1-1,1.9-2.6,3.2-2.9C437,633,438.3,634.6,439.9,636z"/>
<g>
	<path class="st0" d="M127.8,192.8c-26.9,0-53.9,0-80.8,0c-11.8,0-18.4-5.6-20.4-17.2c-2.7-15.8-2.6-31.5,0.4-47.2
		c1.8-9.4,8.8-15.3,18.6-15.4c27.6,0,55.2,0,82.7,0c26.8,0,53.6,0,80.3,0c11.6,0,18.2,5.5,20.2,16.9c2.9,16.2,2.7,32.3-0.5,48.4
		c-1.7,8.7-9.1,14.5-18.3,14.5C182.7,192.9,155.2,192.8,127.8,192.8z M127.5,183.1c24.5,0,49.1,0,73.6,0c3.4,0,6.7,0.1,10.1-0.1
		c3.9-0.2,6.9-2.8,7.6-6.4c3-15.1,3.2-30.3,0.4-45.5c-1.2-6.4-3.7-8.4-10.2-8.4c-52,0-103.9,0-155.9,0c-3,0-5.9-0.1-8.9,0.1
		c-3.8,0.2-6.9,2.7-7.6,6.4c-3,15.2-3.2,30.5-0.3,45.7c1.2,6.2,3.7,8.1,10.1,8.1C73.4,183.1,100.5,183.1,127.5,183.1z"/>
	<path class="st0" d="M100.4,86.5c-2.4,0-4.5,0-6.9,0c0,2.7,0.1,5.4,0,8c-0.1,2.2-1.1,3.8-3.3,4.6c-1.9,0.7-3.6,0.3-4.8-1.1
		c-0.8-1-1.4-2.5-1.5-3.9c-0.2-4.1-0.2-8.3-0.1-12.5c0-3.1,2.3-5,5.5-5c14.9,0,29.7,0,44.6,0.1c1.9,0,2.9-0.4,3.7-2.3
		c3.4-8.2,12.5-12.4,21-10c8.5,2.3,14.1,10.6,13,19.1c-1.2,9.2-8.4,15.8-17.5,16c-7.2,0.1-13.8-4.2-16.6-10.9
		c-0.6-1.6-1.4-2.2-3.1-2.1c-7.4,0.1-14.7,0-22.1,0c-0.7,0-1.4,0.1-2.3,0.2c0,2.6,0,5,0,7.5c-0.1,3.2-2.1,5.4-4.9,5.3
		c-2.7-0.1-4.6-2.2-4.6-5.3C100.3,91.6,100.4,89.1,100.4,86.5z M153.8,73.3c-4.6,0-8.1,3.5-8.1,8.2c0,4.6,3.7,8.3,8.2,8.2
		c4.4-0.1,8-3.7,8.1-8.1C162,76.9,158.4,73.3,153.8,73.3z"/>
	<path class="st0" d="M181.9,153c-5.2-3.8-6.2-5.4-4.7-8.1c2.6-4.7,6.1-2.5,9.7-0.6c0-3.9-0.1-7.8,4.7-8c5.1-0.2,5,4,5.1,7.1
		c2.6-0.3,4.9-0.8,7.2-0.8c0.8,0,1.8,1.2,2.4,2.1c1.6,2.8,0.5,4.6-4.6,8.1c3.1,2,6.9,3.8,4.4,8.4c-1.4,2.6-3.4,2.7-9.3,0.4
		c-0.3,3.7-0.1,8-5.6,7.8c-2.9-0.1-3.8-1.8-4.5-7.9c-3.4,1.8-7.2,4.1-9.5-0.8C175.1,156.5,178.9,154.8,181.9,153z"/>
	<path class="st0" d="M58.6,144.1c1.1-6.4,2.1-7.8,5.2-7.8c3,0,3.9,1.3,5,7.2c2.4-0.3,4.7-0.9,7-0.9c0.8,0,1.9,1.2,2.4,2.1
		c1.6,2.7,0.6,4.5-4,7.8c1.5,1.8,3.2,3.5,4.4,5.5c0.4,0.7,0.1,2.5-0.6,3.1c-1.2,1.1-2.8,2.2-4.3,2.3c-1.6,0.1-3.2-1-5-1.7
		c-0.2,3.6,0,7.6-5.2,7.8c-3,0.1-4-1.5-5-7.9c-3.4,1.8-7.1,4-9.4-0.9c-2-4.2,1.6-5.9,4.8-7.7c-3.3-2-7-3.8-4.6-8.5
		C50.8,141.8,52.9,141.8,58.6,144.1z"/>
	<path class="st0" d="M154.2,161.8c-1,6.2-1.9,7.8-5,7.8c-5.2-0.1-5-4.1-5.2-8.1c-3.4,2-6.7,3.9-9.4-0.2c-1.1-1.7-1.1-3.6,0.3-5.1
		c1.1-1.3,2.7-2.2,4.1-3.2c-5-3.7-5.9-5.5-4.5-8.1c1-1.8,2.5-2.8,4.5-2.5c1.7,0.3,3.2,1.1,5.1,1.8c0.1-3.6,0-7.7,5-7.7
		c5,0,4.8,4.2,5,7.1c2.5-0.3,4.8-0.9,7.1-0.8c0.9,0,2,1.4,2.5,2.3c1.4,2.7,0.4,4.5-4.7,7.9c3.2,2,7,3.9,4.3,8.6
		C161.8,164.1,159.8,164.1,154.2,161.8z"/>
	<path class="st0" d="M96.4,152.9c-5-3.5-6.1-5.5-4.5-8.3c1.5-2.7,3.5-2.9,9.4-0.6c0.3-3.6,0.1-8,5.4-7.7c4.8,0.3,4.5,4.3,4.6,7.2
		c2.4-0.4,4.7-1,7-1c0.9,0,2,1.2,2.6,2.2c1.6,2.6,0.6,4.3-4.5,8.3c3.1,1.8,6.8,3.7,4.5,8c-2.4,4.5-6,2.4-8.7,0.8
		c-1,2.4-1.7,4.7-2.9,6.7c-0.4,0.7-2,0.9-3,1c-3,0-3.9-1.5-4.9-7.9c-3.3,1.8-6.8,3.9-9.4-0.7C90.3,158.3,91.3,156.8,96.4,152.9z"/>
</g>
</svg>
