<?xml version="1.0" encoding="utf-8"?>
<!-- Generator: Adobe Illustrator 24.3.0, SVG Export Plug-In . SVG Version: 6.00 Build 0)  -->
<svg version="1.1" id="code_stroke_1_" xmlns="http://www.w3.org/2000/svg" xmlns:xlink="http://www.w3.org/1999/xlink" x="0px"
	 y="0px" viewBox="0 0 256 256" style="enable-background:new 0 0 256 256;" xml:space="preserve">
<style type="text/css">
	.st0{fill:#FFFFFF;}
</style>
<g>
	<path class="st0" d="M107.2,247.4c-7.2,1-13.9-2.8-20.1-7.7c-11.6-9.1-20.9-20.3-30-31.7c-5.4-6.9-10.5-14-15.6-21.1
		c-7.6-10.6-12.1-22.7-17.1-34.5c-5.8-13.7-10.9-27.7-13.6-42.5c-0.6-3.4-1-6.8-1.1-10.3c-0.1-4.7,0.7-9.2,3.1-13.3
		c4.6-8.2,10.2-15.5,18.3-20.5c4-2.5,8.3-4,13-4.6c2.4-0.3,4,0.9,5.6,2.3c2.7,2.4,4.9,5.4,6.8,8.5c4.6,7.6,8.9,15.3,11.4,23.8
		c3.8,12.8-1.3,21.6-14.3,25c-1.8,0.5-3.7,1.1-5.4,1c-3-0.2-3.7,1.4-4.1,3.8c-1,6.6,0,13,2.1,19.2c5.7,16.4,14.2,31.2,25.5,44.4
		c4.5,5.2,9.7,9.5,16.4,11.9c1.9,0.7,3.1,0.7,4.3-1.3c2.3-3.6,5.3-6.5,8.9-8.8c6.4-4.1,13.1-4,19.4,0.4c2.4,1.6,4.5,3.6,6.2,5.9
		c6,7.7,11.5,15.8,15.3,24.8c3.4,8.1,2.5,11.1-4.4,16.5C130.3,244.2,120.4,247.3,107.2,247.4z"/>
	<path class="st0" d="M117.9,61.7c0-9-0.1-18.1,0-27.1c0.1-13.8,10.1-24.6,24-26c12.7-1.3,25,8,27.6,21.1c0.3,1.6,0.5,3.2,0.5,4.8
		c0,18.2,0.1,36.3,0,54.5c-0.1,12.8-9.6,23.7-21.9,25.4c-13.1,1.8-25-5.5-29-17.8c-0.9-2.7-1.2-5.5-1.2-8.4
		C117.9,79.4,117.9,70.6,117.9,61.7z"/>
	<path class="st0" d="M171,157.5c0-10.7,0-21.5,0-32.2c0-6,4-8.3,9.3-5.3c18.6,10.7,37.2,21.5,55.8,32.2c5.8,3.4,5.7,7.8-0.1,11.2
		c-18.4,10.6-36.9,21.1-55.2,32c-5.4,3.2-10.1,0.4-9.9-5.6C171.3,179.1,171,168.3,171,157.5z"/>
	<path class="st0" d="M163.4,126.1c0,2.9-0.3,5.8,0.1,8.5c0.5,3.4-1.1,4.7-4,5.4c-2.6,0.6-5,1.6-7.7,1.8c-1.5,0.2-2,0.8-2,2.3
		c0.1,7.5,0.1,15,0,22.5c0,1.7,0.4,2.3,2.2,2.3c3.1-0.1,6.3,0,9.4-0.1c1.6-0.1,2.1,0.5,2,2.1c-0.1,2.4-0.1,4.9,0,7.3
		c0.1,2-0.7,2.3-2.5,2.3c-14-0.1-28,0-42,0c-4.3,0-7-2.4-6.9-6c0.1-3.5,2.7-5.6,6.9-5.6c5.6,0,11.2-0.1,16.7,0
		c2.1,0.1,2.5-0.6,2.5-2.6c-0.1-7.3-0.1-14.6,0-21.9c0-1.8-0.6-2.4-2.3-2.7c-20.1-3.6-35.4-18.5-39.5-38.5c-1.4-7-0.7-14.2-0.8-21.3
		c0-2.3-0.1-4.7,0-7c0.2-3.2,2.6-5.6,5.7-5.7c3.1-0.1,5.8,2.4,5.9,5.7c0.1,6.1,0,12.2,0,18.3c0.1,28.5,28.8,46.1,54.2,33.1
		C161.9,126.3,162.3,125.8,163.4,126.1z"/>
	<path class="st0" d="M177.2,109.9c4.9-9.4,3.4-19.6,3.6-29.5c0-1.9-0.1-3.9,0.1-5.8c0.3-2.8,2.7-5,5.5-5.2c2.8-0.1,5.9,1.9,5.9,4.6
		c-0.1,12.3,1.8,24.7-2.8,36.7c-1.4,3.7-1.3,3.6-4.7,1.8c-1.1-0.6-2.3-1.3-3.5-1.7C180,110.4,178.7,110.3,177.2,109.9z"/>
</g>
</svg>
