<?xml version="1.0" encoding="utf-8"?>
<!-- Generator: Adobe Illustrator 24.3.0, SVG Export Plug-In . SVG Version: 6.00 Build 0)  -->
<svg version="1.1" id="code_stroke_1_" xmlns="http://www.w3.org/2000/svg" xmlns:xlink="http://www.w3.org/1999/xlink" x="0px"
	 y="0px" viewBox="0 0 256 256" style="enable-background:new 0 0 256 256;" xml:space="preserve">
<style type="text/css">
	.st0{fill:#FFFFFF;}
</style>
<path class="st0" d="M128,237c-30.9,0-61.8,0.1-92.8-0.1c-5.3,0-10.8-0.7-15.9-2.4c-10.4-3.4-15.1-12.4-12.6-23
	c1-4,2.5-7.9,4.5-11.4C42.8,145.3,74.3,90.7,106,36.1c2.5-4.3,5.7-8.4,9.4-11.7c8.1-7.2,17.1-7.3,25.3,0c3.8,3.4,7.1,7.7,9.7,12.1
	C181.7,90.6,213,144.7,244.1,199c12.8,22.3,3.6,37.8-22.2,38C190.6,237.1,159.3,237,128,237z M120.1,160.4c4.2,0,8.5-0.1,12.8,0.1
	c3,0.1,4.1-1,4.5-3.9c2.8-19.6,5.8-39.1,8.7-58.7c1.1-8-1.3-14.8-8.1-19.3c-6.4-4.2-13.5-4.2-19.9,0c-6.8,4.4-9.5,11.3-8.2,19.2
	C113.1,118.3,116.6,138.9,120.1,160.4z M146.5,189.5c0-10-8.6-18.5-18.6-18.5c-9.8,0.1-18.2,8.4-18.3,18.3
	c-0.1,10.1,8.4,18.5,18.6,18.4C138.2,207.6,146.5,199.4,146.5,189.5z"/>
</svg>
