<?xml version="1.0" encoding="utf-8"?>
<!-- Generator: Adobe Illustrator 24.3.0, SVG Export Plug-In . SVG Version: 6.00 Build 0)  -->
<svg version="1.1" id="code_stroke_1_" xmlns="http://www.w3.org/2000/svg" xmlns:xlink="http://www.w3.org/1999/xlink" x="0px"
	 y="0px" viewBox="0 0 256 256" style="enable-background:new 0 0 256 256;" xml:space="preserve">
<style type="text/css">
	.st0{fill:#FFFFFF;}
</style>
<g>
	<path class="st0" d="M11.1,86C14,81.5,18.5,81,23.3,81c15.7,0.1,31.4,0,47.2,0c5.5,0,10.9-0.1,16.3,0.1c2,0.1,4,0.7,6.5,1.2
		c-1,1.3-1.6,2-2.2,2.7c-8.9,11.1-8.6,27.4,1.5,37.4c3.2,3.2,3.9,6.3,3.2,10.5c-4.5,0-9.1,0-14,0c0-6.9,0-13.8,0-20.9
		c-1.7,0-3.1,0-4.9,0c0,1,0,1.9,0,2.7c0,4.6-0.1,9.3,0,13.9c0.1,3.1,0.3,5.9-3.1,7.8c-2.1,1.2-2.6,3.9-2.6,6.4c0,4.6-0.1,9.3,0,13.9
		c0,1.5-0.4,2.4-1.9,2.6c-1.7,0.3-3.4,0.8-5.1,0.8c-7.2,0.1-14.4,0.2-21.6,0c-2.2-0.1-4.6-0.6-6.7-1.6c-3.8-1.8-5.9-4.9-5.8-9.3
		c0.1-11.5,0-23,0-34.5c0-1,0-1.9,0-3c-1.7,0-3.1,0-4.8,0c0,1-0.1,1.9-0.1,2.9c0,12.6,0,25.1,0,37.7c0,3.9-1.9,6.5-5.3,7.5
		c-3.2,0.9-6.3-0.4-8.2-3.6c-0.2-0.3-0.5-0.6-0.7-1C11.1,132.4,11.1,109.2,11.1,86z"/>
	<path class="st0" d="M137.4,164.5c0,1,0,2,0,3c0,11.5,0,23,0,34.5c0,6.8-3.6,10.5-10.5,10.7c-5.8,0.1-11.6,0-17.4,0
		c-1.9,0-3.8,0.1-5.7,0c-6.3-0.4-9.8-4.1-9.8-10.3c0-11.7,0-23.5,0-35.2c0-0.8,0-1.6,0-2.6c-2.7,0-5.3,0-8.2,0c0,1,0,1.9,0,2.9
		c0,12.7,0,25.5,0,38.2c0,1.1,0,2.3-0.4,3.4c-0.7,2.4-3.2,3.9-5.6,3.7c-2.6-0.2-4.6-2.1-5-4.7c-0.1-0.7-0.1-1.5-0.1-2.2
		c0-20.6,0-41.2,0-61.8c0-4.8,2.4-7.3,7.1-7.3c22.5,0,45-0.1,67.5,0c1.6,0,3.4,0.7,4.8,1.5c2.7,1.8,2.8,3.9,0.5,6.2
		c-5,5-9,10.6-11.6,17.1c-0.8,2.1-1.8,3.2-4.1,2.8C138.6,164.3,138.1,164.4,137.4,164.5z"/>
	<path class="st0" d="M193.7,234.1c-27.9,0-50.6-22.7-50.6-50.5c0-28,22.7-50.8,50.6-50.7c28,0,50.7,22.8,50.7,50.7
		C244.3,211.3,221.5,234,193.7,234.1z M233.4,183.6c0.1-21.9-17.6-39.7-39.5-39.8c-21.9-0.1-39.7,17.5-39.9,39.4
		c-0.2,22.8,18.7,40,39.4,40C215.5,223,233.3,205.6,233.4,183.6z"/>
	<path class="st0" d="M200.8,128.6c-4.9,0-9.4,0-14.2,0c0-4.7,0-9.5,0-14.4c-1.7,0-3.1,0-4.8,0c0,5.2,0,10.3,0,15.1
		c-4.1,1.5-8,2.7-11.6,4.4c-3.6,1.7-6.9,3.9-10.5,5.9c-2.4-5.3-7-6.8-12.5-6.6c-3.9,0.1-7.9,0-12.2,0c0-3.6,0-6.9,0-10.3
		c0-0.6,0.4-1.3,0.8-1.8c8.7-10.4,8.5-26.7-1-37.2c-0.1-0.1-0.2-0.3-0.3-0.6c0.7-0.1,1.3-0.2,1.9-0.2c14.7,0,29.5,0,44.2,0
		c3.6,0,7.2-0.1,10.8,0c6.4,0.1,9.4,3.2,9.4,9.5c0,11.1,0,22.2,0,33.3C200.8,126.7,200.8,127.6,200.8,128.6z"/>
	<path class="st0" d="M51.3,75.9c-14.8,0-27-12.2-26.7-26.9C24.8,34.9,36,21.4,52.8,22.2C66.9,22.9,78,34.3,78.1,49.1
		C78.2,63.9,66.1,75.9,51.3,75.9z"/>
	<path class="st0" d="M183,51c0,14.8-12,26.9-26.7,26.9c-14.8,0-26.9-12-26.9-26.8c0-14.8,12-26.7,26.8-26.8
		C170.8,24.1,183.2,37.4,183,51z"/>
	<path class="st0" d="M88.2,103.4C88,89.6,99.3,78,113.2,77.8c13.5-0.1,25.4,10.9,25.5,24.7c0.1,14.9-11.1,25.2-24.8,25.7
		C100,128.7,88.5,117.3,88.2,103.4z"/>
	<path class="st0" d="M129.9,127.1c0,2.1,0,3.9,0,5.9c-4.6,0-9.2,0-14.3,0c1.1-2.1,3.1-1.3,4.5-1.8c1.7-0.5,3.4-0.9,5.1-1.6
		C126.7,128.9,128.1,128,129.9,127.1z"/>
	<path class="st0" d="M191,179.5c9.3-0.2,19.2-0.5,29-0.7c3.4-0.1,5.3,2,4.5,5.1c-0.2,0.8-0.7,1.5-1.2,2.1c-1.2,1.2-2.4,2.3-3.8,3.5
		c-0.4-0.5-1-1.3-1.8-2.3c-0.7,0.9-1.2,1.8-2,2.8c-0.7-1.1-1.4-2-2.2-3.1c-0.7,1.1-1.4,2.1-2.3,3.5c-1-4.4-4.3-3.4-7.2-3.4
		c-3.6,0.1-7.3,0.3-10.9,0.1c-1.9-0.1-2.7,0.6-3.5,2.2c-3.3,6.9-11.6,9.6-18.3,6.1c-6.7-3.5-9.2-11.9-5.5-18.5
		c3.7-6.5,12.2-9,18.4-4.9C186.8,173.9,188.6,176.9,191,179.5z M175.9,183.6c0-2.3-1.9-4-4.2-3.9c-2.2,0.1-3.9,1.8-3.9,4
		c0,2.2,1.8,4.1,4,4.1C174.1,187.7,176,185.8,175.9,183.6z"/>
</g>
</svg>
