<?xml version="1.0" encoding="utf-8"?>
<!-- Generator: Adobe Illustrator 24.3.0, SVG Export Plug-In . SVG Version: 6.00 Build 0)  -->
<svg version="1.1" id="code_stroke_1_" xmlns="http://www.w3.org/2000/svg" xmlns:xlink="http://www.w3.org/1999/xlink" x="0px"
	 y="0px" viewBox="0 0 256 256" style="enable-background:new 0 0 256 256;" xml:space="preserve">
<style type="text/css">
	.st0{fill:#FFFFFF;}
</style>
<g>
	<path class="st0" d="M94.5,165.9c1.2-4.6,1.8-9,2.5-13.4c0.4-2.2,0.6-4.5,1-6.8c0.8-4.1-0.4-7.7-2.6-11.1c-1.8-2.7-3.8-5.4-5.6-8.1
		c-2.4-3.5-1.8-4.7,2.5-5c7-0.4,14-0.2,20.9,0c1.7,0.1,2.3,0.9,1.7,2.5c-0.6,1.7-1.6,3.2-2.6,4.6c-1.7,2.5-3.6,4.9-5.1,7.5
		c-1.7,3.1-2.1,6.4-1.6,9.8c0.8,6.2,1.8,12.4,3.1,18.6c0.1,0.3,0.2,0.6,0.4,1c1.3-1,1.9-2.3,2.7-3.6c4.1-7,8.5-13.8,13.5-20.1
		c1.6-2,3.2-4,4.8-6.1c3.5-4.4,7-8.9,9.6-14c0.8-1.5,1.8-1.9,3.4-1.5c6,1.5,11.8,3.3,17.3,6c9.9,4.9,15.4,13,17.2,23.8
		c0.7,4.3,0.8,8.7,1.2,13c0.1,0.9-0.4,1.3-1.1,1.8c-6.2,3.9-12.2,8-17.2,13.3c-9.7,10.3-15.5,22.6-18.3,36.3
		c-0.6,2.8-0.5,2.8-3.5,3.1c-9,0.8-18,0.6-27,0.6c-13.7,0-27.3,0.2-41-0.3c-10.1-0.4-20.1-1.4-29.9-3.6c-0.9-0.2-1.7-0.5-2.6-0.8
		c-3-0.9-4.9-2.8-6.4-5.6c-3.9-7.5-5.6-15.6-6.2-23.9c-0.8-11.1-0.8-22.3,0.5-33.3c1.1-9.8,6.2-17.3,14.4-22.7
		c6.4-4.2,13.6-6.3,21-7.9c1.1-0.2,1.7,0.2,2.3,1.1c1,1.7,2,3.5,3.1,5.2c2.8,4.4,6.2,8.4,9.4,12.5c6,7.7,11.5,15.6,16.4,24
		C93,164.1,93.5,165,94.5,165.9z"/>
	<path class="st0" d="M50.3,58.1C49,37.8,64.1,13.7,88,8c31.3-7.5,56.8,9.4,63.7,36.8c7.3,28.8-8.3,54.8-35.3,63.2
		c-6.5,2-13.3,1.9-20,1.5c-14.3-0.9-25.7-7.5-34.8-18.4c-5.8-7-9.3-15-10.9-23.9C50.2,64.2,50.4,61.1,50.3,58.1z"/>
	<path class="st0" d="M191.9,172.4c-23.2,0.2-38.6,19.8-38.4,39.5c0.2,19.4,17.4,39,40.1,37.9c20.7-0.2,37.6-17.8,37.4-39.1
		C230.9,190.3,214.3,172.2,191.9,172.4z M218.2,202.3c-1.1,1.5-2.4,2.8-3.6,4.1c-7.7,7.8-15.4,15.6-23.3,23.2
		c-0.7,0.7-1.6,1.4-2.4,2c-0.4,0.3-0.8,0.5-1.3,0.5c-0.7,0-1.3-0.4-1.8-0.8c-1.1-0.9-2.1-1.8-3.1-2.8c-4.1-4.1-8.3-8.1-12.2-12.3
		c-0.5-0.5-0.9-1.1-1.3-1.7c-1-1.5-1-2.5,0.2-3.9c1.3-1.4,2.7-2.8,4.2-4.2c1.6-1.4,2.6-1.4,4.3-0.2c1.6,1.2,3,2.7,4.5,4.1
		c1.5,1.5,3.1,3,4.5,4.5c0.5,0.5,0.8,0.5,1.3,0c5.9-5.8,11.8-11.7,17.7-17.5c1.1-1.1,2.2-2.1,3.3-3.1c0.9-0.9,1.8-1,2.9-0.3
		c2.5,1.6,4.5,3.7,6.2,6.1C218.9,200.8,218.7,201.6,218.2,202.3z"/>
</g>
</svg>
