<?xml version="1.0" encoding="utf-8"?>
<!-- Generator: Adobe Illustrator 24.3.0, SVG Export Plug-In . SVG Version: 6.00 Build 0)  -->
<svg version="1.1" id="code_stroke_1_" xmlns="http://www.w3.org/2000/svg" xmlns:xlink="http://www.w3.org/1999/xlink" x="0px"
	 y="0px" viewBox="0 0 256 256" style="enable-background:new 0 0 256 256;" xml:space="preserve">
<style type="text/css">
	.st0{fill:#FFFFFF;}
</style>
<g>
	<path class="st0" d="M72.3,154.2c-7,0-13.6,1.3-20,4.2c-12.5,5.5-25,11-37.4,16.5c-3.1,1.4-6.2,0.4-7.5-2.3c-1.3-2.8-0.2-5.9,3-7.2
		c13.2-5.8,26.2-11.9,39.6-17.2c15.8-6.3,31.8-5.9,47.4,1c4.9,2.2,9.2,5.4,12.6,9.5c3.3,4.1,7.4,6.4,12.3,7.7
		c2.2,0.5,4.3,1.2,6.5,1.6c0.8,0.1,1.8,0,2.5-0.5c9.6-5.9,19.2-11.9,28.8-17.9c4.7-3,9.9-4.8,15.4-5.4c7.1-0.7,13.5,1.2,19,5.8
		c0.8,0.7,1.4,0.7,2.3,0.4c9.3-2.6,17.7-1.3,24.7,5.9c0.3,0.3,1.2,0.4,1.7,0.2c3.8-1.2,7.7-2,11.8-1.6c12,1.2,18.1,13.5,11.8,23.7
		c-2.7,4.4-6.6,7.7-10.8,10.4c-21,13.7-41.9,27.4-63,41c-7.1,4.6-14.4,8.9-21.5,13.3c-11.2,7-22.9,7.5-34.8,2.3
		c-8-3.5-15.8-7.6-23.7-11.6c-8.8-4.4-17.6-8.8-26.4-13.3c-4.3-2.2-8.2-1.8-12.1,0.9c-4.6,3.1-9.3,6-14.1,9c-2.2,1.4-4.8,1-6.5-0.7
		c-1.7-1.7-2-4.3-0.7-6.4c0.4-0.6,0.9-1.2,1.5-1.6c5.2-3.4,10.4-6.7,15.7-10c6.5-4,13.3-4.1,20.1-0.8c7.1,3.5,14.2,7.1,21.3,10.7
		c9.4,4.7,18.8,9.5,28.4,14.1c5.1,2.4,10.5,3.6,16.2,2.5c3.5-0.7,6.7-2.2,9.7-4.1c20.3-12.9,40.7-25.8,61-38.8
		c7.5-4.8,15-9.7,22.4-14.8c2.8-1.9,5.1-4.4,7.6-6.7c0.5-0.4,0.8-1,1.1-1.6c1.6-3,0.1-6-3.2-6.8c-2.4-0.5-4.6-0.1-6.9,0.5
		c-5.6,1.5-10.4,4.5-15.2,7.6c-15,9.9-30,19.8-45.1,29.6c-4.2,2.7-9,3.7-13.9,3.7c-11.8,0.1-23.6,0.2-35.3-0.3
		c-9.7-0.4-19.2-2.6-28.6-5.1c-3-0.8-4.6-3.6-3.8-6.4c0.7-2.8,3.5-4.4,6.5-3.8c6.2,1.3,12.4,2.6,18.5,3.8c7.3,1.4,14.7,1.3,22,1.3
		c6.3,0,12.6,0,18.9,0c3.1,0,6.1-0.4,8.9-1.6c2.5-1.1,3.9-2.9,4-5.7c0.1-2.9-1-5-3.5-6.4c-3.2-1.8-6.7-1.9-10.3-2.1
		c-6.7-0.4-13.4-0.7-20.1-1.5c-6.4-0.8-12.6-2.7-18.7-5c-3.4-1.3-6.2-3.5-8.8-6.1c-1.3-1.3-2.6-2.7-3.8-4.1
		c-4.9-5.4-11.1-8.1-18.2-8.9C78.6,154.6,75.4,154.4,72.3,154.2z M175.6,185.4c12-7.9,24-15.8,36.2-23.7c-0.5-0.3-0.8-0.6-1.1-0.7
		c-0.5-0.3-1.1-0.5-1.7-0.7c-4.5-1.5-8.6-0.5-12.5,1.8c-5.1,3-10.1,6.2-15.1,9.3c-3.2,2-6.5,4-9.6,6
		C173.2,180.1,174.3,182.7,175.6,185.4z M147.6,169.7c0,0.1,0.1,0.2,0.1,0.3c0.3,0,0.6,0,0.9,0.1c4.1,0.4,8.2,0.8,12.3,1.1
		c0.5,0,1.2-0.2,1.7-0.5c5.1-3.1,10.2-6.3,15.3-9.5c2.6-1.6,5.2-3.2,8.1-5c-1.1-0.4-1.8-0.8-2.6-1.1c-3.1-1-6.3-0.9-9.4-0.1
		c-3.3,0.8-6.4,2.1-9.3,4C159,162.6,153.3,166.1,147.6,169.7z"/>
	<path class="st0" d="M184.1,36.6c-0.5,1.1-0.9,2.3-1.6,3.3c-2.7,4-5.5,7.8-8.3,11.8c-0.3,0.5-0.4,1.4-0.2,2c0.5,1.7,1.2,3.3,2,4.9
		c0.3,0.6,0.9,1.2,1.5,1.3c4.7,0.9,9.4,1.7,14.2,2.5c3.3,0.6,5,2.5,5,5.8c0,5-0.1,9.9-0.1,14.9c0,3.3-1.7,5.2-4.9,5.7
		c-4.7,0.8-9.5,1.6-14.2,2.4c-0.9,0.1-1.4,0.5-1.7,1.4c-0.6,1.6-1.3,3.2-2,4.7c-0.4,0.8-0.3,1.4,0.2,2.2c2.8,3.9,5.6,7.8,8.4,11.7
		c1.9,2.6,1.7,5.2-0.6,7.5c-3.6,3.6-7.2,7.1-10.8,10.6c-2.1,2.1-4.7,2.3-7.1,0.5c-4-2.8-7.9-5.6-11.8-8.4c-0.9-0.6-1.5-0.7-2.4-0.2
		c-1.4,0.7-2.8,1.3-4.3,1.8c-1.2,0.3-1.5,1-1.7,2.1c-0.8,4.7-1.6,9.4-2.4,14c-0.5,3-2.4,4.6-5.4,4.7c-5.2,0-10.4,0-15.6-0.1
		c-2.8,0-4.7-1.7-5.2-4.6c-0.8-4.6-1.6-9.2-2.4-13.9c-0.2-1.3-0.7-2.1-2.1-2.5c-1.4-0.4-2.8-1.1-4.2-1.7c-0.9-0.4-1.5-0.4-2.3,0.2
		c-3.8,2.7-7.6,5.3-11.5,7.9c-3.1,2.1-5.5,1.9-8.1-0.8c-3.3-3.4-6.7-6.8-10-10.1c-2.5-2.5-2.6-5-0.6-7.9c2.7-3.8,5.4-7.5,8.2-11.3
		c0.6-0.8,0.7-1.4,0.2-2.3c-0.8-1.6-1.3-3.3-2.1-4.9c-0.3-0.5-0.9-1.1-1.4-1.2c-4.5-0.9-9-1.7-13.6-2.5c-4.1-0.7-5.5-2.4-5.5-6.6
		c0-4.6,0-9.3,0.1-13.9c0-3.6,1.5-5.4,5.1-6c4.6-0.8,9.2-1.5,13.8-2.2c1-0.1,1.5-0.5,1.8-1.4c0.6-1.6,1.2-3.2,2-4.7
		c0.4-0.9,0.4-1.5-0.2-2.3c-2.7-3.7-5.3-7.5-7.9-11.3c-2.1-3.1-1.9-5.4,0.7-8.1c3.4-3.3,6.8-6.7,10.2-10c2.6-2.5,4.9-2.7,7.9-0.6
		c3.7,2.7,7.5,5.4,11.2,8.1c0.8,0.6,1.5,0.8,2.5,0.3c1.5-0.8,3.1-1.4,4.8-1.9c0.9-0.3,1.2-0.8,1.4-1.7c0.8-4.7,1.7-9.4,2.6-14.2
		c0.6-3.1,2.5-4.7,5.6-4.7c5,0,10,0,15,0.1c3.2,0,5.2,1.7,5.7,4.9c0.8,4.6,1.5,9.3,2.2,13.9c0.2,1.1,0.6,1.7,1.6,2
		c1.5,0.5,3,1.1,4.5,1.9c0.9,0.4,1.5,0.4,2.3-0.2c3.8-2.7,7.6-5.4,11.4-8.1c2.9-2.1,5.3-1.9,7.8,0.6c3.5,3.5,6.9,7,10.4,10.4
		C183.1,33.5,183.8,34.8,184.1,36.6z M171.8,36.9c-1.3-1.2-2.6-2.3-3.7-3.5c-0.9-0.9-1.5-1.1-2.6-0.3c-3.3,2.5-6.7,4.8-10.1,7.2
		c-2,1.4-4,1.4-6.3,0.3c-3.5-1.7-7.1-3.2-10.7-4.5c-2.3-0.9-3.7-2.3-4.1-4.7c-0.7-4.2-1.4-8.4-2-12.6c-0.2-1.1-0.5-1.4-1.5-1.3
		c-1.5,0.1-2.9,0-4.4,0c-1-0.1-1.3,0.3-1.5,1.3c-0.7,4.3-1.6,8.5-2.4,12.8c-0.4,2.2-1.8,3.5-4,4.3c-3.8,1.4-7.5,2.9-11.2,4.5
		c-2.1,0.9-4,1-5.9-0.4c-1.3-0.9-2.5-1.8-3.8-2.7c-2.6-1.8-5.1-3.7-7.7-5.5c-1.6,1.7-3.2,3.3-4.8,5c2.5,3.7,5.1,7.5,7.7,11.2
		c1.5,2.1,1.4,4.2,0.3,6.5c-1.6,3.2-3.1,6.5-4.2,9.9c-1,3.1-2.7,4.6-5.8,5c-3.9,0.5-7.8,1.2-11.7,1.9c-0.4,0.1-1.2,0.5-1.2,0.8
		c-0.1,2.1-0.1,4.2-0.1,6.3c4.5,0.8,8.9,1.7,13.2,2.4c2.9,0.5,4.4,2.1,5.3,4.8c1,3.1,2.1,6.3,3.7,9.1c1.7,3.1,1.7,5.7-0.5,8.5
		c-2.6,3.3-5,6.8-7.7,10.6c1.4,1.3,2.8,2.5,4.1,3.9c0.7,0.7,1.2,0.7,1.9,0.1c3.4-2.4,6.9-4.8,10.3-7.2c2.3-1.6,4.4-1.6,6.9-0.3
		c3.2,1.6,6.6,3,10,4.2c2.7,0.9,4.1,2.4,4.6,5.2c0.6,4.1,1.4,8.3,2.1,12.4c0.2,1,0.5,1.3,1.5,1.2c1.4-0.1,2.8-0.1,4.2,0
		c1.1,0.1,1.5-0.3,1.6-1.4c0.7-4.2,1.4-8.5,2.1-12.7c0.4-2.3,1.7-3.9,4-4.5c3.9-1,7.7-2.5,11.2-4.6c1.9-1.1,3.9-1,5.7,0.3
		c0.7,0.5,1.4,1,2.1,1.5c3.3,2.3,6.5,4.6,9.7,6.9c1.7-1.7,3.2-3.3,4.8-4.9c-2.6-3.7-5.3-7.5-8-11.3c-1.6-2.2-1.5-4.3-0.3-6.6
		c1.6-3,3.1-6.2,4-9.4c1-3.3,2.8-4.9,6.1-5.3c4.3-0.6,8.6-1.4,13-2.2c0-1.8-0.1-3.6,0-5.3c0.1-1.3-0.4-1.6-1.6-1.8
		c-4.1-0.6-8.2-1.4-12.3-2c-2.7-0.4-4.1-2-5-4.6c-1.1-3.4-2.5-6.8-4.1-10.1c-1.2-2.5-1.3-4.5,0.3-6.8
		C166.3,44.7,168.9,40.9,171.8,36.9z"/>
	<path class="st0" d="M175.6,185.4c-1.2-2.7-2.4-5.3-3.7-8.1c3.1-1.9,6.3-3.9,9.6-6c5-3.1,10-6.3,15.1-9.3c3.9-2.3,8-3.3,12.5-1.8
		c0.6,0.2,1.1,0.4,1.7,0.7c0.3,0.1,0.6,0.4,1.1,0.7C199.6,169.7,187.6,177.6,175.6,185.4z"/>
	<path class="st0" d="M147.6,169.7c5.7-3.5,11.4-7.1,17.1-10.7c2.9-1.8,6-3.2,9.3-4c3.2-0.7,6.3-0.8,9.4,0.1
		c0.8,0.2,1.5,0.6,2.6,1.1c-2.9,1.8-5.5,3.4-8.1,5c-5.1,3.2-10.2,6.3-15.3,9.5c-0.5,0.3-1.1,0.5-1.7,0.5c-4.1-0.3-8.2-0.7-12.3-1.1
		c-0.3,0-0.6,0-0.9-0.1C147.6,169.9,147.6,169.8,147.6,169.7z"/>
	<path class="st0" d="M127.7,101.9c-14.3,0.1-26.1-11.7-26.2-26.1c-0.1-14.7,11.6-26.6,26.3-26.7c14.6-0.1,26.5,11.7,26.5,26.3
		C154.4,90.2,142.7,101.9,127.7,101.9z M143.8,75.5c0-8.9-7.3-15.9-16.3-15.9c-8.5,0-15.6,7.4-15.6,15.9c0,8.9,7.2,15.9,16.2,15.9
		C136.7,91.4,143.8,84.1,143.8,75.5z"/>
</g>
</svg>
