<?xml version="1.0" encoding="utf-8"?>
<!-- Generator: Adobe Illustrator 24.3.0, SVG Export Plug-In . SVG Version: 6.00 Build 0)  -->
<svg version="1.1" id="code_stroke_1_" xmlns="http://www.w3.org/2000/svg" xmlns:xlink="http://www.w3.org/1999/xlink" x="0px"
	 y="0px" viewBox="0 0 256 256" style="enable-background:new 0 0 256 256;" xml:space="preserve">
<style type="text/css">
	.st0{fill:#FFFFFF;}
</style>
<g>
	<path class="st0" d="M188.6,117.6c-4.7,0.2-10.1-0.5-15.2-2.6c-4-1.7-6.5-1.1-9.6,2.1c-30.2,30.4-60.5,60.7-90.9,90.9
		c-2.8,2.7-3.4,5.6-3.6,9.2c-0.8,14.3-11.7,26-25,27.5c-14.5,1.6-27.1-6.2-31.6-19.5c-4.5-13.3,1.2-27.7,13.4-34.7
		c4-2.3,8.6-3.3,12.8-3.4c5.2-0.1,8.1-2.7,11.3-5.9c29.2-29.3,58.4-58.6,87.8-87.7c3.5-3.5,4.8-6.1,3-11.4
		c-8.9-26.8,5.8-55,32.8-63.8c7.6-2.5,15.3-4.3,23-6.4c2.1-0.6,4.6-1.7,5.9,1.1c1.1,2.3-0.8,3.7-2.2,5.1c-8.5,8.5-16.8,17-25.5,25.3
		c-2.7,2.6-3.2,4.8-1.8,8.4c9.1,22.6,9,22.5,31.7,31.3c3,1.2,4.8,0.9,7-1.5c8.3-8.6,16.9-17,25.4-25.4c1.7-1.7,3.3-4.5,6.2-2.5
		c2.3,1.5,1,4.1,0.4,6.2c-1.8,7-3.6,14-5.6,20.9C232,102.6,212.1,117.6,188.6,117.6z M54,215.9c0.1-7.6-6-13.7-13.7-13.8
		c-7.6,0-13.8,6.1-13.9,13.6c0,7.5,6.2,13.8,13.7,13.8C47.7,229.6,53.9,223.5,54,215.9z"/>
	<path class="st0" d="M41.5,173.3c-3.7-5.5-5.5-10.3-6.8-15.3c-1.5-5.3-4.4-7.8-10.2-7.6c-18.9,0.9-17.4-1-17.3-17.7
		c0-6.2,0.1-12.4,0-18.7c-0.1-5.7,2.5-9.6,8.4-8.6c12.6,2,19.9-2.7,21.9-15.4c0.1-0.5,0.4-0.9,0.6-1.4c5.6-12.7,5.7-12.9-4.5-23
		c-4.8-4.8-5.6-8.9-0.4-13.9c6.3-6,12.3-12.4,18.6-18.4c4.5-4.2,9.3-5.2,14,0.1c1.6,1.9,3.6,3.4,5.2,5.3c3.4,4,7.1,4.6,11.9,2.1
		c4.8-2.5,9.9-4.8,15.1-6.3c5.9-1.7,8.1-5.2,7.5-11c-0.1-1.2,0-2.5,0-3.7c0-11.9,0.9-12.8,12.6-12.8c8,0,15.9,0,23.9,0
		c3.8,0,7,0.9,8.4,4.8c1.4,3.7-0.9,5.9-3.5,8.2c-9.8,8.7-16.2,19.5-18.9,32.3c-0.8,3.8-2.1,5.6-6.5,6.2C75.7,65,50,103,60.9,147.6
		c0.5,2.2,1.5,4-0.6,6.1C54,160,48,166.6,41.5,173.3z"/>
	<path class="st0" d="M205.7,220.7c-6.9,8-9,8.1-16,1.1c-9.5-9.5-9.5-9.4-21.9-4c-2.7,1.2-5.6,2-8.4,2.9c-1.4-4.7-5.1-3.4-7.6-2.2
		c-2.3,1.2-1.6,3.7,0.5,5.4c-2.8,5.1-1.6,10.7-1.6,16.1c0.1,6.4-2.9,9-9,9c-8.9-0.1-17.9-0.2-26.8,0c-6.5,0.1-9.9-2.5-9.4-9.3
		c0.1-0.7,0-1.5,0-2.2c0-13.3,1.1-13.2-11.9-17.5c-3.3-1.1-6.4-2.7-11-4.7c7-6.8,13.4-13.2,20-19.4c0.9-0.8,2.9-1.3,4.1-0.9
		c21.7,6.4,42,2.7,61.1-8.9c8.6,2.3,8.3,8.9,8.2,15.9c-0.1,6.6,2.2,8,8,5.4c8.2-3.6,14.3-0.8,15.6,7.9
		C200.3,219.2,201.8,220.9,205.7,220.7z M120.6,199.9c-0.7,0.4-1.4,0.8-2.1,1.1c4.1,4.5,3.6,9.8,3.5,14.9c0,2.9,0.4,5.4,4.2,3.3
		c3.5-2,7.2-1.4,10.9-1.6c1.8-0.1,4.7,1,5-1.7c0.3-2.4-2.1-3.9-4.5-4.2c-4-0.5-6.6-2.5-9.1-5.7C126.6,203.5,123.3,201.9,120.6,199.9
		z M122.4,241.9c-0.7,0.6-1.4,1-1.5,1.4c-0.1,0.6,0.1,1.6,0.5,1.8c1,0.6,1.8-0.1,1.8-1.1C123.2,243.4,122.8,242.8,122.4,241.9z
		 M99,215.8c-0.4-0.2-0.9-0.6-1.2-0.5c-0.3,0.1-0.4,0.8-0.6,1.2c0.4,0.2,0.9,0.6,1.2,0.5C98.7,216.8,98.8,216.2,99,215.8z"/>
	<path class="st0" d="M220.3,160.9c-0.8,2.3-1.5,4.7-2.5,6.9c-5.4,12.3-5.5,12.3,4.3,22.2c3.8,3.9,7.5,7.7,1.6,12.8
		c0.4-4.9-0.7-7-6.3-4.5c-5.6,2.5-10.6-0.5-11.4-6.4c-0.6-4.3-1.3-9.1,2.4-12.6c2.1-2,2-3.7,0.2-5.7c-1.5-1.7-2.9-1.8-5.1-0.7
		c-9,4.5-11.3,3.7-17.4-5.1c6.4-10.5,11-21.7,11.7-34.2c0.2-3.7,2-4.5,4.9-5.1c13.6-2.7,25-9.5,34.1-20c2.2-2.6,4.5-3.9,7.7-2.6
		c3.1,1.2,4.5,3.7,4.5,7c0,9.9,0,19.9,0,29.8c0,5.6-3,7.9-8.5,8c-5.4,0.1-10.9-1.1-16.2,1.3c-8.1-0.5-16.3,0.9-24.4-0.8
		c-2.1-0.4-3.5,0.1-4.2,1.9c-0.7,2-0.5,4.1,1.8,5c3.5,1.4,6.9,2.7,8.2,6.8c0.4,1.3,1.9,1,2.9,1.4C214.7,168.9,216.1,162,220.3,160.9
		z"/>
	<path class="st0" d="M186,167.6c6.1,8.8,8.4,9.6,17.4,5.1c2.3-1.1,3.6-1,5.1,0.7c1.8,2,2,3.7-0.2,5.7c-3.7,3.5-3,8.3-2.4,12.6
		c0.8,5.9,5.9,8.9,11.4,6.4c5.5-2.4,6.6-0.3,6.3,4.5c-0.5,0.5-1,1-1.5,1.5c-2.5-1.4-4.5-1.4-7.3,0.3c-6.1,3.8-9,9.1-9.2,16.1l0,0
		c-3.9,0.3-5.5-1.5-6.1-5.5c-1.4-8.7-7.5-11.5-15.6-7.9c-5.8,2.6-8.2,1.2-8-5.4c0.2-6.9,0.4-13.6-8.2-15.9
		C174.5,180.6,180.7,174.5,186,167.6z"/>
	<path class="st0" d="M201.9,33c1.6,0.4,2.1,0.4,2.4,0.7c6,5.9,12.1,11.8,17.9,17.9c1.5,1.5-0.4,2.6-1.3,3.5
		c-4.2,4.3-8.3,8.6-12.6,12.7c-3.1,2.9-14.8-1.6-17.5-6.5c-5.7-10.5-5.6-10.5,3-19.3C196.8,39,199.5,35.7,201.9,33z"/>
	<path class="st0" d="M220.3,160.9c-4.2,1.1-5.6,8.1-11.8,5.4c-1-0.4-2.5-0.1-2.9-1.4c-1.3-4-4.6-5.4-8.2-6.8c-2.3-0.9-2.5-3-1.8-5
		c0.7-1.9,2.1-2.4,4.2-1.9c8.1,1.7,16.3,0.3,24.4,0.8C222.9,154.9,221.6,157.9,220.3,160.9z"/>
	<path class="st0" d="M205.7,220.6c0.2-7,3-12.3,9.2-16.1c2.8-1.7,4.8-1.8,7.3-0.3C216.7,209.7,211.2,215.2,205.7,220.6z"/>
	<path class="st0" d="M152.3,223.8c-2.2-1.6-2.9-4.2-0.5-5.4c2.5-1.3,6.3-2.6,7.6,2.2C157,221.7,154.7,222.8,152.3,223.8z"/>
	<path class="st0" d="M120.6,199.9c2.7,2,6.1,3.6,8,6.2c2.4,3.2,5.1,5.2,9.1,5.7c2.4,0.3,4.7,1.8,4.5,4.2c-0.3,2.7-3.2,1.6-5,1.7
		c-3.7,0.2-7.4-0.3-10.9,1.6c-3.7,2.1-4.2-0.4-4.2-3.3c0-5.2,0.6-10.4-3.5-14.9C119.2,200.7,119.9,200.3,120.6,199.9z"/>
	<path class="st0" d="M122.4,241.9c0.4,0.9,0.8,1.5,0.8,2.1c0,1.1-0.8,1.7-1.8,1.1c-0.4-0.2-0.6-1.2-0.5-1.8
		C121,242.9,121.7,242.5,122.4,241.9z"/>
	<path class="st0" d="M99,215.8c-0.2,0.4-0.3,1.1-0.6,1.2c-0.3,0.1-0.8-0.3-1.2-0.5c0.2-0.4,0.3-1.1,0.6-1.2
		C98.1,215.2,98.6,215.6,99,215.8z"/>
</g>
</svg>
