<?xml version="1.0" encoding="utf-8"?>
<!-- Generator: Adobe Illustrator 24.3.0, SVG Export Plug-In . SVG Version: 6.00 Build 0)  -->
<svg version="1.1" id="code_stroke_1_" xmlns="http://www.w3.org/2000/svg" xmlns:xlink="http://www.w3.org/1999/xlink" x="0px"
	 y="0px" viewBox="0 0 256 256" style="enable-background:new 0 0 256 256;" xml:space="preserve">
<style type="text/css">
	.st0{fill:#FFFFFF;}
</style>
<g>
	<path class="st0" d="M250.9,124c-0.3-1.8-0.6-2.9-2.3-3.7c-5-2.5-9.8-5.3-14.8-7.7c-1.9-0.9-2.8-2.2-3.3-4.1
		c-1.2-5-2.5-9.9-3.9-14.8c-0.6-1.9-0.4-3.5,0.7-5.2c3.1-4.6,5.9-9.5,9-14.1c1-1.5,0.9-2.6,0.3-4.4c-2.8-7.4-7.6-10.8-15.6-8.6
		c-0.5,0.2-1.2,0-1.7,0.1c-7.1,1.4-12.1-1.4-17.3-6.5c-6-5.8-8.4-11.4-7.4-19.7c1.3-10.6,0.7-10.6-8.5-15.9c-1.5-0.9-2.6-0.9-4,0.1
		c-4.9,3.2-9.9,6.2-14.7,9.3c-1.4,0.9-2.6,1.2-4.2,0.7c-5.4-1.5-10.7-3-16.2-4.3c-1.6-0.4-2.5-1.3-3.2-2.8
		c-2.6-5.2-5.4-10.3-8.1-15.4c-0.7-1.4-1.5-2-3.2-2c-10.6-0.3-10.6-0.4-15.5,8.9c-0.5,0.9-1.1,1.8-1.5,2.8
		c-2.1,6.1-6.5,8.6-12.7,10.6c-8.5,2.7-15.7,2.6-22.3-3.6c-5.7-5.4-11.4-5.3-17.2-0.3c-0.2,0.2-0.4,0.3-0.6,0.4
		c-1.6,0.6-1.9,1.7-1.8,3.3c0.3,5.8,0.4,11.6,0.7,17.4c0.1,1.8-0.4,3-1.7,4.3c-3.8,3.6-7.5,7.3-11.1,11.1c-1.4,1.5-2.9,2-4.9,1.9
		c-5.6-0.3-11.2-0.5-16.7-0.7c-2.6-0.1-9.4,9.4-8.5,11.8c0.2,0.6,0.7,1.2,1.1,1.8c3,4.7,5.9,9.5,8.9,14.1c1,1.5,1.1,2.8,0.7,4.5
		c-1.5,5.2-2.9,10.5-4.2,15.8c-0.4,1.7-1.3,2.5-2.8,3.3c-5.2,2.7-10.3,5.4-15.4,8.1c-2.4,1.3-3.1,12.9-0.9,14.5
		c0.6,0.4,1.2,0.7,1.8,1c4.7,2.5,9.4,5,14.2,7.5c1.7,0.8,2.7,1.9,3.1,3.8c1.3,5.2,2.7,10.3,4.2,15.5c0.5,1.7,0.3,3-0.7,4.5
		c-3.2,4.8-6.2,9.8-9.3,14.8c-0.5,0.7-1.5,1.4-0.9,2.4c1.9,3.3,3.8,6.7,5.8,10c0.6,1,1.7,0.5,2.6,0.5c5.8-0.2,11.6-0.3,17.4-0.7
		c1.8-0.1,3,0.5,4.2,1.7c3.7,3.9,7.5,7.6,11.4,11.3c1.3,1.2,1.8,2.5,1.7,4.3c-0.3,5.8-0.4,11.6-0.7,17.4c-0.1,1.6,0.4,2.5,1.8,3.3
		c9,5.5,9,5.6,17.8,0c0.9-0.6,1.9-1,2.6-1.7c5-4.5,10.3-4.1,16.6-2.7c8.5,1.9,14.5,5.4,17,13.8c2.3,8.1,7.7,10.3,15.4,9.1
		c1.7-0.3,2.7-0.6,3.5-2.1c2.6-5.1,5.3-10.1,7.9-15.1c0.8-1.5,1.7-2.5,3.5-3c5.3-1.3,10.6-2.7,15.8-4.2c1.7-0.5,3.1-0.2,4.5,0.8
		c4.7,3,9.5,5.9,14.1,8.9c1.6,1,2.8,1.3,4.6,0.3c9-5.2,9.6-5.2,8.3-15.7c-1-8.2,1.2-14,7.4-19.7c5.4-5,10.3-8.7,17.9-6.5
		c8.6,2.7,14-0.6,17-8.7c0.5-1.5,0.8-2.4-0.1-3.8c-2-3-3.6-6.3-5.8-9.1c-4.2-5.1-4.1-10.2-2.8-16.6c1.9-8.7,5.6-14.7,14.1-17.2
		C249.8,136.8,252.2,131.6,250.9,124z M128.3,213.6c-47.5,0.1-86.1-38.3-86.2-85.6c-0.1-47.1,38.5-85.8,85.7-85.9
		c46.9-0.1,85.7,38.4,85.8,85.3C213.8,174.8,175.4,213.6,128.3,213.6z"/>
	<path class="st0" d="M132.3,61.3c-37-0.1-66.8,29.5-66.9,66.6c0,36.8,29.8,66.7,66.5,66.7c36.9-0.1,66.6-29.8,66.7-66.6
		C198.6,91.3,169,61.5,132.3,61.3z M170.8,156.5c-5-0.1-10,0-15.1,0c-7.9,0-15.9,0-23.8,0c-12.7,0-25.4,0-38.1,0
		c-2,0-2.4-0.6-2.2-2.4c0.5-4.7,0.9-9.5,2-14.2c1.2-5,4.2-7.7,9.4-8.4c6.1-0.8,12.1-2,17.5-5.5c1.6-1,2.3-2.3,2.3-4.2
		c-0.1-4.7-1.2-8.9-3.9-12.9c-1.5-2.3-2.6-5.4-0.7-8.4c0.3-0.4,0.2-1.1,0.2-1.6c0-0.9-0.1-1.8-0.2-2.7c-1.7-11,10.1-18.6,19.7-14.7
		c3.1,1.3,5.1,3.1,7,5.3c2.1,2.6,1.8,5.7,1.5,8.8c-0.2,2.1-0.5,4,0.3,6.3c0.9,2.3,0.1,5.3-1.5,7.4c-3.1,4.2-3.9,8.8-3.7,13.9
		c0.1,1.3,0.9,2,1.9,2.6c5.3,3.7,11.5,4.8,17.6,5.7c5.3,0.7,8.3,3.4,9.5,8.5c1.1,4.8,1.6,9.7,2,14.6
		C172.5,156.2,172.2,156.6,170.8,156.5z"/>
</g>
</svg>
