<?xml version="1.0" encoding="utf-8"?>
<!-- Generator: Adobe Illustrator 24.3.0, SVG Export Plug-In . SVG Version: 6.00 Build 0)  -->
<svg version="1.1" id="code_stroke_1_" xmlns="http://www.w3.org/2000/svg" xmlns:xlink="http://www.w3.org/1999/xlink" x="0px"
	 y="0px" viewBox="0 0 256 256" style="enable-background:new 0 0 256 256;" xml:space="preserve">
<style type="text/css">
	.st0{fill:#FFFFFF;}
</style>
<g>
	<path class="st0" d="M127.9,249.4c-20.9,0-41.9,0-62.8,0c-6.7,0-8.8-2.1-8.8-8.9c0-11.9-0.2-23.7,0-35.6c0.4-22.6,10-40.1,29.4-52
		c5.9-3.6,12.4-6.2,19.3-7.2c1.3-0.2,2.4-0.1,3.6,0.5c13,5.8,25.9,5.9,38.9,0c1.2-0.6,2.3-0.6,3.6-0.4c28,4.8,48.4,29.4,48.7,59
		c0.1,12.2,0,24.5,0,36.7c0,5.7-2.4,8.1-8,8.1C170.5,249.4,149.2,249.4,127.9,249.4z"/>
	<path class="st0" d="M165.7,95.9c0,2.3,0,4.7,0,7c-0.3,20.7-17.1,37.3-37.7,37.3c-20.6,0-37.4-16.6-37.7-37.3
		c-0.1-4.9-0.1-9.7,0-14.6c0.4-20.5,17.2-37,37.7-37c20.5,0,37.3,16.5,37.7,37C165.7,90.8,165.7,93.4,165.7,95.9z"/>
	<path class="st0" d="M91.6,136.5c-2.8,1.3-5.8,2.5-8.5,4c-24,13.2-37,33.3-38.8,60.7c-0.2,2.7-0.8,3.6-3.6,3.5
		c-8.8-0.2-17.6-0.1-26.4-0.1c-5.2,0-7.6-2.4-7.6-7.6c0-12.4,0-24.8,0-37.2c0-18.4,7.2-33.6,20.8-45.6c8.1-7.2,17.8-11.5,28.4-13.4
		c1.1-0.2,1.9,0.1,2.8,0.5c5.6,2.6,11.5,4.2,17.7,4.4c1.4,0,2,0.4,2.2,1.9C80.9,121.1,83,125.6,91.6,136.5z"/>
	<path class="st0" d="M249.4,156.6c0,10-0.1,20.1-0.1,30.1c0,4.1,0,8.3,0,12.4c-1.4,4.4-2.9,5.5-7.6,5.5c-9.1,0-18.2-0.1-27.2,0.1
		c-2,0-2.6-0.5-2.7-2.5c-0.7-20.2-8.7-37-23.3-50.8c-6.2-5.9-13.4-10.2-21.3-13.5c-3-1.3-2.9-1.1-0.8-3.8
		c5.9-7.4,9.8-15.7,10.7-25.2c0.3-2.5,1.1-3.3,3.6-3.3c5.6-0.1,11-1.7,16.1-4.1c1.5-0.7,2.8-0.8,4.4-0.5c27,5.5,46.1,27.3,48,54.8
		C249.3,156.1,249.4,156.3,249.4,156.6z"/>
	<path class="st0" d="M173.9,6.6c2.7,0,5.4,0,8.1,0.1c5.9,1.2,11.7,2.9,16.7,6.4c9.2,6.4,15,15,16.2,26.2c1,9.5,1.5,19-0.9,28.4
		c-3.9,15.2-17.9,26.6-33.5,27.7c-2.1,0.1-2.8-0.2-2.7-2.5c0.5-10.8-1.7-20.9-7.5-30.1c-6.6-10.5-15.8-17.5-27.6-21.2
		c-2-0.7-2.5-1.4-2.2-3.5c2.8-15.7,15.3-28.2,31-30.9C172.3,6.9,173.1,6.7,173.9,6.6z"/>
	<path class="st0" d="M74.1,6.6c2.7,0,5.4,0,8.1-0.1c9,1.4,17,4.9,23.4,11.7c5.4,5.7,8.8,12.4,10.1,20.2c0.3,1.6-0.1,2.3-1.7,2.8
		c-18.7,6.2-30.3,18.8-34.7,38.1c-1,4.5-1,9.1-0.9,13.7c0.1,2-0.6,2.4-2.5,2.3c-18.2-1-33.6-16.1-35-34.6
		c-0.5-6.1-0.5-12.2-0.1-18.3c1.2-18.1,13.2-31.6,31-35.2C72.5,7,73.3,6.8,74.1,6.6z"/>
</g>
</svg>
