<?xml version="1.0" encoding="utf-8"?>
<!-- Generator: Adobe Illustrator 24.3.0, SVG Export Plug-In . SVG Version: 6.00 Build 0)  -->
<svg version="1.1" id="code_stroke_1_" xmlns="http://www.w3.org/2000/svg" xmlns:xlink="http://www.w3.org/1999/xlink" x="0px"
	 y="0px" viewBox="0 0 256 256" style="enable-background:new 0 0 256 256;" xml:space="preserve">
<style type="text/css">
	.st0{fill:#FFFFFF;}
</style>
<g>
	<path class="st0" d="M20.5,206.2c0.9-4.5,1.4-9,2.6-13.4c5.1-19.5,16.6-34.1,34-44.2c0.6-0.3,1.2-0.6,1.3-0.7
		c-0.7,5.4-1.1,11-2.4,16.4c-0.5,2.1-2.5,4.3-4.4,5.5c-6.2,4-11,9.4-13.1,16.1c-3,9.7-5.7,19.7-3.8,30.2c0.8,4.4,3.1,7.4,7.4,8.4
		c3.3,0.7,6.6,1.1,10,1.2c2.8,0.1,4.9-2.4,4.9-5.2c0-2.7-2.2-4.9-5.1-5c-2.1-0.1-4.3-0.1-6.4,0c-1.3,0.1-1.9-0.3-2-1.5
		c-0.5-6.4-0.7-13,2.2-18.8c2.4-4.8,5.9-9.2,9.5-13.3c3.5-3.9,6.8-3.6,10.6-0.1c8.9,8.1,13.3,21.5,10.9,33.6c-2.3,0-4.6,0-7,0
		c-3.4,0-5.7,2.1-5.8,5.1c0,2.9,2.3,5.3,5.7,5.1c3-0.1,6-0.5,8.9-1.2c5.2-1.3,7.2-5.3,7.6-10.3c0.6-7.8-0.8-15.3-2.7-22.9
		c-1.1-4.6-2.1-9.1-5.2-12.6c-2.8-3.2-6.2-5.9-9.3-8.9c-2.5-2.4-5.4-4.4-4.5-9c0.9-4.6,1.4-9.2,3.6-13.4c1.8-3.3,4.1-5.8,8.1-6.2
		c1.7-0.2,3.4-0.5,5.2-0.8c1.7-0.3,3.4,0.6,4,2.3c1.7,4.5,4.8,8,7.9,11.5c10.3,11.5,22.3,21.1,34.7,30.7c5.2-4.3,10.7-8.2,15.6-12.8
		c7.6-7,15-14.3,22.1-21.8c2.6-2.7,4.1-6.5,6.3-10.1c10.2,0.8,12.6,0.8,16.7,11c1.8,4.5,2.3,9.5,3.4,14.3c-4.3,1.5-7.7,3.4-10.1,6.7
		c-4.5,6.1-4.8,14.1-0.6,20.2c4.3,6.3,12,9.1,19.2,7c6.8-1.9,12.2-8.4,12.5-15.2c0.4-8.2-3.7-15-11-17.7c-1.8-0.7-2.3-1.6-2.5-3.4
		c-0.7-5.3-1.8-10.5-2.9-16.4c4.8,3.5,9.8,6.4,14,10.1c16.4,14.4,24.4,32.8,24.6,54.4c0.1,7.3-1.4,14.6-5.5,20.9
		c-4.9,7.5-12.4,11.1-20.8,12.6c-7.9,1.4-16,2.5-24,2.5c-38.1,0.3-76.1,0.3-114.2,0c-10.3-0.1-20.7-0.8-30.6-4.3
		c-11.2-4-17.2-12.2-19-23.7c-0.3-1.7-0.7-3.4-1-5.1C20.5,211.6,20.5,209,20.5,206.2z M158.6,219.7c0,3.4,0,6.4,0,9.4
		c0,2.1,1,2.9,3.4,2.6c2.2-0.3,4.5-0.1,6.7,0c2.5,0.2,3.5-0.7,3.4-3c-0.1-2.9,0-5.9,0-9c3.1,0,5.8,0,8.5,0c3.3,0,3.6-0.3,3.6-3.4
		c0-2.3-0.1-4.6,0-6.9c0.1-2.3-0.8-3.3-3.1-3.2c-2.9,0.1-5.9,0-9,0c0-3.4,0-6.3,0-9.3c0-1.5-1.2-2.8-2.7-2.8c-2.6,0-5.3,0.1-7.9,0
		c-2.1-0.1-2.9,0.9-2.9,2.9c0.1,3,0,5.9,0,9.2c-3.2,0-6.2,0.1-9.1,0c-2.1,0-3.1,0.8-2.9,3.2c0.2,2.3,0.3,4.6,0,6.9
		c-0.2,2.4,0.5,3.4,2.7,3.4C152.2,219.6,155.2,219.7,158.6,219.7z"/>
	<path class="st0" d="M135.2,8.4c2.8,0.7,5.6,1.3,8.4,2.1c23.8,6.4,41.2,27.3,43.2,52c1.1,14.1-2.3,27.3-7.7,40.1
		c-6,14.3-14.1,27.1-26.4,36.9c-8.5,6.7-17.9,10.7-29,9.2c-9.6-1.2-17.4-6-24.3-12.5c-15.2-14.6-24-32.6-28.6-53
		c-3.5-15.6-2.3-30.8,5.8-44.9c9.1-15.8,22.8-25.5,40.8-29c1.2-0.2,2.3-0.6,3.4-0.9L135.2,8.4z"/>
	<path class="st0" d="M195.8,190.5c-4.4,0-7.7-3.4-7.6-7.9c0-4.1,3.5-7.6,7.6-7.7c4.5-0.1,8,3.5,7.9,8
		C203.6,187.3,200.2,190.6,195.8,190.5z"/>
</g>
</svg>
