<?xml version="1.0" encoding="utf-8"?>
<!-- Generator: Adobe Illustrator 24.3.0, SVG Export Plug-In . SVG Version: 6.00 Build 0)  -->
<svg version="1.1" id="code_stroke_1_" xmlns="http://www.w3.org/2000/svg" xmlns:xlink="http://www.w3.org/1999/xlink" x="0px"
	 y="0px" viewBox="0 0 256 256" style="enable-background:new 0 0 256 256;" xml:space="preserve">
<style type="text/css">
	.st0{fill:#FFFFFF;}
</style>
<g>
	<path class="st0" d="M69.7,78.7c4.6,1.2,8,3.7,9.3,8.5c0.1,0.4,1,0.8,1.5,0.8c2.1,0.1,4.2,0,6.3,0c2.6,0,3.1,0.5,3.1,3.1
		c0,17.1,0,34.2,0,51.3c0,0.8,0,1.6,0,2.6c5.5,0,10.8,0,16.1,0c0.5,0,1.1-0.2,1.4,0c0.7,0.5,1.3,1.2,1.9,1.9
		c-0.6,0.6-1.1,1.5-1.8,1.7c-0.8,0.3-1.9,0.1-2.8,0.1c-4.8,0-9.7,0-14.8,0c0,2.9,0,5.6,0,8.4c0,15.1,0,30.2,0,45.2
		c0,3-0.3,3.2-3.2,3.3c-1.9,0-3.8,0.1-5.6,0c-1.5-0.1-1.9,0.6-2.3,1.8c-1.8,5.4-6.4,7.6-10.8,7.6c-5.5-0.1-9.6-3.8-10.7-9
		c-1.2-5.7,2.3-11.4,7.9-13c5.7-1.6,11.6,1.3,13.5,6.9c0.6,1.7,1.4,2.2,3,2c1.5-0.1,2.9,0,4.5,0c0-11.4,0-22.6,0-34.2
		c-2,0-4.1-0.1-6.1,0.1c-0.4,0-0.9,1-1.1,1.6c-2.5,7.2-10.8,10-17,5.8c-4-2.7-5.8-7.8-4.4-12.5c1.4-4.6,5.6-7.9,10.3-8
		c5-0.1,9.3,2.7,10.9,7.4c0.5,1.5,1.2,2.2,2.8,2c1.5-0.2,3.1,0,4.7,0c0-11.5,0-22.7,0-34.2c-2.1,0-4.1-0.1-6,0.1c-0.5,0-1,1-1.3,1.7
		c-1.6,4.4-5.6,7.4-10.2,7.6c-4.5,0.2-8.8-2.5-10.6-6.7c-2.6-5.8,0.1-12.5,6-14.9c5.8-2.4,12.6,0.5,14.6,6.5c0.6,1.7,1.4,2.1,3,2
		c1.5-0.1,2.9,0,4.5,0c0-11.4,0-22.6,0-34.1c-2.1,0-4.1-0.1-6.2,0.1c-0.4,0-0.9,1-1.1,1.6c-1.6,4.5-5.5,7.4-10.2,7.6
		c-4.5,0.2-8.8-2.5-10.7-6.6c-2.8-6.1,0.4-13.3,6.9-15.3c0.6-0.2,1.1-0.4,1.7-0.6C67.6,78.7,68.7,78.7,69.7,78.7z M60.7,203.9
		c0,4.2,3.5,7.6,7.7,7.6c3.8,0,7.3-3.7,7.2-7.7c0-4.2-3.5-7.5-7.6-7.5C64,196.4,60.6,199.8,60.7,203.9z M68.2,173.4
		c4.1,0,7.4-3.4,7.4-7.4c0-4.2-3.4-7.6-7.6-7.6c-4.1,0-7.5,3.5-7.4,7.7C60.8,170.3,64,173.4,68.2,173.4z M68.2,97.5
		c4.1,0,7.4-3.3,7.5-7.4c0.1-4.1-3.3-7.6-7.5-7.6c-4.1,0-7.4,3.3-7.5,7.4C60.7,94.1,63.9,97.5,68.2,97.5z M68.1,135.4
		c4.2,0,7.6-3.3,7.6-7.5c0-4.1-3.3-7.4-7.4-7.5c-4.1-0.1-7.5,3.2-7.5,7.3C60.6,132,63.9,135.4,68.1,135.4z"/>
	<path class="st0" d="M199.1,145c-1.7,6.5-5.2,11.5-11.2,14.8c-0.7,0.4-1.2,1.8-1.3,2.7c-2.1,24.3-4.1,48.7-6,73
		c-0.7,8.8-0.6,8.8-9.4,8.8c-9.2,0-18.4,0-27.5,0c-4.3,0-5.2-0.9-5.5-5c-2-25.1-4.1-50.2-6.1-75.3c-0.2-2.5-1-4.1-3.3-5.6
		c-6.1-3.8-9.3-9.5-9.3-16.9c0.1-18.3,0.5-36.6-0.1-54.9c-0.6-15.3,11.3-23.1,22.5-23.3c11.5-0.3,23.1-0.4,34.6,0
		c11.4,0.4,19.4,6.1,22.7,17.4C199.1,102.3,199.1,123.7,199.1,145z M173.3,237.5c0.2-1.3,0.5-2.5,0.6-3.7c2-24.7,4.1-49.4,6.1-74.1
		c0.2-2.6,1-4.3,3.5-5.4c5.9-2.5,8.7-7,8.6-13.6c-0.2-18.4,0-36.8,0-55.3c0-8.2-5-14.4-13.2-14.7c-13.1-0.5-26.2-0.5-39.3,0
		c-8.2,0.3-13.2,6.6-13.2,14.8c0,18.5,0.1,37.1,0,55.6c0,6,2.5,10.3,7.8,12.6c3.4,1.5,4.4,3.7,4.6,7c1.5,19.3,3.1,38.7,4.6,58
		c0.5,6.2,1.1,12.4,1.7,18.7C154.5,237.5,163.8,237.5,173.3,237.5z"/>
	<path class="st0" d="M159.4,11.5c13.6,0.2,24.4,11.2,24.3,24.9c-0.1,13.7-11.4,24.8-25.1,24.5c-13.5-0.3-24.5-11.7-24.2-25.1
		C134.8,22.1,145.9,11.4,159.4,11.5z M141.4,36.1c0,9.9,7.8,18,17.6,18c10,0.1,18-8,18-18c0-9.8-8-17.8-17.8-17.8
		C149.3,18.3,141.4,26.2,141.4,36.1z"/>
</g>
</svg>
