<?xml version="1.0" encoding="utf-8"?>
<!-- Generator: Adobe Illustrator 24.3.0, SVG Export Plug-In . SVG Version: 6.00 Build 0)  -->
<svg version="1.1" id="code_stroke_1_" xmlns="http://www.w3.org/2000/svg" xmlns:xlink="http://www.w3.org/1999/xlink" x="0px"
	 y="0px" viewBox="0 0 256 256" style="enable-background:new 0 0 256 256;" xml:space="preserve">
<style type="text/css">
	.st0{fill:#FFFFFF;}
</style>
<g>
	<path class="st0" d="M44.9,33.7c2.1,10.2-3.7,26.7,14,26.3c16.5-0.3,11.6-15.5,12.9-26.5c20.7,0,41.3,0,63.2,0
		c0,4.1-0.2,8.4,0,12.6c0.4,8.6,5.8,14.4,13,14.3c7.4,0,12.7-5.8,13-14.3c0.2-4.1,0-8.2,0-12.2c20.2-4.1,37.7,9.9,38.2,30.2
		c0.4,17.7,0.1,35.4,0.1,53.2c0,3,0,6,0,9.2c19.6,2.9,34.4,11.9,43.4,29.2c12.5,23.9,5.5,53.2-16.4,68.8
		c-22.2,15.7-52.8,12.7-70.8-7.7c-4.1-4.7-8.1-6.3-14.1-6.2c-33.2,0.2-66.4,0.1-99.7,0.1c-21.3,0-34.5-12.7-34.5-33.8
		c-0.2-36.8-0.2-73.6,0-110.5C7.4,44.5,23.1,30.9,44.9,33.7z M18.4,73.6c0,34.4,0,67.9,0,101.3c0,17.3,7.4,24.7,24.8,24.7
		c30.7,0.1,61.4,0,92.2,0c2.7,0,5.4-0.2,8.2-0.3c-5.2-42.1,6.1-60.6,44-72.7c0-17.5,0-35.1,0-53C131.1,73.6,75.3,73.6,18.4,73.6z
		 M152.5,180.2c-0.1,23.7,18.6,43,42.1,43.3c23.3,0.3,42.9-18.9,43.1-42.4c0.2-23.6-18.5-42.9-42.1-43.3
		C172.3,137.5,152.7,156.8,152.5,180.2z"/>
	<path class="st0" d="M65.4,37.8c0,3.6,0.9,7.5-0.3,10.6c-0.9,2.5-4.5,6-6.5,5.7c-2.6-0.4-6.5-3.7-6.9-6.2c-1-6.5-1.1-13.3-0.1-19.7
		c0.4-2.7,4.3-6.2,7.1-6.8c1.7-0.4,5.4,3.8,6.5,6.5c1.1,2.8,0.3,6.5,0.3,9.8C65.6,37.8,65.5,37.8,65.4,37.8z"/>
	<path class="st0" d="M141.1,37.2c0-3.3-0.9-7,0.3-9.8c1.2-2.7,4.4-5.7,7-6c1.9-0.3,6,3.4,6.3,5.7c0.8,7,0.8,14.3,0,21.4
		c-0.3,2.2-4.5,5.9-6.4,5.6c-2.6-0.4-5.9-3.5-6.9-6.2C140.2,44.7,141.1,40.8,141.1,37.2z"/>
	<path class="st0" d="M64.1,156.7c6.5,0,12.1,0,18.5,0c0,6.3,0,12.3,0,18.9c-6.1,0-12,0-18.5,0C64.1,169.4,64.1,163.5,64.1,156.7z"
		/>
	<path class="st0" d="M34.2,156.7c6.5,0,12.1,0,18.5,0c0,6.3,0,12.3,0,18.9c-6.1,0-12,0-18.5,0C34.2,169.4,34.2,163.5,34.2,156.7z"
		/>
	<path class="st0" d="M93.8,175.4c0-6.2,0-12.1,0-18.5c6.3,0,12.2,0,18.7,0c0,6.1,0,12,0,18.5C106.5,175.4,100.4,175.4,93.8,175.4z"
		/>
	<path class="st0" d="M34.2,127.3c6.1,0,12.1,0,18.6,0c0,6,0,11.9,0,18.4c-6.1,0-12.1,0-18.6,0C34.2,139.9,34.2,134.2,34.2,127.3z"
		/>
	<path class="st0" d="M94,127.1c6.8,0,12.3,0,18.4,0c0,6.2,0,12.1,0,18.6c-5.9,0-11.8,0-18.4,0C94,139.6,94,133.5,94,127.1z"/>
	<path class="st0" d="M53,97.8c0,6.3,0,11.9,0,18.2c-6.2,0-12.1,0-18.7,0c0-5.9,0-11.8,0-18.2C40.4,97.8,46.2,97.8,53,97.8z"/>
	<path class="st0" d="M82.8,97.6c0,6.6,0,12.3,0,18.4c-6.3,0-12.2,0-18.7,0c0-6.2,0-12,0-18.4C70.4,97.6,76.3,97.6,82.8,97.6z"/>
	<path class="st0" d="M112.5,116.2c-6.6,0-12.3,0-18.6,0c0-6.3,0-12.1,0-18.5c6.3,0,12.2,0,18.6,0
		C112.5,103.8,112.5,109.6,112.5,116.2z"/>
	<path class="st0" d="M142.4,116.1c-6.4,0-12.3,0-18.7,0c0-6.1,0-11.8,0-18.2c6.1,0,12.2,0,18.7,0
		C142.4,104,142.4,109.9,142.4,116.1z"/>
	<path class="st0" d="M153.5,115.9c0-6.1,0-11.7,0-18.1c6.1,0,12,0,18.6,0c0,5.6,0,11.5,0,18.1C166.1,115.9,160.1,115.9,153.5,115.9
		z"/>
	<path class="st0" d="M82.6,145.7c-6.4,0-12.3,0-18.6,0c0-6.2,0-11.8,0-18.2c6.2,0,12.1,0,18.6,0C82.6,133.2,82.6,139.1,82.6,145.7z
		"/>
	<path class="st0" d="M142.4,145.9c-6.6,0-12.3,0-18.6,0c0-6.2,0-12.1,0-18.5c6.3,0,12.2,0,18.6,0
		C142.4,133.4,142.4,139.3,142.4,145.9z"/>
	<path class="st0" d="M188.4,191.5h-4.1c-0.8,0-1.5-0.7-1.5-1.5v-29.9c0-0.8,0.7-1.5,1.5-1.5h4.1c0.8,0,1.5,0.7,1.5,1.5V190
		C189.9,190.8,189.2,191.5,188.4,191.5z"/>
	<path class="st0" d="M216,185.8v4.1c0,0.8-0.7,1.5-1.5,1.5h-27.8c-0.8,0-1.5-0.7-1.5-1.5v-4.1c0-0.8,0.7-1.5,1.5-1.5h27.8
		C215.3,184.3,216,185,216,185.8z"/>
</g>
</svg>
